STARTFONT 2.1
COMMENT This font was automatically resized by bdfresize-1.4
COMMENT   mag_x = 2/1, mag_y = 2/1, blackness = 4
COMMENT 16x16 kanji font
COMMENT from Japanese Industrial Standard, JIS X 9051-1984
COMMENT named "16-dots Matrix Character Patterns for Display Devices"
FONT -JIS-Fixed-Medium-R-Normal--32-300-75-75-C-320-JISX0208.1983-0
SIZE 12 78 78
FONTBOUNDINGBOX 32 32 0 4
STARTPROPERTIES 19
FONT_ASCENT 28
FONT_DESCENT 4
DEFAULT_CHAR 8481
COPYRIGHT "from JIS X 9051-1984, by permission to use"
FONTNAME_REGISTRY ""
FOUNDRY "JIS"
FAMILY_NAME "Fixed"
WEIGHT_NAME "Medium"
SLANT "R"
SETWIDTH_NAME "Normal"
ADD_STYLE_NAME ""
PIXEL_SIZE 32
POINT_SIZE 300
RESOLUTION_X 75
RESOLUTION_Y 75
SPACING "C"
AVERAGE_WIDTH 320
CHARSET_REGISTRY "JISX0208.1983"
CHARSET_ENCODING "0"
ENDPROPERTIES
CHARS 6877
STARTCHAR 2121
ENCODING 8481
SWIDTH 192 0
DWIDTH 32 0
BBX 32 32 0 -4
BITMAP
00000000
00000000
00000000
00000000
00000000
00000000
00000000
00000000
00000000
00000000
00000000
00000000
00000000
00000000
00000000
00000000
00000000
00000000
00000000
00000000
00000000
00000000
00000000
00000000
00000000
00000000
00000000
00000000
00000000
00000000
00000000
00000000
ENDCHAR
STARTCHAR 2122
ENCODING 8482
SWIDTH 192 0
DWIDTH 32 0
BBX 32 32 0 -4
BITMAP
00000000
00000000
00000000
00000000
00000000
00000000
00000000
00000000
00000000
00000000
00000000
00000000
00000000
00000000
00000000
00000000
00000000
00000000
00000000
00000000
00000000
00000000
00000000
00000000
00000000
00000000
3C000000
3C000000
0F000000
0F000000
03000000
03000000
ENDCHAR
STARTCHAR 2123
ENCODING 8483
SWIDTH 192 0
DWIDTH 32 0
BBX 32 32 0 -4
BITMAP
00000000
00000000
00000000
00000000
00000000
00000000
00000000
00000000
00000000
00000000
00000000
00000000
00000000
00000000
00000000
00000000
00000000
00000000
00000000
00000000
00000000
00000000
00000000
00000000
3C000000
3C000000
C3000000
C3000000
C3000000
C3000000
3C000000
3C000000
ENDCHAR
STARTCHAR 2124
ENCODING 8484
SWIDTH 192 0
DWIDTH 32 0
BBX 32 32 0 -4
BITMAP
00000000
00000000
00000000
00000000
00000000
00000000
00000000
00000000
00000000
00000000
00000000
00000000
00000000
00000000
00000000
00000000
00000000
00000000
00000000
00000000
00000000
00000000
00000000
00000000
3C000000
3C000000
3C000000
3C000000
0C000000
0C000000
30000000
30000000
ENDCHAR
STARTCHAR 2125
ENCODING 8485
SWIDTH 192 0
DWIDTH 32 0
BBX 32 32 0 -4
BITMAP
00000000
00000000
00000000
00000000
00000000
00000000
00000000
00000000
00000000
00000000
00000000
00000000
00000000
00000000
00000000
00000000
00000000
00000000
00000000
00000000
00000000
00000000
00000000
00000000
3C000000
3C000000
3C000000
3C000000
00000000
00000000
00000000
00000000
ENDCHAR
STARTCHAR 2126
ENCODING 8486
SWIDTH 192 0
DWIDTH 32 0
BBX 32 32 0 -4
BITMAP
00000000
00000000
00000000
00000000
00000000
00000000
00000000
00000000
00000000
00000000
00000000
00000000
00000000
00000000
0003C000
0003C000
0003C000
0003C000
00000000
00000000
00000000
00000000
00000000
00000000
00000000
00000000
00000000
00000000
00000000
00000000
00000000
00000000
ENDCHAR
STARTCHAR 2127
ENCODING 8487
SWIDTH 192 0
DWIDTH 32 0
BBX 32 32 0 -4
BITMAP
00000000
00000000
00000000
00000000
00000000
00000000
00000000
00000000
00000000
00000000
00000000
00000000
0003C000
0003C000
0003C000
0003C000
00000000
00000000
00000000
00000000
00000000
00000000
00000000
00000000
0003C000
0003C000
0003C000
0003C000
00000000
00000000
00000000
00000000
ENDCHAR
STARTCHAR 2128
ENCODING 8488
SWIDTH 192 0
DWIDTH 32 0
BBX 32 32 0 -4
BITMAP
00000000
00000000
00000000
00000000
00000000
00000000
00000000
00000000
00000000
00000000
00000000
00000000
0003C000
0003C000
0003C000
0003C000
00000000
00000000
00000000
00000000
00000000
00000000
00000000
00000000
0003C000
0003C000
0003C000
0003C000
0000C000
0000C000
00030000
00030000
ENDCHAR
STARTCHAR 2129
ENCODING 8489
SWIDTH 192 0
DWIDTH 32 0
BBX 32 32 0 -4
BITMAP
00000000
00000000
003FFC00
003FFC00
00C00300
00C00300
030000C0
030000C0
030000C0
030000C0
00C000C0
00C000C0
00000F00
00000F00
0000F000
0000F000
00030000
00030000
00030000
00030000
00000000
00000000
00000000
00000000
0003C000
0003C000
0003C000
0003C000
00000000
00000000
00000000
00000000
ENDCHAR
STARTCHAR 212a
ENCODING 8490
SWIDTH 192 0
DWIDTH 32 0
BBX 32 32 0 -4
BITMAP
00000000
00000000
0003C000
0003C000
0003C000
0003C000
0003C000
0003C000
0003C000
0003C000
0003C000
0003C000
00030000
00030000
00030000
00030000
00030000
00030000
00030000
00030000
00000000
00000000
00000000
00000000
0003C000
0003C000
0003C000
0003C000
00000000
00000000
00000000
00000000
ENDCHAR
STARTCHAR 212b
ENCODING 8491
SWIDTH 192 0
DWIDTH 32 0
BBX 32 32 0 -4
BITMAP
33000000
33000000
33000000
33000000
00000000
00000000
00000000
00000000
00000000
00000000
00000000
00000000
00000000
00000000
00000000
00000000
00000000
00000000
00000000
00000000
00000000
00000000
00000000
00000000
00000000
00000000
00000000
00000000
00000000
00000000
00000000
00000000
ENDCHAR
STARTCHAR 212c
ENCODING 8492
SWIDTH 192 0
DWIDTH 32 0
BBX 32 32 0 -4
BITMAP
00000000
00000000
00000000
00000000
3C000000
3C000000
C3000000
C3000000
C3000000
C3000000
3C000000
3C000000
00000000
00000000
00000000
00000000
00000000
00000000
00000000
00000000
00000000
00000000
00000000
00000000
00000000
00000000
00000000
00000000
00000000
00000000
00000000
00000000
ENDCHAR
STARTCHAR 212d
ENCODING 8493
SWIDTH 192 0
DWIDTH 32 0
BBX 32 32 0 -4
BITMAP
0000F000
0000F000
000F0000
000F0000
00000000
00000000
00000000
00000000
00000000
00000000
00000000
00000000
00000000
00000000
00000000
00000000
00000000
00000000
00000000
00000000
00000000
00000000
00000000
00000000
00000000
00000000
00000000
00000000
00000000
00000000
00000000
00000000
ENDCHAR
STARTCHAR 212e
ENCODING 8494
SWIDTH 192 0
DWIDTH 32 0
BBX 32 32 0 -4
BITMAP
000F0000
000F0000
0000F000
0000F000
00000000
00000000
00000000
00000000
00000000
00000000
00000000
00000000
00000000
00000000
00000000
00000000
00000000
00000000
00000000
00000000
00000000
00000000
00000000
00000000
00000000
00000000
00000000
00000000
00000000
00000000
00000000
00000000
ENDCHAR
STARTCHAR 212f
ENCODING 8495
SWIDTH 192 0
DWIDTH 32 0
BBX 32 32 0 -4
BITMAP
003C3C00
003C3C00
003C3C00
003C3C00
00000000
00000000
00000000
00000000
00000000
00000000
00000000
00000000
00000000
00000000
00000000
00000000
00000000
00000000
00000000
00000000
00000000
00000000
00000000
00000000
00000000
00000000
00000000
00000000
00000000
00000000
00000000
00000000
ENDCHAR
STARTCHAR 2130
ENCODING 8496
SWIDTH 192 0
DWIDTH 32 0
BBX 32 32 0 -4
BITMAP
0003C000
0003C000
003C3C00
003C3C00
00000000
00000000
00000000
00000000
00000000
00000000
00000000
00000000
00000000
00000000
00000000
00000000
00000000
00000000
00000000
00000000
00000000
00000000
00000000
00000000
00000000
00000000
00000000
00000000
00000000
00000000
00000000
00000000
ENDCHAR
STARTCHAR 2131
ENCODING 8497
SWIDTH 192 0
DWIDTH 32 0
BBX 32 32 0 -4
BITMAP
FFFFFFFF
FFFFFFFF
00000000
00000000
00000000
00000000
00000000
00000000
00000000
00000000
00000000
00000000
00000000
00000000
00000000
00000000
00000000
00000000
00000000
00000000
00000000
00000000
00000000
00000000
00000000
00000000
00000000
00000000
00000000
00000000
00000000
00000000
ENDCHAR
STARTCHAR 2132
ENCODING 8498
SWIDTH 192 0
DWIDTH 32 0
BBX 32 32 0 -4
BITMAP
00000000
00000000
00000000
00000000
00000000
00000000
00000000
00000000
00000000
00000000
00000000
00000000
00000000
00000000
00000000
00000000
00000000
00000000
00000000
00000000
00000000
00000000
00000000
00000000
00000000
00000000
00000000
00000000
00000000
00000000
FFFFFFFF
FFFFFFFF
ENDCHAR
STARTCHAR 2133
ENCODING 8499
SWIDTH 192 0
DWIDTH 32 0
BBX 32 32 0 -4
BITMAP
00000000
00000000
00000000
00000000
00000000
00000000
00000000
00000000
003C0000
003C0000
000F0000
000F0000
0003C000
0003C000
0000F000
0000F000
00003C00
00003C00
00000C00
00000C00
00000F00
00000F00
00000300
00000300
00000000
00000000
00000000
00000000
00000000
00000000
00000000
00000000
ENDCHAR
STARTCHAR 2134
ENCODING 8500
SWIDTH 192 0
DWIDTH 32 0
BBX 32 32 0 -4
BITMAP
00000000
00000000
00000000
00000000
00000000
00000000
00003300
00003300
00F03300
00F03300
003C0000
003C0000
000F0000
000F0000
0003C000
0003C000
0000F000
0000F000
00003000
00003000
00003C00
00003C00
00000C00
00000C00
00000000
00000000
00000000
00000000
00000000
00000000
00000000
00000000
ENDCHAR
STARTCHAR 2135
ENCODING 8501
SWIDTH 192 0
DWIDTH 32 0
BBX 32 32 0 -4
BITMAP
00000000
00000000
00000000
00000000
00000000
00000000
00C00000
00C00000
00F00000
00F00000
003C0000
003C0000
000F0000
000F0000
0003F000
0003F000
00003C00
00003C00
00000F00
00000F00
00003C00
00003C00
0003F000
0003F000
000F0000
000F0000
00000000
00000000
00000000
00000000
00000000
00000000
ENDCHAR
STARTCHAR 2136
ENCODING 8502
SWIDTH 192 0
DWIDTH 32 0
BBX 32 32 0 -4
BITMAP
00000000
00000000
00000000
00000000
00000000
00000000
00C00CC0
00C00CC0
00F00CC0
00F00CC0
003C0000
003C0000
000F0000
000F0000
0003F000
0003F000
00003C00
00003C00
00000F00
00000F00
00003C00
00003C00
0003F000
0003F000
000F0000
000F0000
00000000
00000000
00000000
00000000
00000000
00000000
ENDCHAR
STARTCHAR 2137
ENCODING 8503
SWIDTH 192 0
DWIDTH 32 0
BBX 32 32 0 -4
BITMAP
00000000
00000000
00000000
00000000
00000000
00000000
00300C00
00300C00
00300C00
00300C00
00300C00
00300C00
00300C00
00300C00
00300C00
00300C00
00300C00
00300C00
00300C00
00300C00
00C03000
00C03000
00C03000
00C03000
0300C000
0300C000
00000000
00000000
00000000
00000000
00000000
00000000
ENDCHAR
STARTCHAR 2138
ENCODING 8504
SWIDTH 192 0
DWIDTH 32 0
BBX 32 32 0 -4
BITMAP
00030000
00030000
000FC000
000FC000
003CF000
003CF000
00F03C00
00F03C00
03C00F00
03C00F00
0F0003F0
0F0003F0
FC00003F
FC00003F
00000000
00000000
0FFFFFF0
0FFFFFF0
00030000
00030000
00030000
00030000
00030000
00030000
00030000
00030000
00030000
00030000
FFFFFFFF
FFFFFFFF
00000000
00000000
ENDCHAR
STARTCHAR 2139
ENCODING 8505
SWIDTH 192 0
DWIDTH 32 0
BBX 32 32 0 -4
BITMAP
00000000
00000000
000C0000
000C0000
000C0000
000C0000
000C0000
000C0000
003FFFC0
003FFFC0
003000C0
003000C0
00F003C0
00F003C0
00C00300
00C00300
03C00F00
03C00F00
0F0F3C00
0F0F3C00
0003F000
0003F000
00003C00
00003C00
00000F00
00000F00
00000300
00000300
00000000
00000000
00000000
00000000
ENDCHAR
STARTCHAR 213a
ENCODING 8506
SWIDTH 192 0
DWIDTH 32 0
BBX 32 32 0 -4
BITMAP
00000000
00000000
0000003C
0000003C
000000F0
000000F0
000003C0
000003C0
003F0F00
003F0F00
00C3FC00
00C3FC00
0300F000
0300F000
0303FC00
0303FC00
0F0F0F00
0F0F0F00
0C3C0000
0C3C0000
0CF00000
0CF00000
0CC00000
0CC00000
0FC00000
0FC00000
0F000000
0F000000
3C000000
3C000000
00000000
00000000
ENDCHAR
STARTCHAR 213b
ENCODING 8507
SWIDTH 192 0
DWIDTH 32 0
BBX 32 32 0 -4
BITMAP
00000000
00000000
00000000
00000000
003FFC00
003FFC00
03F00FC0
03F00FC0
0F0000F0
0F0000F0
0C000030
0C000030
3C00003C
3C00003C
3000000C
3000000C
3000000C
3000000C
3C00003C
3C00003C
0C000030
0C000030
0F0000F0
0F0000F0
03F00FC0
03F00FC0
003FFC00
003FFC00
00000000
00000000
00000000
00000000
ENDCHAR
STARTCHAR 213c
ENCODING 8508
SWIDTH 192 0
DWIDTH 32 0
BBX 32 32 0 -4
BITMAP
00000000
00000000
00000000
00000000
00000000
00000000
00000000
00000000
00000000
00000000
00000000
00000000
30000000
30000000
0FFFFFFC
0FFFFFFC
00000000
00000000
00000000
00000000
00000000
00000000
00000000
00000000
00000000
00000000
00000000
00000000
00000000
00000000
00000000
00000000
ENDCHAR
STARTCHAR 213d
ENCODING 8509
SWIDTH 192 0
DWIDTH 32 0
BBX 32 32 0 -4
BITMAP
00000000
00000000
00000000
00000000
00000000
00000000
00000000
00000000
00000000
00000000
00000000
00000000
00000000
00000000
FFFFFFFF
FFFFFFFF
00000000
00000000
00000000
00000000
00000000
00000000
00000000
00000000
00000000
00000000
00000000
00000000
00000000
00000000
00000000
00000000
ENDCHAR
STARTCHAR 213e
ENCODING 8510
SWIDTH 192 0
DWIDTH 32 0
BBX 32 32 0 -4
BITMAP
00000000
00000000
00000000
00000000
00000000
00000000
00000000
00000000
00000000
00000000
00000000
00000000
00000000
00000000
003FFC00
003FFC00
00000000
00000000
00000000
00000000
00000000
00000000
00000000
00000000
00000000
00000000
00000000
00000000
00000000
00000000
00000000
00000000
ENDCHAR
STARTCHAR 213f
ENCODING 8511
SWIDTH 192 0
DWIDTH 32 0
BBX 32 32 0 -4
BITMAP
00000003
00000003
0000000C
0000000C
00000030
00000030
000000C0
000000C0
00000300
00000300
00000C00
00000C00
00003000
00003000
0000C000
0000C000
00030000
00030000
000C0000
000C0000
00300000
00300000
00C00000
00C00000
03000000
03000000
0C000000
0C000000
30000000
30000000
C0000000
C0000000
ENDCHAR
STARTCHAR 2140
ENCODING 8512
SWIDTH 192 0
DWIDTH 32 0
BBX 32 32 0 -4
BITMAP
C0000000
C0000000
30000000
30000000
0C000000
0C000000
03000000
03000000
00C00000
00C00000
00300000
00300000
000C0000
000C0000
00030000
00030000
0000C000
0000C000
00003000
00003000
00000C00
00000C00
00000300
00000300
000000C0
000000C0
00000030
00000030
0000000C
0000000C
00000003
00000003
ENDCHAR
STARTCHAR 2141
ENCODING 8513
SWIDTH 192 0
DWIDTH 32 0
BBX 32 32 0 -4
BITMAP
00000000
00000000
00000000
00000000
00000000
00000000
00000000
00000000
00000000
00000000
00000000
00000000
0FF00000
0FF00000
300F0003
300F0003
C000F00C
C000F00C
00000FF0
00000FF0
00000000
00000000
00000000
00000000
00000000
00000000
00000000
00000000
00000000
00000000
00000000
00000000
ENDCHAR
STARTCHAR 2142
ENCODING 8514
SWIDTH 192 0
DWIDTH 32 0
BBX 32 32 0 -4
BITMAP
00303000
00303000
00303000
00303000
00303000
00303000
00303000
00303000
00303000
00303000
00303000
00303000
00303000
00303000
00303000
00303000
00303000
00303000
00303000
00303000
00303000
00303000
00303000
00303000
00303000
00303000
00303000
00303000
00303000
00303000
00303000
00303000
ENDCHAR
STARTCHAR 2143
ENCODING 8515
SWIDTH 192 0
DWIDTH 32 0
BBX 32 32 0 -4
BITMAP
00030000
00030000
00030000
00030000
00030000
00030000
00030000
00030000
00030000
00030000
00030000
00030000
00030000
00030000
00030000
00030000
00030000
00030000
00030000
00030000
00030000
00030000
00030000
00030000
00030000
00030000
00030000
00030000
00030000
00030000
00030000
00030000
ENDCHAR
STARTCHAR 2144
ENCODING 8516
SWIDTH 192 0
DWIDTH 32 0
BBX 32 32 0 -4
BITMAP
00000000
00000000
00000000
00000000
00000000
00000000
00000000
00000000
00000000
00000000
00000000
00000000
00000000
00000000
3C03C03C
3C03C03C
3C03C03C
3C03C03C
00000000
00000000
00000000
00000000
00000000
00000000
00000000
00000000
00000000
00000000
00000000
00000000
00000000
00000000
ENDCHAR
STARTCHAR 2145
ENCODING 8517
SWIDTH 192 0
DWIDTH 32 0
BBX 32 32 0 -4
BITMAP
00000000
00000000
00000000
00000000
00000000
00000000
00000000
00000000
00000000
00000000
00000000
00000000
00000000
00000000
03C003C0
03C003C0
03C003C0
03C003C0
00000000
00000000
00000000
00000000
00000000
00000000
00000000
00000000
00000000
00000000
00000000
00000000
00000000
00000000
ENDCHAR
STARTCHAR 2146
ENCODING 8518
SWIDTH 192 0
DWIDTH 32 0
BBX 32 32 0 -4
BITMAP
000000C0
000000C0
00000300
00000300
000003C0
000003C0
000003C0
000003C0
00000000
00000000
00000000
00000000
00000000
00000000
00000000
00000000
00000000
00000000
00000000
00000000
00000000
00000000
00000000
00000000
00000000
00000000
00000000
00000000
00000000
00000000
00000000
00000000
ENDCHAR
STARTCHAR 2147
ENCODING 8519
SWIDTH 192 0
DWIDTH 32 0
BBX 32 32 0 -4
BITMAP
03C00000
03C00000
03C00000
03C00000
00C00000
00C00000
03000000
03000000
00000000
00000000
00000000
00000000
00000000
00000000
00000000
00000000
00000000
00000000
00000000
00000000
00000000
00000000
00000000
00000000
00000000
00000000
00000000
00000000
00000000
00000000
00000000
00000000
ENDCHAR
STARTCHAR 2148
ENCODING 8520
SWIDTH 192 0
DWIDTH 32 0
BBX 32 32 0 -4
BITMAP
00000C30
00000C30
000030C0
000030C0
00003CF0
00003CF0
00003CF0
00003CF0
00000000
00000000
00000000
00000000
00000000
00000000
00000000
00000000
00000000
00000000
00000000
00000000
00000000
00000000
00000000
00000000
00000000
00000000
00000000
00000000
00000000
00000000
00000000
00000000
ENDCHAR
STARTCHAR 2149
ENCODING 8521
SWIDTH 192 0
DWIDTH 32 0
BBX 32 32 0 -4
BITMAP
0F3C0000
0F3C0000
0F3C0000
0F3C0000
030C0000
030C0000
0C300000
0C300000
00000000
00000000
00000000
00000000
00000000
00000000
00000000
00000000
00000000
00000000
00000000
00000000
00000000
00000000
00000000
00000000
00000000
00000000
00000000
00000000
00000000
00000000
00000000
00000000
ENDCHAR
STARTCHAR 214a
ENCODING 8522
SWIDTH 192 0
DWIDTH 32 0
BBX 32 32 0 -4
BITMAP
000000C0
000000C0
00000300
00000300
00000F00
00000F00
00000C00
00000C00
00003C00
00003C00
00003000
00003000
00003000
00003000
00003000
00003000
00003000
00003000
00003000
00003000
00003000
00003000
00003C00
00003C00
00000C00
00000C00
00000F00
00000F00
00000300
00000300
000000C0
000000C0
ENDCHAR
STARTCHAR 214b
ENCODING 8523
SWIDTH 192 0
DWIDTH 32 0
BBX 32 32 0 -4
BITMAP
03000000
03000000
00C00000
00C00000
00F00000
00F00000
00300000
00300000
003C0000
003C0000
000C0000
000C0000
000C0000
000C0000
000C0000
000C0000
000C0000
000C0000
000C0000
000C0000
000C0000
000C0000
003C0000
003C0000
00300000
00300000
00F00000
00F00000
00C00000
00C00000
03000000
03000000
ENDCHAR
STARTCHAR 214c
ENCODING 8524
SWIDTH 192 0
DWIDTH 32 0
BBX 32 32 0 -4
BITMAP
000000C0
000000C0
00000F00
00000F00
0000F000
0000F000
0000C000
0000C000
0000C000
0000C000
0000C000
0000C000
0000C000
0000C000
0000C000
0000C000
0000C000
0000C000
0000C000
0000C000
0000C000
0000C000
0000C000
0000C000
0000C000
0000C000
0000F000
0000F000
00000F00
00000F00
000000C0
000000C0
ENDCHAR
STARTCHAR 214d
ENCODING 8525
SWIDTH 192 0
DWIDTH 32 0
BBX 32 32 0 -4
BITMAP
03000000
03000000
00F00000
00F00000
000F0000
000F0000
00030000
00030000
00030000
00030000
00030000
00030000
00030000
00030000
00030000
00030000
00030000
00030000
00030000
00030000
00030000
00030000
00030000
00030000
00030000
00030000
000F0000
000F0000
00F00000
00F00000
03000000
03000000
ENDCHAR
STARTCHAR 214e
ENCODING 8526
SWIDTH 192 0
DWIDTH 32 0
BBX 32 32 0 -4
BITMAP
0000FFC0
0000FFC0
0000C000
0000C000
0000C000
0000C000
0000C000
0000C000
0000C000
0000C000
0000C000
0000C000
0000C000
0000C000
0000C000
0000C000
0000C000
0000C000
0000C000
0000C000
0000C000
0000C000
0000C000
0000C000
0000C000
0000C000
0000C000
0000C000
0000C000
0000C000
0000FFC0
0000FFC0
ENDCHAR
STARTCHAR 214f
ENCODING 8527
SWIDTH 192 0
DWIDTH 32 0
BBX 32 32 0 -4
BITMAP
03FF0000
03FF0000
00030000
00030000
00030000
00030000
00030000
00030000
00030000
00030000
00030000
00030000
00030000
00030000
00030000
00030000
00030000
00030000
00030000
00030000
00030000
00030000
00030000
00030000
00030000
00030000
00030000
00030000
00030000
00030000
03FF0000
03FF0000
ENDCHAR
STARTCHAR 2150
ENCODING 8528
SWIDTH 192 0
DWIDTH 32 0
BBX 32 32 0 -4
BITMAP
000000C0
000000C0
00000300
00000300
00000C00
00000C00
00000C00
00000C00
00000C00
00000C00
00000C00
00000C00
00000C00
00000C00
00003000
00003000
00000C00
00000C00
00000C00
00000C00
00000C00
00000C00
00000C00
00000C00
00000C00
00000C00
00000C00
00000C00
00000300
00000300
000000C0
000000C0
ENDCHAR
STARTCHAR 2151
ENCODING 8529
SWIDTH 192 0
DWIDTH 32 0
BBX 32 32 0 -4
BITMAP
03000000
03000000
00C00000
00C00000
00300000
00300000
00300000
00300000
00300000
00300000
00300000
00300000
00300000
00300000
000C0000
000C0000
00300000
00300000
00300000
00300000
00300000
00300000
00300000
00300000
00300000
00300000
00300000
00300000
00C00000
00C00000
03000000
03000000
ENDCHAR
STARTCHAR 2152
ENCODING 8530
SWIDTH 192 0
DWIDTH 32 0
BBX 32 32 0 -4
BITMAP
000000C0
000000C0
00000300
00000300
00000300
00000300
00000C00
00000C00
00003000
00003000
00003000
00003000
0000C000
0000C000
00030000
00030000
00030000
00030000
0000C000
0000C000
00003000
00003000
00003000
00003000
00000C00
00000C00
00000300
00000300
00000300
00000300
000000C0
000000C0
ENDCHAR
STARTCHAR 2153
ENCODING 8531
SWIDTH 192 0
DWIDTH 32 0
BBX 32 32 0 -4
BITMAP
03000000
03000000
00C00000
00C00000
00C00000
00C00000
00300000
00300000
000C0000
000C0000
000C0000
000C0000
00030000
00030000
0000C000
0000C000
0000C000
0000C000
00030000
00030000
000C0000
000C0000
000C0000
000C0000
00300000
00300000
00C00000
00C00000
00C00000
00C00000
03000000
03000000
ENDCHAR
STARTCHAR 2154
ENCODING 8532
SWIDTH 192 0
DWIDTH 32 0
BBX 32 32 0 -4
BITMAP
0000030C
0000030C
00000C30
00000C30
00000C30
00000C30
000030C0
000030C0
0000C300
0000C300
0000C300
0000C300
00030C00
00030C00
000C3000
000C3000
000C3000
000C3000
00030C00
00030C00
0000C300
0000C300
0000C300
0000C300
000030C0
000030C0
00000C30
00000C30
00000C30
00000C30
0000030C
0000030C
ENDCHAR
STARTCHAR 2155
ENCODING 8533
SWIDTH 192 0
DWIDTH 32 0
BBX 32 32 0 -4
BITMAP
30C00000
30C00000
0C300000
0C300000
0C300000
0C300000
030C0000
030C0000
00C30000
00C30000
00C30000
00C30000
0030C000
0030C000
000C3000
000C3000
000C3000
000C3000
0030C000
0030C000
00C30000
00C30000
00C30000
00C30000
030C0000
030C0000
0C300000
0C300000
0C300000
0C300000
30C00000
30C00000
ENDCHAR
STARTCHAR 2156
ENCODING 8534
SWIDTH 192 0
DWIDTH 32 0
BBX 32 32 0 -4
BITMAP
0000FFC0
0000FFC0
0000C000
0000C000
0000C000
0000C000
0000C000
0000C000
0000C000
0000C000
0000C000
0000C000
0000C000
0000C000
0000C000
0000C000
0000C000
0000C000
0000C000
0000C000
0000C000
0000C000
00000000
00000000
00000000
00000000
00000000
00000000
00000000
00000000
00000000
00000000
ENDCHAR
STARTCHAR 2157
ENCODING 8535
SWIDTH 192 0
DWIDTH 32 0
BBX 32 32 0 -4
BITMAP
00000000
00000000
00000000
00000000
00000000
00000000
00000000
00000000
00000000
00000000
00030000
00030000
00030000
00030000
00030000
00030000
00030000
00030000
00030000
00030000
00030000
00030000
00030000
00030000
00030000
00030000
00030000
00030000
00030000
00030000
03FF0000
03FF0000
ENDCHAR
STARTCHAR 2158
ENCODING 8536
SWIDTH 192 0
DWIDTH 32 0
BBX 32 32 0 -4
BITMAP
0003FFC0
0003FFC0
000300C0
000300C0
00033FC0
00033FC0
00033000
00033000
00033000
00033000
00033000
00033000
00033000
00033000
00033000
00033000
00033000
00033000
00033000
00033000
0003F000
0003F000
00000000
00000000
00000000
00000000
00000000
00000000
00000000
00000000
00000000
00000000
ENDCHAR
STARTCHAR 2159
ENCODING 8537
SWIDTH 192 0
DWIDTH 32 0
BBX 32 32 0 -4
BITMAP
00000000
00000000
00000000
00000000
00000000
00000000
00000000
00000000
00000000
00000000
000FC000
000FC000
000CC000
000CC000
000CC000
000CC000
000CC000
000CC000
000CC000
000CC000
000CC000
000CC000
000CC000
000CC000
000CC000
000CC000
03FCC000
03FCC000
0300C000
0300C000
03FFC000
03FFC000
ENDCHAR
STARTCHAR 215a
ENCODING 8538
SWIDTH 192 0
DWIDTH 32 0
BBX 32 32 0 -4
BITMAP
0000FFC0
0000FFC0
0000FF00
0000FF00
0000FC00
0000FC00
0000F000
0000F000
0000F000
0000F000
0000C000
0000C000
0000C000
0000C000
0000C000
0000C000
0000C000
0000C000
0000C000
0000C000
0000C000
0000C000
0000F000
0000F000
0000F000
0000F000
0000FC00
0000FC00
0000FF00
0000FF00
0000FFC0
0000FFC0
ENDCHAR
STARTCHAR 215b
ENCODING 8539
SWIDTH 192 0
DWIDTH 32 0
BBX 32 32 0 -4
BITMAP
03FF0000
03FF0000
00FF0000
00FF0000
003F0000
003F0000
000F0000
000F0000
000F0000
000F0000
00030000
00030000
00030000
00030000
00030000
00030000
00030000
00030000
00030000
00030000
00030000
00030000
000F0000
000F0000
000F0000
000F0000
003F0000
003F0000
00FF0000
00FF0000
03FF0000
03FF0000
ENDCHAR
STARTCHAR 215c
ENCODING 8540
SWIDTH 192 0
DWIDTH 32 0
BBX 32 32 0 -4
BITMAP
00000000
00000000
00000000
00000000
00030000
00030000
00030000
00030000
00030000
00030000
00030000
00030000
00030000
00030000
0FFFFFF0
0FFFFFF0
00030000
00030000
00030000
00030000
00030000
00030000
00030000
00030000
00030000
00030000
00030000
00030000
00000000
00000000
00000000
00000000
ENDCHAR
STARTCHAR 215d
ENCODING 8541
SWIDTH 192 0
DWIDTH 32 0
BBX 32 32 0 -4
BITMAP
00000000
00000000
00000000
00000000
00000000
00000000
00000000
00000000
00000000
00000000
00000000
00000000
00000000
00000000
0FFFFFF0
0FFFFFF0
00000000
00000000
00000000
00000000
00000000
00000000
00000000
00000000
00000000
00000000
00000000
00000000
00000000
00000000
00000000
00000000
ENDCHAR
STARTCHAR 215e
ENCODING 8542
SWIDTH 192 0
DWIDTH 32 0
BBX 32 32 0 -4
BITMAP
00000000
00000000
00000000
00000000
00030000
00030000
00030000
00030000
00030000
00030000
00030000
00030000
0FFFFFF0
0FFFFFF0
00030000
00030000
00030000
00030000
00030000
00030000
00030000
00030000
00000000
00000000
00000000
00000000
0FFFFFF0
0FFFFFF0
00000000
00000000
00000000
00000000
ENDCHAR
STARTCHAR 215f
ENCODING 8543
SWIDTH 192 0
DWIDTH 32 0
BBX 32 32 0 -4
BITMAP
00000000
00000000
00000000
00000000
00000000
00000000
030000C0
030000C0
00C00300
00C00300
00300C00
00300C00
000C3000
000C3000
0003C000
0003C000
0003C000
0003C000
000C3000
000C3000
00300C00
00300C00
00C00300
00C00300
030000C0
030000C0
00000000
00000000
00000000
00000000
00000000
00000000
ENDCHAR
STARTCHAR 2160
ENCODING 8544
SWIDTH 192 0
DWIDTH 32 0
BBX 32 32 0 -4
BITMAP
00000000
00000000
00000000
00000000
00000000
00000000
0003C000
0003C000
0003C000
0003C000
00000000
00000000
00000000
00000000
0FFFFFF0
0FFFFFF0
00000000
00000000
00000000
00000000
0003C000
0003C000
0003C000
0003C000
00000000
00000000
00000000
00000000
00000000
00000000
00000000
00000000
ENDCHAR
STARTCHAR 2161
ENCODING 8545
SWIDTH 192 0
DWIDTH 32 0
BBX 32 32 0 -4
BITMAP
00000000
00000000
00000000
00000000
00000000
00000000
00000000
00000000
00000000
00000000
0FFFFFF0
0FFFFFF0
00000000
00000000
00000000
00000000
00000000
00000000
0FFFFFF0
0FFFFFF0
00000000
00000000
00000000
00000000
00000000
00000000
00000000
00000000
00000000
00000000
00000000
00000000
ENDCHAR
STARTCHAR 2162
ENCODING 8546
SWIDTH 192 0
DWIDTH 32 0
BBX 32 32 0 -4
BITMAP
00000000
00000000
00000000
00000000
00003000
00003000
00003000
00003000
0000C000
0000C000
0FFFFFF0
0FFFFFF0
0000C000
0000C000
00030000
00030000
00030000
00030000
0FFFFFF0
0FFFFFF0
00030000
00030000
000C0000
000C0000
000C0000
000C0000
00000000
00000000
00000000
00000000
00000000
00000000
ENDCHAR
STARTCHAR 2163
ENCODING 8547
SWIDTH 192 0
DWIDTH 32 0
BBX 32 32 0 -4
BITMAP
00000000
00000000
0000003C
0000003C
000003C0
000003C0
00003C00
00003C00
0003C000
0003C000
003C0000
003C0000
03C00000
03C00000
3C000000
3C000000
03C00000
03C00000
00300000
00300000
000F0000
000F0000
0000F000
0000F000
00000C00
00000C00
000003C0
000003C0
0000003C
0000003C
00000000
00000000
ENDCHAR
STARTCHAR 2164
ENCODING 8548
SWIDTH 192 0
DWIDTH 32 0
BBX 32 32 0 -4
BITMAP
00000000
00000000
3C000000
3C000000
03C00000
03C00000
003C0000
003C0000
0003C000
0003C000
00003C00
00003C00
000003C0
000003C0
0000003C
0000003C
000003C0
000003C0
00000C00
00000C00
0000F000
0000F000
000F0000
000F0000
00300000
00300000
03C00000
03C00000
3C000000
3C000000
00000000
00000000
ENDCHAR
STARTCHAR 2165
ENCODING 8549
SWIDTH 192 0
DWIDTH 32 0
BBX 32 32 0 -4
BITMAP
00000000
00000000
00000000
00000000
000003F0
000003F0
0000FC00
0000FC00
003F0000
003F0000
0FC00000
0FC00000
003F0000
003F0000
0000FC00
0000FC00
000003F0
000003F0
00000000
00000000
0FFFFFF0
0FFFFFF0
00000000
00000000
00000000
00000000
0FFFFFF0
0FFFFFF0
00000000
00000000
00000000
00000000
ENDCHAR
STARTCHAR 2166
ENCODING 8550
SWIDTH 192 0
DWIDTH 32 0
BBX 32 32 0 -4
BITMAP
00000000
00000000
00000000
00000000
0FC00000
0FC00000
003F0000
003F0000
0000FC00
0000FC00
000003F0
000003F0
0000FC00
0000FC00
003F0000
003F0000
0FC00000
0FC00000
00000000
00000000
0FFFFFF0
0FFFFFF0
00000000
00000000
00000000
00000000
0FFFFFF0
0FFFFFF0
00000000
00000000
00000000
00000000
ENDCHAR
STARTCHAR 2167
ENCODING 8551
SWIDTH 192 0
DWIDTH 32 0
BBX 32 32 0 -4
BITMAP
00000000
00000000
00000000
00000000
00000000
00000000
00000000
00000000
03F00FC0
03F00FC0
0C0C3030
0C0C3030
3003C00C
3003C00C
3003C00C
3003C00C
3003C00C
3003C00C
3003C00C
3003C00C
0C0C3030
0C0C3030
03F00FC0
03F00FC0
00000000
00000000
00000000
00000000
00000000
00000000
00000000
00000000
ENDCHAR
STARTCHAR 2168
ENCODING 8552
SWIDTH 192 0
DWIDTH 32 0
BBX 32 32 0 -4
BITMAP
00000000
00000000
00000000
00000000
00000000
00000000
0003C000
0003C000
0003C000
0003C000
00000000
00000000
00000000
00000000
00000000
00000000
00000000
00000000
00000000
00000000
00000000
00000000
0F0000F0
0F0000F0
0F0000F0
0F0000F0
00000000
00000000
00000000
00000000
00000000
00000000
ENDCHAR
STARTCHAR 2169
ENCODING 8553
SWIDTH 192 0
DWIDTH 32 0
BBX 32 32 0 -4
BITMAP
00000000
00000000
0000FFFC
0000FFFC
0000003C
0000003C
000000CC
000000CC
0000030C
0000030C
00000C0C
00000C0C
0000300C
0000300C
03FCC00C
03FCC00C
0C030000
0C030000
3000C000
3000C000
3000C000
3000C000
3000C000
3000C000
3000C000
3000C000
0C030000
0C030000
03FC0000
03FC0000
00000000
00000000
ENDCHAR
STARTCHAR 216a
ENCODING 8554
SWIDTH 192 0
DWIDTH 32 0
BBX 32 32 0 -4
BITMAP
00000000
00000000
000FF000
000FF000
00300C00
00300C00
00C00300
00C00300
00C00300
00C00300
00C00300
00C00300
00C00300
00C00300
00300C00
00300C00
000FF000
000FF000
00030000
00030000
03FFFFC0
03FFFFC0
00030000
00030000
00030000
00030000
00030000
00030000
00030000
00030000
00030000
00030000
ENDCHAR
STARTCHAR 216b
ENCODING 8555
SWIDTH 192 0
DWIDTH 32 0
BBX 32 32 0 -4
BITMAP
00000000
00000000
0F000000
0F000000
30C00000
30C00000
30C00000
30C00000
0F000000
0F000000
00000000
00000000
00000000
00000000
00000000
00000000
00000000
00000000
00000000
00000000
00000000
00000000
00000000
00000000
00000000
00000000
00000000
00000000
00000000
00000000
00000000
00000000
ENDCHAR
STARTCHAR 216c
ENCODING 8556
SWIDTH 192 0
DWIDTH 32 0
BBX 32 32 0 -4
BITMAP
00000000
00000000
00C00000
00C00000
03C00000
03C00000
0F000000
0F000000
0C000000
0C000000
00000000
00000000
00000000
00000000
00000000
00000000
00000000
00000000
00000000
00000000
00000000
00000000
00000000
00000000
00000000
00000000
00000000
00000000
00000000
00000000
00000000
00000000
ENDCHAR
STARTCHAR 216d
ENCODING 8557
SWIDTH 192 0
DWIDTH 32 0
BBX 32 32 0 -4
BITMAP
00000000
00000000
03030000
03030000
0F0F0000
0F0F0000
3C3C0000
3C3C0000
30300000
30300000
00000000
00000000
00000000
00000000
00000000
00000000
00000000
00000000
00000000
00000000
00000000
00000000
00000000
00000000
00000000
00000000
00000000
00000000
00000000
00000000
00000000
00000000
ENDCHAR
STARTCHAR 216e
ENCODING 8558
SWIDTH 192 0
DWIDTH 32 0
BBX 32 32 0 -4
BITMAP
00000000
00000000
3C00FF0C
3C00FF0C
C30F00CC
C30F00CC
C33C003C
C33C003C
3C30000C
3C30000C
00F0000C
00F0000C
00C00000
00C00000
00C00000
00C00000
00C00000
00C00000
00F00000
00F00000
0030000C
0030000C
003C003C
003C003C
000F00F0
000F00F0
0000FF00
0000FF00
00000000
00000000
00000000
00000000
ENDCHAR
STARTCHAR 216f
ENCODING 8559
SWIDTH 192 0
DWIDTH 32 0
BBX 32 32 0 -4
BITMAP
00000000
00000000
3FF00FFC
3FF00FFC
030000C0
030000C0
030000C0
030000C0
00C00300
00C00300
3FFFFFFC
3FFFFFFC
00300C00
00300C00
00303000
00303000
000CC000
000CC000
3FFFFFFC
3FFFFFFC
00030000
00030000
00030000
00030000
00030000
00030000
00030000
00030000
003FF000
003FF000
00000000
00000000
ENDCHAR
STARTCHAR 2170
ENCODING 8560
SWIDTH 192 0
DWIDTH 32 0
BBX 32 32 0 -4
BITMAP
00000000
00000000
00030000
00030000
003FFC00
003FFC00
00C30F00
00C30F00
030303C0
030303C0
03030000
03030000
00C30000
00C30000
003F0000
003F0000
0003FC00
0003FC00
00030300
00030300
000300C0
000300C0
030300C0
030300C0
03C30300
03C30300
00FFFC00
00FFFC00
00030000
00030000
00000000
00000000
ENDCHAR
STARTCHAR 2171
ENCODING 8561
SWIDTH 192 0
DWIDTH 32 0
BBX 32 32 0 -4
BITMAP
00000000
00000000
00000000
00000000
00000000
00000000
00000000
00000000
00000000
00000000
00000C00
00000C00
000FF000
000FF000
00303C00
00303C00
00C0C300
00C0C300
00C0C000
00C0C000
00C30000
00C30000
00C30000
00C30000
003C0300
003C0300
000FFC00
000FFC00
00300000
00300000
00000000
00000000
ENDCHAR
STARTCHAR 2172
ENCODING 8562
SWIDTH 192 0
DWIDTH 32 0
BBX 32 32 0 -4
BITMAP
00000000
00000000
0003FF00
0003FF00
000C00C0
000C00C0
00300030
00300030
00300000
00300000
00300000
00300000
00300000
00300000
00300000
00300000
3FFFFF00
3FFFFF00
000C0000
000C0000
000C0000
000C0000
0FCC0000
0FCC0000
303C000C
303C000C
3033C030
3033C030
0FC03FC0
0FC03FC0
00000000
00000000
ENDCHAR
STARTCHAR 2173
ENCODING 8563
SWIDTH 192 0
DWIDTH 32 0
BBX 32 32 0 -4
BITMAP
00000000
00000000
0FC0000C
0FC0000C
30300030
30300030
303000C0
303000C0
30300300
30300300
30300C00
30300C00
30303000
30303000
0FC0C000
0FC0C000
000303F0
000303F0
000C0C0C
000C0C0C
00300C0C
00300C0C
00C00C0C
00C00C0C
03000C0C
03000C0C
0C000C0C
0C000C0C
300003F0
300003F0
00000000
00000000
ENDCHAR
STARTCHAR 2174
ENCODING 8564
SWIDTH 192 0
DWIDTH 32 0
BBX 32 32 0 -4
BITMAP
000C0300
000C0300
000C0300
000C0300
000C0300
000C0300
000C0300
000C0300
03FFFFF0
03FFFFF0
03FFFFF0
03FFFFF0
00300C00
00300C00
00300C00
00300C00
00300C00
00300C00
00300C00
00300C00
0FFFFFC0
0FFFFFC0
0FFFFFC0
0FFFFFC0
00C03000
00C03000
00C03000
00C03000
00C03000
00C03000
00C03000
00C03000
ENDCHAR
STARTCHAR 2175
ENCODING 8565
SWIDTH 192 0
DWIDTH 32 0
BBX 32 32 0 -4
BITMAP
00000000
00000000
00FF0000
00FF0000
03C0C000
03C0C000
0300C000
0300C000
0303C000
0303C000
03CF0000
03CF0000
00FC3FF0
00FC3FF0
00F00300
00F00300
03FC0F00
03FC0F00
0F0F0C00
0F0F0C00
3C03FC00
3C03FC00
3000F000
3000F000
3003FC0C
3003FC0C
0C0F0F3C
0C0F0F3C
03FC03F0
03FC03F0
00000000
00000000
ENDCHAR
STARTCHAR 2176
ENCODING 8566
SWIDTH 192 0
DWIDTH 32 0
BBX 32 32 0 -4
BITMAP
00000000
00000000
00000000
00000000
00000000
00000000
00000000
00000000
00030000
00030000
03C30F00
03C30F00
00F33C00
00F33C00
003FF000
003FF000
00030000
00030000
003FF000
003FF000
00F33C00
00F33C00
03C30F00
03C30F00
00030000
00030000
00000000
00000000
00000000
00000000
00000000
00000000
ENDCHAR
STARTCHAR 2177
ENCODING 8567
SWIDTH 192 0
DWIDTH 32 0
BBX 32 32 0 -4
BITMAP
00000000
00000000
00000000
00000000
000FF000
000FF000
00F00F00
00F00F00
030000C0
030000C0
0303CCC0
0303CCC0
0C0C3C30
0C0C3C30
0C303030
0C303030
0C303030
0C303030
0C30F0C0
0C30F0C0
030F3F00
030F3F00
03000030
03000030
00F003C0
00F003C0
000FFC00
000FFC00
00000000
00000000
00000000
00000000
ENDCHAR
STARTCHAR 2178
ENCODING 8568
SWIDTH 192 0
DWIDTH 32 0
BBX 32 32 0 -4
BITMAP
00000000
00000000
003FF000
003FF000
00F03F00
00F03F00
00F00F00
00F00F00
00FC0000
00FC0000
003FC000
003FC000
00F0FC00
00F0FC00
00C00F00
00C00F00
00F00300
00F00300
003F0F00
003F0F00
0003FC00
0003FC00
00003F00
00003F00
00F00F00
00F00F00
00FC0F00
00FC0F00
000FFC00
000FFC00
00000000
00000000
ENDCHAR
STARTCHAR 2179
ENCODING 8569
SWIDTH 192 0
DWIDTH 32 0
BBX 32 32 0 -4
BITMAP
00000000
00000000
00030000
00030000
000CC000
000CC000
000CC000
000CC000
00303000
00303000
00303000
00303000
3FF03FF0
3FF03FF0
0C0000C0
0C0000C0
03000300
03000300
00C00C00
00C00C00
00C00C00
00C00C00
03030300
03030300
030CC300
030CC300
0CF03CC0
0CF03CC0
0F0003C0
0F0003C0
00000000
00000000
ENDCHAR
STARTCHAR 217a
ENCODING 8570
SWIDTH 192 0
DWIDTH 32 0
BBX 32 32 0 -4
BITMAP
00000000
00000000
00030000
00030000
00030000
00030000
000FC000
000FC000
000FC000
000FC000
003FF000
003FF000
3FFFFFF0
3FFFFFF0
0FFFFFC0
0FFFFFC0
03FFFF00
03FFFF00
00FFFC00
00FFFC00
00FFFC00
00FFFC00
03FCFF00
03FCFF00
03F03F00
03F03F00
0FC00FC0
0FC00FC0
0C0000C0
0C0000C0
00000000
00000000
ENDCHAR
STARTCHAR 217b
ENCODING 8571
SWIDTH 192 0
DWIDTH 32 0
BBX 32 32 0 -4
BITMAP
00000000
00000000
000FF000
000FF000
00F00F00
00F00F00
030000C0
030000C0
0C000030
0C000030
0C000030
0C000030
3000000C
3000000C
3000000C
3000000C
3000000C
3000000C
3000000C
3000000C
0C000030
0C000030
0C000030
0C000030
030000C0
030000C0
00F00F00
00F00F00
000FF000
000FF000
00000000
00000000
ENDCHAR
STARTCHAR 217c
ENCODING 8572
SWIDTH 192 0
DWIDTH 32 0
BBX 32 32 0 -4
BITMAP
00000000
00000000
000FF000
000FF000
00FFFF00
00FFFF00
03FFFFC0
03FFFFC0
0FFFFFF0
0FFFFFF0
0FFFFFF0
0FFFFFF0
3FFFFFFC
3FFFFFFC
3FFFFFFC
3FFFFFFC
3FFFFFFC
3FFFFFFC
3FFFFFFC
3FFFFFFC
0FFFFFF0
0FFFFFF0
0FFFFFF0
0FFFFFF0
03FFFFC0
03FFFFC0
00FFFF00
00FFFF00
000FF000
000FF000
00000000
00000000
ENDCHAR
STARTCHAR 217d
ENCODING 8573
SWIDTH 192 0
DWIDTH 32 0
BBX 32 32 0 -4
BITMAP
00000000
00000000
000FF000
000FF000
00F00F00
00F00F00
030000C0
030000C0
0C0FF030
0C0FF030
0C300C30
0C300C30
30C0030C
30C0030C
30C0030C
30C0030C
30C0030C
30C0030C
30C0030C
30C0030C
0C300C30
0C300C30
0C0FF030
0C0FF030
030000C0
030000C0
00F00F00
00F00F00
000FF000
000FF000
00000000
00000000
ENDCHAR
STARTCHAR 217e
ENCODING 8574
SWIDTH 192 0
DWIDTH 32 0
BBX 32 32 0 -4
BITMAP
0003C000
0003C000
000C3000
000C3000
00300C00
00300C00
00C00300
00C00300
030000C0
030000C0
0C000030
0C000030
3000000C
3000000C
C0000003
C0000003
C0000003
C0000003
3000000C
3000000C
0C000030
0C000030
030000C0
030000C0
00C00300
00C00300
00300C00
00300C00
000C3000
000C3000
0003C000
0003C000
ENDCHAR
STARTCHAR 2221
ENCODING 8737
SWIDTH 192 0
DWIDTH 32 0
BBX 32 32 0 -4
BITMAP
0003C000
0003C000
000FF000
000FF000
003FFC00
003FFC00
00FFFF00
00FFFF00
03FFFFC0
03FFFFC0
0FFFFFF0
0FFFFFF0
3FFFFFFC
3FFFFFFC
FFFFFFFF
FFFFFFFF
FFFFFFFF
FFFFFFFF
3FFFFFFC
3FFFFFFC
0FFFFFF0
0FFFFFF0
03FFFFC0
03FFFFC0
00FFFF00
00FFFF00
003FFC00
003FFC00
000FF000
000FF000
0003C000
0003C000
ENDCHAR
STARTCHAR 2222
ENCODING 8738
SWIDTH 192 0
DWIDTH 32 0
BBX 32 32 0 -4
BITMAP
00000000
00000000
3FFFFFFC
3FFFFFFC
3000000C
3000000C
3000000C
3000000C
3000000C
3000000C
3000000C
3000000C
3000000C
3000000C
3000000C
3000000C
3000000C
3000000C
3000000C
3000000C
3000000C
3000000C
3000000C
3000000C
3000000C
3000000C
3000000C
3000000C
3FFFFFFC
3FFFFFFC
00000000
00000000
ENDCHAR
STARTCHAR 2223
ENCODING 8739
SWIDTH 192 0
DWIDTH 32 0
BBX 32 32 0 -4
BITMAP
00000000
00000000
3FFFFFFC
3FFFFFFC
3FFFFFFC
3FFFFFFC
3FFFFFFC
3FFFFFFC
3FFFFFFC
3FFFFFFC
3FFFFFFC
3FFFFFFC
3FFFFFFC
3FFFFFFC
3FFFFFFC
3FFFFFFC
3FFFFFFC
3FFFFFFC
3FFFFFFC
3FFFFFFC
3FFFFFFC
3FFFFFFC
3FFFFFFC
3FFFFFFC
3FFFFFFC
3FFFFFFC
3FFFFFFC
3FFFFFFC
3FFFFFFC
3FFFFFFC
00000000
00000000
ENDCHAR
STARTCHAR 2224
ENCODING 8740
SWIDTH 192 0
DWIDTH 32 0
BBX 32 32 0 -4
BITMAP
00000000
00000000
00000000
00000000
00030000
00030000
000CC000
000CC000
000CC000
000CC000
00303000
00303000
00303000
00303000
00C00C00
00C00C00
00C00300
00C00300
03000300
03000300
030000C0
030000C0
0C0000C0
0C0000C0
0C000030
0C000030
3FFFFFFC
3FFFFFFC
00000000
00000000
00000000
00000000
ENDCHAR
STARTCHAR 2225
ENCODING 8741
SWIDTH 192 0
DWIDTH 32 0
BBX 32 32 0 -4
BITMAP
00000000
00000000
00000000
00000000
00030000
00030000
000FC000
000FC000
000FC000
000FC000
003FF000
003FF000
003FFC00
003FFC00
00FFFC00
00FFFC00
00FFFF00
00FFFF00
03FFFF00
03FFFF00
03FFFFC0
03FFFFC0
0FFFFFF0
0FFFFFF0
0FFFFFF0
0FFFFFF0
3FFFFFFC
3FFFFFFC
00000000
00000000
00000000
00000000
ENDCHAR
STARTCHAR 2226
ENCODING 8742
SWIDTH 192 0
DWIDTH 32 0
BBX 32 32 0 -4
BITMAP
00000000
00000000
00000000
00000000
3FFFFFFC
3FFFFFFC
0C000030
0C000030
0C0000C0
0C0000C0
030000C0
030000C0
03000300
03000300
00C00300
00C00300
00C00C00
00C00C00
00303000
00303000
00303000
00303000
000CC000
000CC000
000CC000
000CC000
00030000
00030000
00000000
00000000
00000000
00000000
ENDCHAR
STARTCHAR 2227
ENCODING 8743
SWIDTH 192 0
DWIDTH 32 0
BBX 32 32 0 -4
BITMAP
00000000
00000000
00000000
00000000
3FFFFFFC
3FFFFFFC
0FFFFFF0
0FFFFFF0
0FFFFFF0
0FFFFFF0
03FFFFC0
03FFFFC0
03FFFF00
03FFFF00
00FFFF00
00FFFF00
00FFFC00
00FFFC00
003FFC00
003FFC00
003FF000
003FF000
000FC000
000FC000
000FC000
000FC000
00030000
00030000
00000000
00000000
00000000
00000000
ENDCHAR
STARTCHAR 2228
ENCODING 8744
SWIDTH 192 0
DWIDTH 32 0
BBX 32 32 0 -4
BITMAP
00000000
00000000
00000000
00000000
0C03C030
0C03C030
0303C0C0
0303C0C0
00C00300
00C00300
00300C00
00300C00
000C3000
000C3000
0F03C0F0
0F03C0F0
0F03C0F0
0F03C0F0
000C3000
000C3000
00300C00
00300C00
00C00300
00C00300
0303C0C0
0303C0C0
0C03C030
0C03C030
00000000
00000000
00000000
00000000
ENDCHAR
STARTCHAR 2229
ENCODING 8745
SWIDTH 192 0
DWIDTH 32 0
BBX 32 32 0 -4
BITMAP
00000000
00000000
3FFFFFFC
3FFFFFFC
3FFFFFFC
3FFFFFFC
00000000
00000000
00000000
00000000
3FFFFFFC
3FFFFFFC
3FFFFFFC
3FFFFFFC
0003C000
0003C000
0003C000
0003C000
0003C000
0003C000
0003C000
0003C000
0003C000
0003C000
0003C000
0003C000
0003C000
0003C000
0003C000
0003C000
00000000
00000000
ENDCHAR
STARTCHAR 222a
ENCODING 8746
SWIDTH 192 0
DWIDTH 32 0
BBX 32 32 0 -4
BITMAP
00000000
00000000
00000000
00000000
00000000
00000000
00000000
00000000
00000000
00000000
000000C0
000000C0
00000030
00000030
FFFFFFFF
FFFFFFFF
00000030
00000030
000000C0
000000C0
00000000
00000000
00000000
00000000
00000000
00000000
00000000
00000000
00000000
00000000
00000000
00000000
ENDCHAR
STARTCHAR 222b
ENCODING 8747
SWIDTH 192 0
DWIDTH 32 0
BBX 32 32 0 -4
BITMAP
00000000
00000000
00000000
00000000
00000000
00000000
00000000
00000000
00000000
00000000
03000000
03000000
0C000000
0C000000
FFFFFFFF
FFFFFFFF
0C000000
0C000000
03000000
03000000
00000000
00000000
00000000
00000000
00000000
00000000
00000000
00000000
00000000
00000000
00000000
00000000
ENDCHAR
STARTCHAR 222c
ENCODING 8748
SWIDTH 192 0
DWIDTH 32 0
BBX 32 32 0 -4
BITMAP
00030000
00030000
00030000
00030000
000FC000
000FC000
00333000
00333000
00030000
00030000
00030000
00030000
00030000
00030000
00030000
00030000
00030000
00030000
00030000
00030000
00030000
00030000
00030000
00030000
00030000
00030000
00030000
00030000
00030000
00030000
00030000
00030000
ENDCHAR
STARTCHAR 222d
ENCODING 8749
SWIDTH 192 0
DWIDTH 32 0
BBX 32 32 0 -4
BITMAP
00030000
00030000
00030000
00030000
00030000
00030000
00030000
00030000
00030000
00030000
00030000
00030000
00030000
00030000
00030000
00030000
00030000
00030000
00030000
00030000
00030000
00030000
00030000
00030000
00333000
00333000
000FC000
000FC000
00030000
00030000
00030000
00030000
ENDCHAR
STARTCHAR 222e
ENCODING 8750
SWIDTH 192 0
DWIDTH 32 0
BBX 32 32 0 -4
BITMAP
00000000
00000000
00000000
00000000
3FFFFFFC
3FFFFFFC
3FFFFFFC
3FFFFFFC
3FFFFFFC
3FFFFFFC
3FFFFFFC
3FFFFFFC
00000000
00000000
00000000
00000000
00000000
00000000
3FFFFFFC
3FFFFFFC
3FFFFFFC
3FFFFFFC
3FFFFFFC
3FFFFFFC
3FFFFFFC
3FFFFFFC
00000000
00000000
00000000
00000000
00000000
00000000
ENDCHAR
STARTCHAR 223a
ENCODING 8762
SWIDTH 192 0
DWIDTH 32 0
BBX 32 32 0 -4
BITMAP
00000000
00000000
00000000
00000000
00000000
00000000
003FFFC0
003FFFC0
00C00000
00C00000
03000000
03000000
03000000
03000000
03FFFFC0
03FFFFC0
03000000
03000000
03000000
03000000
00C00000
00C00000
003FFFC0
003FFFC0
00000000
00000000
00000000
00000000
00000000
00000000
00000000
00000000
ENDCHAR
STARTCHAR 223b
ENCODING 8763
SWIDTH 192 0
DWIDTH 32 0
BBX 32 32 0 -4
BITMAP
00000000
00000000
00000000
00000000
00000000
00000000
03FFFC00
03FFFC00
00000300
00000300
000000C0
000000C0
000000C0
000000C0
03FFFFC0
03FFFFC0
000000C0
000000C0
000000C0
000000C0
00000300
00000300
03FFFC00
03FFFC00
00000000
00000000
00000000
00000000
00000000
00000000
00000000
00000000
ENDCHAR
STARTCHAR 223c
ENCODING 8764
SWIDTH 192 0
DWIDTH 32 0
BBX 32 32 0 -4
BITMAP
00000000
00000000
00000000
00000000
00FFFFF0
00FFFFF0
03000000
03000000
0C000000
0C000000
0C000000
0C000000
0C000000
0C000000
0C000000
0C000000
03000000
03000000
00FFFFF0
00FFFFF0
00000000
00000000
00000000
00000000
0FFFFFF0
0FFFFFF0
00000000
00000000
00000000
00000000
00000000
00000000
ENDCHAR
STARTCHAR 223d
ENCODING 8765
SWIDTH 192 0
DWIDTH 32 0
BBX 32 32 0 -4
BITMAP
00000000
00000000
00000000
00000000
0FFFFF00
0FFFFF00
000000C0
000000C0
00000030
00000030
00000030
00000030
00000030
00000030
00000030
00000030
000000C0
000000C0
0FFFFF00
0FFFFF00
00000000
00000000
00000000
00000000
0FFFFFF0
0FFFFFF0
00000000
00000000
00000000
00000000
00000000
00000000
ENDCHAR
STARTCHAR 223e
ENCODING 8766
SWIDTH 192 0
DWIDTH 32 0
BBX 32 32 0 -4
BITMAP
00000000
00000000
00000000
00000000
00000000
00000000
003FFFF0
003FFFF0
00C00000
00C00000
03000000
03000000
0C000000
0C000000
0C000000
0C000000
0C000000
0C000000
0C000000
0C000000
03000000
03000000
00C00000
00C00000
003FFFF0
003FFFF0
00000000
00000000
00000000
00000000
00000000
00000000
ENDCHAR
STARTCHAR 223f
ENCODING 8767
SWIDTH 192 0
DWIDTH 32 0
BBX 32 32 0 -4
BITMAP
00000000
00000000
00000000
00000000
00000000
00000000
0FFFFC00
0FFFFC00
00000300
00000300
000000C0
000000C0
00000030
00000030
00000030
00000030
00000030
00000030
00000030
00000030
000000C0
000000C0
00000300
00000300
0FFFFC00
0FFFFC00
00000000
00000000
00000000
00000000
00000000
00000000
ENDCHAR
STARTCHAR 2240
ENCODING 8768
SWIDTH 192 0
DWIDTH 32 0
BBX 32 32 0 -4
BITMAP
00000000
00000000
00000000
00000000
030000C0
030000C0
030000C0
030000C0
030000C0
030000C0
030000C0
030000C0
030000C0
030000C0
030000C0
030000C0
030000C0
030000C0
030000C0
030000C0
030000C0
030000C0
00C00300
00C00300
00300C00
00300C00
000FF000
000FF000
00000000
00000000
00000000
00000000
ENDCHAR
STARTCHAR 2241
ENCODING 8769
SWIDTH 192 0
DWIDTH 32 0
BBX 32 32 0 -4
BITMAP
00000000
00000000
00000000
00000000
000FF000
000FF000
00300C00
00300C00
00C00300
00C00300
030000C0
030000C0
030000C0
030000C0
030000C0
030000C0
030000C0
030000C0
030000C0
030000C0
030000C0
030000C0
030000C0
030000C0
030000C0
030000C0
030000C0
030000C0
00000000
00000000
00000000
00000000
ENDCHAR
STARTCHAR 224a
ENCODING 8778
SWIDTH 192 0
DWIDTH 32 0
BBX 32 32 0 -4
BITMAP
00000000
00000000
00000000
00000000
00030000
00030000
00030000
00030000
000CC000
000CC000
000CC000
000CC000
00303000
00303000
00303000
00303000
00C00C00
00C00C00
00C00C00
00C00C00
03000300
03000300
03000300
03000300
0C0000C0
0C0000C0
0C0000C0
0C0000C0
00000000
00000000
00000000
00000000
ENDCHAR
STARTCHAR 224b
ENCODING 8779
SWIDTH 192 0
DWIDTH 32 0
BBX 32 32 0 -4
BITMAP
00000000
00000000
00000000
00000000
0C0000C0
0C0000C0
0C0000C0
0C0000C0
03000300
03000300
03000300
03000300
00C00C00
00C00C00
00C00C00
00C00C00
00303000
00303000
00303000
00303000
000CC000
000CC000
000CC000
000CC000
00030000
00030000
00030000
00030000
00000000
00000000
00000000
00000000
ENDCHAR
STARTCHAR 224c
ENCODING 8780
SWIDTH 192 0
DWIDTH 32 0
BBX 32 32 0 -4
BITMAP
00000000
00000000
00000000
00000000
00000000
00000000
00000000
00000000
00000000
00000000
00000000
00000000
0FFFFFF0
0FFFFFF0
00000030
00000030
00000030
00000030
00000030
00000030
00000030
00000030
00000000
00000000
00000000
00000000
00000000
00000000
00000000
00000000
00000000
00000000
ENDCHAR
STARTCHAR 224d
ENCODING 8781
SWIDTH 192 0
DWIDTH 32 0
BBX 32 32 0 -4
BITMAP
00000000
00000000
00000000
00000000
00000000
00000000
00000300
00000300
000000C0
000000C0
FFFFFFF0
FFFFFFF0
0000000C
0000000C
00000003
00000003
0000000C
0000000C
FFFFFFF0
FFFFFFF0
000000C0
000000C0
00000300
00000300
00000000
00000000
00000000
00000000
00000000
00000000
00000000
00000000
ENDCHAR
STARTCHAR 224e
ENCODING 8782
SWIDTH 192 0
DWIDTH 32 0
BBX 32 32 0 -4
BITMAP
00000000
00000000
00000000
00000000
00000000
00000000
00C00300
00C00300
030000C0
030000C0
0FFFFFF0
0FFFFFF0
3000000C
3000000C
C0000003
C0000003
3000000C
3000000C
0FFFFFF0
0FFFFFF0
030000C0
030000C0
00C00300
00C00300
00000000
00000000
00000000
00000000
00000000
00000000
00000000
00000000
ENDCHAR
STARTCHAR 224f
ENCODING 8783
SWIDTH 192 0
DWIDTH 32 0
BBX 32 32 0 -4
BITMAP
00000000
00000000
30000030
30000030
30000030
30000030
0C0000C0
0C0000C0
0C0000C0
0C0000C0
03FFFF00
03FFFF00
03000300
03000300
00C00C00
00C00C00
00C00C00
00C00C00
00303000
00303000
00303000
00303000
000CC000
000CC000
000CC000
000CC000
00030000
00030000
00030000
00030000
00000000
00000000
ENDCHAR
STARTCHAR 2250
ENCODING 8784
SWIDTH 192 0
DWIDTH 32 0
BBX 32 32 0 -4
BITMAP
00000000
00000000
00000000
00000000
03FFFF00
03FFFF00
00000300
00000300
00000300
00000300
00000300
00000300
00000300
00000300
03FFFF00
03FFFF00
00000300
00000300
00000300
00000300
00000300
00000300
00000300
00000300
03FFFF00
03FFFF00
00000000
00000000
00000000
00000000
00000000
00000000
ENDCHAR
STARTCHAR 225c
ENCODING 8796
SWIDTH 192 0
DWIDTH 32 0
BBX 32 32 0 -4
BITMAP
00000000
00000000
00000000
00000000
000000C0
000000C0
00000300
00000300
00000C00
00000C00
00003000
00003000
0000C000
0000C000
00030000
00030000
000C0000
000C0000
00300000
00300000
00C00000
00C00000
03000000
03000000
0FFFFFF0
0FFFFFF0
00000000
00000000
00000000
00000000
00000000
00000000
ENDCHAR
STARTCHAR 225d
ENCODING 8797
SWIDTH 192 0
DWIDTH 32 0
BBX 32 32 0 -4
BITMAP
00000000
00000000
00000000
00000000
00030000
00030000
00030000
00030000
00030000
00030000
00030000
00030000
00030000
00030000
00030000
00030000
00030000
00030000
00030000
00030000
00030000
00030000
00030000
00030000
0FFFFFF0
0FFFFFF0
00000000
00000000
00000000
00000000
00000000
00000000
ENDCHAR
STARTCHAR 225e
ENCODING 8798
SWIDTH 192 0
DWIDTH 32 0
BBX 32 32 0 -4
BITMAP
003FFC00
003FFC00
0FC003F0
0FC003F0
F000000F
F000000F
00000000
00000000
00000000
00000000
00000000
00000000
00000000
00000000
00000000
00000000
00000000
00000000
00000000
00000000
00000000
00000000
00000000
00000000
00000000
00000000
00000000
00000000
00000000
00000000
00000000
00000000
ENDCHAR
STARTCHAR 225f
ENCODING 8799
SWIDTH 192 0
DWIDTH 32 0
BBX 32 32 0 -4
BITMAP
00000000
00000000
0003FC00
0003FC00
000F0F00
000F0F00
00300300
00300300
00000300
00000300
00000300
00000300
000FCF00
000FCF00
00303C00
00303C00
00C00C00
00C00C00
03C03C00
03C03C00
03003000
03003000
0300F000
0300F000
03C3C000
03C3C000
00FF0000
00FF0000
00000000
00000000
00000000
00000000
ENDCHAR
STARTCHAR 2260
ENCODING 8800
SWIDTH 192 0
DWIDTH 32 0
BBX 32 32 0 -4
BITMAP
00000000
00000000
3FFFFFFC
3FFFFFFC
0F000030
0F000030
0F0000F0
0F0000F0
03C000C0
03C000C0
03C003C0
03C003C0
00F00300
00F00300
00F00F00
00F00F00
003C0C00
003C0C00
003C3C00
003C3C00
000F3000
000F3000
000FF000
000FF000
0003C000
0003C000
0003C000
0003C000
00000000
00000000
00000000
00000000
ENDCHAR
STARTCHAR 2261
ENCODING 8801
SWIDTH 192 0
DWIDTH 32 0
BBX 32 32 0 -4
BITMAP
00000000
00000000
00000000
00000000
00000000
00000000
0FFFFFF0
0FFFFFF0
00000000
00000000
00000000
00000000
00000000
00000000
0FFFFFF0
0FFFFFF0
00000000
00000000
00000000
00000000
00000000
00000000
0FFFFFF0
0FFFFFF0
00000000
00000000
00000000
00000000
00000000
00000000
00000000
00000000
ENDCHAR
STARTCHAR 2262
ENCODING 8802
SWIDTH 192 0
DWIDTH 32 0
BBX 32 32 0 -4
BITMAP
00000000
00000000
00000000
00000000
03C00000
03C00000
03C00000
03C00000
00000000
00000000
0FFFFFF0
0FFFFFF0
00000000
00000000
00000000
00000000
00000000
00000000
0FFFFFF0
0FFFFFF0
00000000
00000000
000003C0
000003C0
000003C0
000003C0
00000000
00000000
00000000
00000000
00000000
00000000
ENDCHAR
STARTCHAR 2263
ENCODING 8803
SWIDTH 192 0
DWIDTH 32 0
BBX 32 32 0 -4
BITMAP
00000000
00000000
0000300C
0000300C
0000C030
0000C030
000F03C0
000F03C0
00300C00
00300C00
03C0F000
03C0F000
0C030000
0C030000
300C0000
300C0000
0C030000
0C030000
0300C000
0300C000
00C03000
00C03000
003C0F00
003C0F00
000300C0
000300C0
0000C030
0000C030
0000300C
0000300C
00000000
00000000
ENDCHAR
STARTCHAR 2264
ENCODING 8804
SWIDTH 192 0
DWIDTH 32 0
BBX 32 32 0 -4
BITMAP
00000000
00000000
300C0000
300C0000
0C030000
0C030000
03C0F000
03C0F000
00300C00
00300C00
000F03C0
000F03C0
0000C030
0000C030
0000300C
0000300C
0000C030
0000C030
000300C0
000300C0
000C0300
000C0300
00F03C00
00F03C00
0300C000
0300C000
0C030000
0C030000
300C0000
300C0000
00000000
00000000
ENDCHAR
STARTCHAR 2265
ENCODING 8805
SWIDTH 192 0
DWIDTH 32 0
BBX 32 32 0 -4
BITMAP
0000FFFF
0000FFFF
0000C000
0000C000
0000C000
0000C000
00030000
00030000
00030000
00030000
00030000
00030000
00030000
00030000
000C0000
000C0000
000C0000
000C0000
000C0000
000C0000
0C0C0000
0C0C0000
3F300000
3F300000
CF300000
CF300000
03F00000
03F00000
03C00000
03C00000
00C00000
00C00000
ENDCHAR
STARTCHAR 2266
ENCODING 8806
SWIDTH 192 0
DWIDTH 32 0
BBX 32 32 0 -4
BITMAP
00000000
00000000
00000000
00000000
00000000
00000000
00000000
00000000
03F00FC0
03F00FC0
0C003030
0C003030
3000C00C
3000C00C
3000C00C
3000C00C
3003000C
3003000C
3003000C
3003000C
0C0C0030
0C0C0030
03F00FC0
03F00FC0
00000000
00000000
00000000
00000000
00000000
00000000
00000000
00000000
ENDCHAR
STARTCHAR 2267
ENCODING 8807
SWIDTH 192 0
DWIDTH 32 0
BBX 32 32 0 -4
BITMAP
00000000
00000000
00000000
00000000
00000000
00000000
00000000
00000000
03F00FC0
03F00FC0
0C0C3030
0C0C3030
3003C000
3003C000
3003C000
3003C000
3003C000
3003C000
3003C000
3003C000
0C0C3030
0C0C3030
03F00FC0
03F00FC0
00000000
00000000
00000000
00000000
00000000
00000000
00000000
00000000
ENDCHAR
STARTCHAR 2268
ENCODING 8808
SWIDTH 192 0
DWIDTH 32 0
BBX 32 32 0 -4
BITMAP
00000000
00000000
00000000
00000000
00000000
00000000
0F0000F0
0F0000F0
0F0000F0
0F0000F0
00000000
00000000
00000000
00000000
00000000
00000000
00000000
00000000
00000000
00000000
00000000
00000000
0003C000
0003C000
0003C000
0003C000
00000000
00000000
00000000
00000000
00000000
00000000
ENDCHAR
STARTCHAR 2269
ENCODING 8809
SWIDTH 192 0
DWIDTH 32 0
BBX 32 32 0 -4
BITMAP
0003F000
0003F000
000C3000
000C3000
000C0000
000C0000
000C0000
000C0000
000F0000
000F0000
000F0000
000F0000
00030000
00030000
0003C000
0003C000
0003C000
0003C000
0000C000
0000C000
0000F000
0000F000
0000F000
0000F000
00003000
00003000
00003000
00003000
000C3000
000C3000
000FC000
000FC000
ENDCHAR
STARTCHAR 226a
ENCODING 8810
SWIDTH 192 0
DWIDTH 32 0
BBX 32 32 0 -4
BITMAP
00FC0FC0
00FC0FC0
030C30C0
030C30C0
03003000
03003000
03003000
03003000
03C03C00
03C03C00
03C03C00
03C03C00
00C00C00
00C00C00
00F00F00
00F00F00
00F00F00
00F00F00
00300300
00300300
003C03C0
003C03C0
003C03C0
003C03C0
000C00C0
000C00C0
000C00C0
000C00C0
030C30C0
030C30C0
03F03F00
03F03F00
ENDCHAR
STARTCHAR 2272
ENCODING 8818
SWIDTH 192 0
DWIDTH 32 0
BBX 32 32 0 -4
BITMAP
0003C000
0003C000
000C3000
000C3000
000C3000
000C3000
0003C000
0003C000
00000000
00000000
00030000
00030000
000CC000
000CC000
000CC000
000CC000
00303000
00303000
00300C00
00300C00
00FFFF00
00FFFF00
00C00300
00C00300
030000C0
030000C0
3FF00FFC
3FF00FFC
00000000
00000000
00000000
00000000
ENDCHAR
STARTCHAR 2273
ENCODING 8819
SWIDTH 192 0
DWIDTH 32 0
BBX 32 32 0 -4
BITMAP
00000000
00000000
0F003000
0F003000
30C03000
30C03000
30C0C000
30C0C000
30C30000
30C30000
30C30000
30C30000
30CC0000
30CC0000
0F300000
0F300000
0033C0F0
0033C0F0
00CC330C
00CC330C
030C330C
030C330C
030C330C
030C330C
0C0C330C
0C0C330C
300C330C
300C330C
3003C0F0
3003C0F0
00000000
00000000
ENDCHAR
STARTCHAR 2274
ENCODING 8820
SWIDTH 192 0
DWIDTH 32 0
BBX 32 32 0 -4
BITMAP
00000C00
00000C00
00300C00
00300C00
00300C00
00300C00
00300FF0
00300FF0
003FFFF0
003FFFF0
0FFFFC00
0FFFFC00
0FF00C00
0FF00C00
00300C00
00300C00
00300C00
00300C00
00300FF0
00300FF0
003FFFF0
003FFFF0
0FFFFC00
0FFFFC00
0FF00C00
0FF00C00
00300C00
00300C00
00300C00
00300C00
00300000
00300000
ENDCHAR
STARTCHAR 2275
ENCODING 8821
SWIDTH 192 0
DWIDTH 32 0
BBX 32 32 0 -4
BITMAP
00300000
00300000
00300000
00300000
00300000
00300000
00300000
00300000
00300000
00300000
00300000
00300000
0033FC00
0033FC00
003C0F00
003C0F00
00300F00
00300F00
00300F00
00300F00
00300F00
00300F00
00303C00
00303C00
0030F000
0030F000
00330000
00330000
003C0000
003C0000
00300000
00300000
ENDCHAR
STARTCHAR 2276
ENCODING 8822
SWIDTH 192 0
DWIDTH 32 0
BBX 32 32 0 -4
BITMAP
0000C000
0000C000
0000C000
0000C000
0000F000
0000F000
0000FC00
0000FC00
0000CF00
0000CF00
0000C3C0
0000C3C0
0000C0F0
0000C0F0
0000C030
0000C030
0000C030
0000C030
0000C0C0
0000C0C0
0000C300
0000C300
0000C000
0000C000
00FFC000
00FFC000
03FFC000
03FFC000
03FF0000
03FF0000
00FC0000
00FC0000
ENDCHAR
STARTCHAR 2277
ENCODING 8823
SWIDTH 192 0
DWIDTH 32 0
BBX 32 32 0 -4
BITMAP
00030000
00030000
000FC000
000FC000
00C30C00
00C30C00
03FFFF00
03FFFF00
00C30C00
00C30C00
00030000
00030000
003FF000
003FF000
000FC000
000FC000
000FC000
000FC000
000FC000
000FC000
000FC000
000FC000
000FC000
000FC000
00030000
00030000
00030000
00030000
00030000
00030000
00030000
00030000
ENDCHAR
STARTCHAR 2278
ENCODING 8824
SWIDTH 192 0
DWIDTH 32 0
BBX 32 32 0 -4
BITMAP
00030000
00030000
000FC000
000FC000
00C30C00
00C30C00
03FFFF00
03FFFF00
00C30C00
00C30C00
000FC000
000FC000
000FC000
000FC000
00030000
00030000
00030000
00030000
000FC000
000FC000
000FC000
000FC000
00C30C00
00C30C00
03FFFF00
03FFFF00
00C30C00
00C30C00
000FC000
000FC000
00030000
00030000
ENDCHAR
STARTCHAR 2279
ENCODING 8825
SWIDTH 192 0
DWIDTH 32 0
BBX 32 32 0 -4
BITMAP
00000000
00000000
003FFC00
003FFC00
00FF0C00
00FF0C00
03FF0C00
03FF0C00
03FF0C00
03FF0C00
03FF0C00
03FF0C00
00FF0C00
00FF0C00
003F0C00
003F0C00
00030C00
00030C00
00030C00
00030C00
00030C00
00030C00
00030C00
00030C00
00030C00
00030C00
00030C00
00030C00
00030C00
00030C00
00030C00
00030C00
ENDCHAR
STARTCHAR 227e
ENCODING 8830
SWIDTH 192 0
DWIDTH 32 0
BBX 32 32 0 -4
BITMAP
000FF000
000FF000
00F00F00
00F00F00
030000C0
030000C0
0C000030
0C000030
3000000C
3000000C
3000000C
3000000C
C0000003
C0000003
C0000003
C0000003
C0000003
C0000003
C0000003
C0000003
3000000C
3000000C
3000000C
3000000C
0C000030
0C000030
030000C0
030000C0
00F00F00
00F00F00
000FF000
000FF000
ENDCHAR
STARTCHAR 2330
ENCODING 9008
SWIDTH 192 0
DWIDTH 32 0
BBX 32 32 0 -4
BITMAP
00000000
00000000
000FF000
000FF000
00300C00
00300C00
00C00300
00C00300
00C00300
00C00300
03C003C0
03C003C0
030000C0
030000C0
030000C0
030000C0
030000C0
030000C0
030000C0
030000C0
03C003C0
03C003C0
00C00300
00C00300
00C00300
00C00300
00300C00
00300C00
000FF000
000FF000
00000000
00000000
ENDCHAR
STARTCHAR 2331
ENCODING 9009
SWIDTH 192 0
DWIDTH 32 0
BBX 32 32 0 -4
BITMAP
00000000
00000000
00030000
00030000
000F0000
000F0000
00330000
00330000
00C30000
00C30000
00030000
00030000
00030000
00030000
00030000
00030000
00030000
00030000
00030000
00030000
00030000
00030000
00030000
00030000
00030000
00030000
00030000
00030000
003FF000
003FF000
00000000
00000000
ENDCHAR
STARTCHAR 2332
ENCODING 9010
SWIDTH 192 0
DWIDTH 32 0
BBX 32 32 0 -4
BITMAP
00000000
00000000
003FFC00
003FFC00
00F00300
00F00300
03C000C0
03C000C0
030000C0
030000C0
000000C0
000000C0
000003C0
000003C0
00000F00
00000F00
00003C00
00003C00
0000F000
0000F000
0003C000
0003C000
000F0000
000F0000
003C0000
003C0000
00F00000
00F00000
03FFFFC0
03FFFFC0
00000000
00000000
ENDCHAR
STARTCHAR 2333
ENCODING 9011
SWIDTH 192 0
DWIDTH 32 0
BBX 32 32 0 -4
BITMAP
00000000
00000000
000FFC00
000FFC00
00FC0300
00FC0300
03C000C0
03C000C0
000000C0
000000C0
000000C0
000000C0
00000300
00000300
003FFC00
003FFC00
00000300
00000300
000000C0
000000C0
000000C0
000000C0
000000C0
000000C0
000003C0
000003C0
00003F00
00003F00
03FFF000
03FFF000
00000000
00000000
ENDCHAR
STARTCHAR 2334
ENCODING 9012
SWIDTH 192 0
DWIDTH 32 0
BBX 32 32 0 -4
BITMAP
00000000
00000000
00003C00
00003C00
0000FC00
0000FC00
0003CC00
0003CC00
000F0C00
000F0C00
003C0C00
003C0C00
00F00C00
00F00C00
03C00C00
03C00C00
0F000C00
0F000C00
0C000C00
0C000C00
0FFFFFF0
0FFFFFF0
00000C00
00000C00
00000C00
00000C00
00000C00
00000C00
0000FFC0
0000FFC0
00000000
00000000
ENDCHAR
STARTCHAR 2335
ENCODING 9013
SWIDTH 192 0
DWIDTH 32 0
BBX 32 32 0 -4
BITMAP
00000000
00000000
03FFFFC0
03FFFFC0
03000000
03000000
03000000
03000000
03000000
03000000
03000000
03000000
033FFC00
033FFC00
03C00300
03C00300
030000C0
030000C0
000000C0
000000C0
000000C0
000000C0
000003C0
000003C0
00000F00
00000F00
0000FC00
0000FC00
03FFC000
03FFC000
00000000
00000000
ENDCHAR
STARTCHAR 2336
ENCODING 9014
SWIDTH 192 0
DWIDTH 32 0
BBX 32 32 0 -4
BITMAP
00000000
00000000
0000FF00
0000FF00
000FC000
000FC000
003C0000
003C0000
00F00000
00F00000
00C00000
00C00000
03CFF000
03CFF000
03300F00
03300F00
03C003C0
03C003C0
030000C0
030000C0
030000C0
030000C0
03C000C0
03C000C0
00C003C0
00C003C0
00F00F00
00F00F00
000FF000
000FF000
00000000
00000000
ENDCHAR
STARTCHAR 2337
ENCODING 9015
SWIDTH 192 0
DWIDTH 32 0
BBX 32 32 0 -4
BITMAP
00000000
00000000
03FFFFF0
03FFFFF0
030000C0
030000C0
030003C0
030003C0
03000300
03000300
00000F00
00000F00
00000C00
00000C00
00003C00
00003C00
00003000
00003000
0000F000
0000F000
0000C000
0000C000
0000C000
0000C000
0003C000
0003C000
00030000
00030000
00030000
00030000
00000000
00000000
ENDCHAR
STARTCHAR 2338
ENCODING 9016
SWIDTH 192 0
DWIDTH 32 0
BBX 32 32 0 -4
BITMAP
00000000
00000000
000FF000
000FF000
00F00F00
00F00F00
03C003C0
03C003C0
030000C0
030000C0
030000C0
030000C0
00C00300
00C00300
003FFC00
003FFC00
00C00300
00C00300
030000C0
030000C0
030000C0
030000C0
030000C0
030000C0
03C003C0
03C003C0
00F00F00
00F00F00
000FF000
000FF000
00000000
00000000
ENDCHAR
STARTCHAR 2339
ENCODING 9017
SWIDTH 192 0
DWIDTH 32 0
BBX 32 32 0 -4
BITMAP
00000000
00000000
000FF000
000FF000
00F00F00
00F00F00
03C00300
03C00300
030003C0
030003C0
030000C0
030000C0
030000C0
030000C0
03C003C0
03C003C0
00F00CC0
00F00CC0
000FF3C0
000FF3C0
00000300
00000300
00000F00
00000F00
00003C00
00003C00
0003F000
0003F000
00FF0000
00FF0000
00000000
00000000
ENDCHAR
STARTCHAR 2341
ENCODING 9025
SWIDTH 192 0
DWIDTH 32 0
BBX 32 32 0 -4
BITMAP
00000000
00000000
00030000
00030000
000FC000
000FC000
000CC000
000CC000
003CF000
003CF000
00303000
00303000
00F03C00
00F03C00
00C00C00
00C00C00
00FFFC00
00FFFC00
03C00F00
03C00F00
03000300
03000300
0F0003C0
0F0003C0
0C0000C0
0C0000C0
FFC00FFC
FFC00FFC
00000000
00000000
00000000
00000000
ENDCHAR
STARTCHAR 2342
ENCODING 9026
SWIDTH 192 0
DWIDTH 32 0
BBX 32 32 0 -4
BITMAP
00000000
00000000
0FFFFC00
0FFFFC00
00C00300
00C00300
00C000C0
00C000C0
00C000C0
00C000C0
00C000C0
00C000C0
00C00300
00C00300
00FFFC00
00FFFC00
00C003C0
00C003C0
00C00030
00C00030
00C00030
00C00030
00C00030
00C00030
00C000C0
00C000C0
0FFFFF00
0FFFFF00
00000000
00000000
00000000
00000000
ENDCHAR
STARTCHAR 2343
ENCODING 9027
SWIDTH 192 0
DWIDTH 32 0
BBX 32 32 0 -4
BITMAP
00000000
00000000
000FF0C0
000FF0C0
00F00CC0
00F00CC0
03C003C0
03C003C0
030000C0
030000C0
0F0000C0
0F0000C0
0C000000
0C000000
0C000000
0C000000
0C000000
0C000000
0F000000
0F000000
030000C0
030000C0
03C003C0
03C003C0
00F00F00
00F00F00
000FF000
000FF000
00000000
00000000
00000000
00000000
ENDCHAR
STARTCHAR 2344
ENCODING 9028
SWIDTH 192 0
DWIDTH 32 0
BBX 32 32 0 -4
BITMAP
00000000
00000000
0FFFF000
0FFFF000
00C00F00
00C00F00
00C003C0
00C003C0
00C000C0
00C000C0
00C000F0
00C000F0
00C00030
00C00030
00C00030
00C00030
00C00030
00C00030
00C000F0
00C000F0
00C000C0
00C000C0
00C003C0
00C003C0
00C00F00
00C00F00
0FFFF000
0FFFF000
00000000
00000000
00000000
00000000
ENDCHAR
STARTCHAR 2345
ENCODING 9029
SWIDTH 192 0
DWIDTH 32 0
BBX 32 32 0 -4
BITMAP
00000000
00000000
0FFFFFC0
0FFFFFC0
00C000C0
00C000C0
00C00030
00C00030
00C00000
00C00000
00C03000
00C03000
00C03000
00C03000
00FFF000
00FFF000
00C03000
00C03000
00C03000
00C03000
00C00000
00C00000
00C00030
00C00030
00C000C0
00C000C0
0FFFFFC0
0FFFFFC0
00000000
00000000
00000000
00000000
ENDCHAR
STARTCHAR 2346
ENCODING 9030
SWIDTH 192 0
DWIDTH 32 0
BBX 32 32 0 -4
BITMAP
00000000
00000000
03FFFFF0
03FFFFF0
00300030
00300030
00300030
00300030
00300000
00300000
00300C00
00300C00
00300C00
00300C00
003FFC00
003FFC00
00300C00
00300C00
00300C00
00300C00
00300000
00300000
00300000
00300000
00300000
00300000
03FF0000
03FF0000
00000000
00000000
00000000
00000000
ENDCHAR
STARTCHAR 2347
ENCODING 9031
SWIDTH 192 0
DWIDTH 32 0
BBX 32 32 0 -4
BITMAP
00000000
00000000
000FF0C0
000FF0C0
00F00FC0
00F00FC0
03C000C0
03C000C0
030000C0
030000C0
0F000000
0F000000
0C000000
0C000000
0C000000
0C000000
0C000FFC
0C000FFC
0F0000C0
0F0000C0
030000C0
030000C0
03C003C0
03C003C0
00F00CC0
00F00CC0
000FF0C0
000FF0C0
00000000
00000000
00000000
00000000
ENDCHAR
STARTCHAR 2348
ENCODING 9032
SWIDTH 192 0
DWIDTH 32 0
BBX 32 32 0 -4
BITMAP
00000000
00000000
3FF00FFC
3FF00FFC
030000C0
030000C0
030000C0
030000C0
030000C0
030000C0
030000C0
030000C0
030000C0
030000C0
03FFFFC0
03FFFFC0
030000C0
030000C0
030000C0
030000C0
030000C0
030000C0
030000C0
030000C0
030000C0
030000C0
3FF00FFC
3FF00FFC
00000000
00000000
00000000
00000000
ENDCHAR
STARTCHAR 2349
ENCODING 9033
SWIDTH 192 0
DWIDTH 32 0
BBX 32 32 0 -4
BITMAP
00000000
00000000
003FF000
003FF000
00030000
00030000
00030000
00030000
00030000
00030000
00030000
00030000
00030000
00030000
00030000
00030000
00030000
00030000
00030000
00030000
00030000
00030000
00030000
00030000
00030000
00030000
003FF000
003FF000
00000000
00000000
00000000
00000000
ENDCHAR
STARTCHAR 234a
ENCODING 9034
SWIDTH 192 0
DWIDTH 32 0
BBX 32 32 0 -4
BITMAP
00000000
00000000
0000FFC0
0000FFC0
00000C00
00000C00
00000C00
00000C00
00000C00
00000C00
00000C00
00000C00
00000C00
00000C00
00000C00
00000C00
00000C00
00000C00
00000C00
00000C00
00000C00
00000C00
03000C00
03000C00
03C03000
03C03000
00FFC000
00FFC000
00000000
00000000
00000000
00000000
ENDCHAR
STARTCHAR 234b
ENCODING 9035
SWIDTH 192 0
DWIDTH 32 0
BBX 32 32 0 -4
BITMAP
00000000
00000000
0FFC3FF0
0FFC3FF0
00C00F00
00C00F00
00C03C00
00C03C00
00C0F000
00C0F000
00C3C000
00C3C000
00CF0000
00CF0000
00FF0000
00FF0000
00C3C000
00C3C000
00C0F000
00C0F000
00C03C00
00C03C00
00C00F00
00C00F00
00C003C0
00C003C0
0FFC0FFC
0FFC0FFC
00000000
00000000
00000000
00000000
ENDCHAR
STARTCHAR 234c
ENCODING 9036
SWIDTH 192 0
DWIDTH 32 0
BBX 32 32 0 -4
BITMAP
00000000
00000000
03FF0000
03FF0000
00300000
00300000
00300000
00300000
00300000
00300000
00300000
00300000
00300000
00300000
00300000
00300000
00300000
00300000
00300000
00300000
00300030
00300030
00300030
00300030
00300030
00300030
03FFFFF0
03FFFFF0
00000000
00000000
00000000
00000000
ENDCHAR
STARTCHAR 234d
ENCODING 9037
SWIDTH 192 0
DWIDTH 32 0
BBX 32 32 0 -4
BITMAP
00000000
00000000
FF0003FC
FF0003FC
0F0003C0
0F0003C0
0FC00FC0
0FC00FC0
0CC00CC0
0CC00CC0
0CC00CC0
0CC00CC0
0CF03CC0
0CF03CC0
0C3030C0
0C3030C0
0C3030C0
0C3030C0
0C3CF0C0
0C3CF0C0
0C0CC0C0
0C0CC0C0
0C0FC0C0
0C0FC0C0
0C0300C0
0C0300C0
FF0303FC
FF0303FC
00000000
00000000
00000000
00000000
ENDCHAR
STARTCHAR 234e
ENCODING 9038
SWIDTH 192 0
DWIDTH 32 0
BBX 32 32 0 -4
BITMAP
00000000
00000000
3FC00FFC
3FC00FFC
03F000C0
03F000C0
033000C0
033000C0
033C00C0
033C00C0
030F00C0
030F00C0
030300C0
030300C0
0303C0C0
0303C0C0
0300F0C0
0300F0C0
030030C0
030030C0
03003CC0
03003CC0
03000FC0
03000FC0
030003C0
030003C0
3FC000C0
3FC000C0
00000000
00000000
00000000
00000000
ENDCHAR
STARTCHAR 234f
ENCODING 9039
SWIDTH 192 0
DWIDTH 32 0
BBX 32 32 0 -4
BITMAP
00000000
00000000
000FF000
000FF000
00F00F00
00F00F00
03C003C0
03C003C0
030000C0
030000C0
0F0000F0
0F0000F0
0C000030
0C000030
0C000030
0C000030
0C000030
0C000030
0F0000F0
0F0000F0
030000C0
030000C0
03C003C0
03C003C0
00F00F00
00F00F00
000FF000
000FF000
00000000
00000000
00000000
00000000
ENDCHAR
STARTCHAR 2350
ENCODING 9040
SWIDTH 192 0
DWIDTH 32 0
BBX 32 32 0 -4
BITMAP
00000000
00000000
03FFFF00
03FFFF00
003000C0
003000C0
00300030
00300030
00300030
00300030
00300030
00300030
003000C0
003000C0
003FFF00
003FFF00
00300000
00300000
00300000
00300000
00300000
00300000
00300000
00300000
00300000
00300000
03FF0000
03FF0000
00000000
00000000
00000000
00000000
ENDCHAR
STARTCHAR 2351
ENCODING 9041
SWIDTH 192 0
DWIDTH 32 0
BBX 32 32 0 -4
BITMAP
00000000
00000000
000FF000
000FF000
00F00F00
00F00F00
03C003C0
03C003C0
030000C0
030000C0
0F0000F0
0F0000F0
0C000030
0C000030
0C000030
0C000030
0C000030
0C000030
0F0000F0
0F0000F0
0303C0C0
0303C0C0
03CC33C0
03CC33C0
00F00F00
00F00F00
000FF30C
000FF30C
000000F0
000000F0
00000000
00000000
ENDCHAR
STARTCHAR 2352
ENCODING 9042
SWIDTH 192 0
DWIDTH 32 0
BBX 32 32 0 -4
BITMAP
00000000
00000000
0FFFFC00
0FFFFC00
00C00300
00C00300
00C000C0
00C000C0
00C000C0
00C000C0
00C000C0
00C000C0
00C00300
00C00300
00FFFC00
00FFFC00
00C00C00
00C00C00
00C00F00
00C00F00
00C00300
00C00300
00C003C0
00C003C0
00C000C0
00C000C0
0FFC0FFC
0FFC0FFC
00000000
00000000
00000000
00000000
ENDCHAR
STARTCHAR 2353
ENCODING 9043
SWIDTH 192 0
DWIDTH 32 0
BBX 32 32 0 -4
BITMAP
00000000
00000000
003FF0C0
003FF0C0
00C00CC0
00C00CC0
030003C0
030003C0
030000C0
030000C0
030000C0
030000C0
00F00000
00F00000
000FF000
000FF000
00000F00
00000F00
030000C0
030000C0
030000C0
030000C0
03C000C0
03C000C0
03300300
03300300
030FFC00
030FFC00
00000000
00000000
00000000
00000000
ENDCHAR
STARTCHAR 2354
ENCODING 9044
SWIDTH 192 0
DWIDTH 32 0
BBX 32 32 0 -4
BITMAP
00000000
00000000
3FFFFFF0
3FFFFFF0
30030030
30030030
30030030
30030030
00030000
00030000
00030000
00030000
00030000
00030000
00030000
00030000
00030000
00030000
00030000
00030000
00030000
00030000
00030000
00030000
00030000
00030000
003FF000
003FF000
00000000
00000000
00000000
00000000
ENDCHAR
STARTCHAR 2355
ENCODING 9045
SWIDTH 192 0
DWIDTH 32 0
BBX 32 32 0 -4
BITMAP
00000000
00000000
3FF00FFC
3FF00FFC
030000C0
030000C0
030000C0
030000C0
030000C0
030000C0
030000C0
030000C0
030000C0
030000C0
030000C0
030000C0
030000C0
030000C0
030000C0
030000C0
030000C0
030000C0
03C003C0
03C003C0
00F00F00
00F00F00
000FF000
000FF000
00000000
00000000
00000000
00000000
ENDCHAR
STARTCHAR 2356
ENCODING 9046
SWIDTH 192 0
DWIDTH 32 0
BBX 32 32 0 -4
BITMAP
00000000
00000000
3FF00FFC
3FF00FFC
030000C0
030000C0
03C003C0
03C003C0
00C00300
00C00300
00C00F00
00C00F00
00F00C00
00F00C00
00300C00
00300C00
00303C00
00303C00
003C3000
003C3000
000CF000
000CF000
000CC000
000CC000
000FC000
000FC000
00030000
00030000
00000000
00000000
00000000
00000000
ENDCHAR
STARTCHAR 2357
ENCODING 9047
SWIDTH 192 0
DWIDTH 32 0
BBX 32 32 0 -4
BITMAP
00000000
00000000
FFC3C3FF
FFC3C3FF
0C03C030
0C03C030
0C03C030
0C03C030
0C0FF030
0C0FF030
0F0C30F0
0F0C30F0
030C30C0
030C30C0
033C3CC0
033C3CC0
03300CC0
03300CC0
03300CC0
03300CC0
03F00FC0
03F00FC0
00F00F00
00F00F00
00C00300
00C00300
00C00300
00C00300
00000000
00000000
00000000
00000000
ENDCHAR
STARTCHAR 2358
ENCODING 9048
SWIDTH 192 0
DWIDTH 32 0
BBX 32 32 0 -4
BITMAP
00000000
00000000
3FF03FF0
3FF03FF0
03000300
03000300
03C00F00
03C00F00
00F03C00
00F03C00
003CF000
003CF000
000FC000
000FC000
00030000
00030000
000FC000
000FC000
003CF000
003CF000
00F03C00
00F03C00
03C00F00
03C00F00
03000300
03000300
3FC03FF0
3FC03FF0
00000000
00000000
00000000
00000000
ENDCHAR
STARTCHAR 2359
ENCODING 9049
SWIDTH 192 0
DWIDTH 32 0
BBX 32 32 0 -4
BITMAP
00000000
00000000
3FF03FF0
3FF03FF0
03000300
03000300
03C00F00
03C00F00
00C00C00
00C00C00
00F03C00
00F03C00
00303000
00303000
003CF000
003CF000
000FC000
000FC000
00030000
00030000
00030000
00030000
00030000
00030000
00030000
00030000
003FF000
003FF000
00000000
00000000
00000000
00000000
ENDCHAR
STARTCHAR 235a
ENCODING 9050
SWIDTH 192 0
DWIDTH 32 0
BBX 32 32 0 -4
BITMAP
00000000
00000000
03FFFFC0
03FFFFC0
03000F00
03000F00
03003C00
03003C00
00003000
00003000
0000F000
0000F000
0003C000
0003C000
00030000
00030000
000F0000
000F0000
003C0000
003C0000
00300000
00300000
00F000C0
00F000C0
03C000C0
03C000C0
0FFFFFC0
0FFFFFC0
00000000
00000000
00000000
00000000
ENDCHAR
STARTCHAR 2361
ENCODING 9057
SWIDTH 192 0
DWIDTH 32 0
BBX 32 32 0 -4
BITMAP
00000000
00000000
00000000
00000000
00000000
00000000
00000000
00000000
00000000
00000000
00000000
00000000
003FF000
003FF000
00000C00
00000C00
00000C00
00000C00
003FFC00
003FFC00
00C00C00
00C00C00
00C00C00
00C00C00
00C03CC0
00C03CC0
003FC3C0
003FC3C0
00000000
00000000
00000000
00000000
ENDCHAR
STARTCHAR 2362
ENCODING 9058
SWIDTH 192 0
DWIDTH 32 0
BBX 32 32 0 -4
BITMAP
00000000
00000000
03F00000
03F00000
00300000
00300000
00300000
00300000
00300000
00300000
00300000
00300000
0033FC00
0033FC00
003C0300
003C0300
003000C0
003000C0
003000C0
003000C0
003000C0
003000C0
003000C0
003000C0
003C0300
003C0300
0033FC00
0033FC00
00000000
00000000
00000000
00000000
ENDCHAR
STARTCHAR 2363
ENCODING 9059
SWIDTH 192 0
DWIDTH 32 0
BBX 32 32 0 -4
BITMAP
00000000
00000000
00000000
00000000
00000000
00000000
00000000
00000000
00000000
00000000
00000000
00000000
000FFC00
000FFC00
00300300
00300300
00C00000
00C00000
00C00000
00C00000
00C00000
00C00000
00C00000
00C00000
00300300
00300300
000FFC00
000FFC00
00000000
00000000
00000000
00000000
ENDCHAR
STARTCHAR 2364
ENCODING 9060
SWIDTH 192 0
DWIDTH 32 0
BBX 32 32 0 -4
BITMAP
00000000
00000000
0000FC00
0000FC00
00000C00
00000C00
00000C00
00000C00
00000C00
00000C00
00000C00
00000C00
003FCC00
003FCC00
00C03C00
00C03C00
03000C00
03000C00
03000C00
03000C00
03000C00
03000C00
03000C00
03000C00
00C03C00
00C03C00
003FCFC0
003FCFC0
00000000
00000000
00000000
00000000
ENDCHAR
STARTCHAR 2365
ENCODING 9061
SWIDTH 192 0
DWIDTH 32 0
BBX 32 32 0 -4
BITMAP
00000000
00000000
00000000
00000000
00000000
00000000
00000000
00000000
00000000
00000000
00000000
00000000
000FF000
000FF000
00300C00
00300C00
00C00300
00C00300
00FFFF00
00FFFF00
00C00000
00C00000
00C00000
00C00000
00300300
00300300
000FFC00
000FFC00
00000000
00000000
00000000
00000000
ENDCHAR
STARTCHAR 2366
ENCODING 9062
SWIDTH 192 0
DWIDTH 32 0
BBX 32 32 0 -4
BITMAP
00000000
00000000
00003FC0
00003FC0
0000C0C0
0000C0C0
00030000
00030000
00030000
00030000
00030000
00030000
00FFFC00
00FFFC00
00030000
00030000
00030000
00030000
00030000
00030000
00030000
00030000
00030000
00030000
00030000
00030000
003FF000
003FF000
00000000
00000000
00000000
00000000
ENDCHAR
STARTCHAR 2367
ENCODING 9063
SWIDTH 192 0
DWIDTH 32 0
BBX 32 32 0 -4
BITMAP
00000000
00000000
00000000
00000000
00000000
00000000
00000000
00000000
00000000
00000000
00000000
00000000
003FF3C0
003FF3C0
00C00C00
00C00C00
00C00C00
00C00C00
00C00C00
00C00C00
003FF000
003FF000
00C00000
00C00000
00FFFF00
00FFFF00
030000C0
030000C0
030000C0
030000C0
00FFFF00
00FFFF00
ENDCHAR
STARTCHAR 2368
ENCODING 9064
SWIDTH 192 0
DWIDTH 32 0
BBX 32 32 0 -4
BITMAP
00000000
00000000
03F00000
03F00000
00300000
00300000
00300000
00300000
00300000
00300000
00300000
00300000
0033FC00
0033FC00
003C0F00
003C0F00
00300300
00300300
00300300
00300300
00300300
00300300
00300300
00300300
00300300
00300300
03FC0FF0
03FC0FF0
00000000
00000000
00000000
00000000
ENDCHAR
STARTCHAR 2369
ENCODING 9065
SWIDTH 192 0
DWIDTH 32 0
BBX 32 32 0 -4
BITMAP
00000000
00000000
00000000
00000000
0003C000
0003C000
0003C000
0003C000
00000000
00000000
00000000
00000000
000FC000
000FC000
0000C000
0000C000
0000C000
0000C000
0000C000
0000C000
0000C000
0000C000
0000C000
0000C000
0000C000
0000C000
000FFC00
000FFC00
00000000
00000000
00000000
00000000
ENDCHAR
STARTCHAR 236a
ENCODING 9066
SWIDTH 192 0
DWIDTH 32 0
BBX 32 32 0 -4
BITMAP
00000000
00000000
00000000
00000000
0000F000
0000F000
0000F000
0000F000
00000000
00000000
00000000
00000000
0003F000
0003F000
00003000
00003000
00003000
00003000
00003000
00003000
00003000
00003000
00003000
00003000
00003000
00003000
00003000
00003000
0300C000
0300C000
03FF0000
03FF0000
ENDCHAR
STARTCHAR 236b
ENCODING 9067
SWIDTH 192 0
DWIDTH 32 0
BBX 32 32 0 -4
BITMAP
00000000
00000000
0FC00000
0FC00000
00C00000
00C00000
00C00000
00C00000
00C00000
00C00000
00C00000
00C00000
00C0FFC0
00C0FFC0
00C03C00
00C03C00
00C3C000
00C3C000
00FC0000
00FC0000
00C30000
00C30000
00C0F000
00C0F000
00C00F00
00C00F00
0FFC3FF0
0FFC3FF0
00000000
00000000
00000000
00000000
ENDCHAR
STARTCHAR 236c
ENCODING 9068
SWIDTH 192 0
DWIDTH 32 0
BBX 32 32 0 -4
BITMAP
00000000
00000000
003F0000
003F0000
00030000
00030000
00030000
00030000
00030000
00030000
00030000
00030000
00030000
00030000
00030000
00030000
00030000
00030000
00030000
00030000
00030000
00030000
00030000
00030000
00030000
00030000
003FF000
003FF000
00000000
00000000
00000000
00000000
ENDCHAR
STARTCHAR 236d
ENCODING 9069
SWIDTH 192 0
DWIDTH 32 0
BBX 32 32 0 -4
BITMAP
00000000
00000000
00000000
00000000
00000000
00000000
00000000
00000000
00000000
00000000
00000000
00000000
0F3F0FC0
0F3F0FC0
03C0F030
03C0F030
0300C030
0300C030
0300C030
0300C030
0300C030
0300C030
0300C030
0300C030
0300C030
0300C030
0FC3F0FC
0FC3F0FC
00000000
00000000
00000000
00000000
ENDCHAR
STARTCHAR 236e
ENCODING 9070
SWIDTH 192 0
DWIDTH 32 0
BBX 32 32 0 -4
BITMAP
00000000
00000000
00000000
00000000
00000000
00000000
00000000
00000000
00000000
00000000
00000000
00000000
03F3FC00
03F3FC00
003C0F00
003C0F00
00300300
00300300
00300300
00300300
00300300
00300300
00300300
00300300
00300300
00300300
03FC0FF0
03FC0FF0
00000000
00000000
00000000
00000000
ENDCHAR
STARTCHAR 236f
ENCODING 9071
SWIDTH 192 0
DWIDTH 32 0
BBX 32 32 0 -4
BITMAP
00000000
00000000
00000000
00000000
00000000
00000000
00000000
00000000
00000000
00000000
00000000
00000000
000FF000
000FF000
00300C00
00300C00
00C00300
00C00300
00C00300
00C00300
00C00300
00C00300
00C00300
00C00300
00300C00
00300C00
000FF000
000FF000
00000000
00000000
00000000
00000000
ENDCHAR
STARTCHAR 2370
ENCODING 9072
SWIDTH 192 0
DWIDTH 32 0
BBX 32 32 0 -4
BITMAP
00000000
00000000
00000000
00000000
00000000
00000000
00000000
00000000
00000000
00000000
00000000
00000000
03F3FC00
03F3FC00
003C0300
003C0300
003000C0
003000C0
003000C0
003000C0
003000C0
003000C0
003C0300
003C0300
0033FC00
0033FC00
00300000
00300000
00300000
00300000
03FF0000
03FF0000
ENDCHAR
STARTCHAR 2371
ENCODING 9073
SWIDTH 192 0
DWIDTH 32 0
BBX 32 32 0 -4
BITMAP
00000000
00000000
00000000
00000000
00000000
00000000
00000000
00000000
00000000
00000000
00000000
00000000
003FCC00
003FCC00
00C03C00
00C03C00
03000C00
03000C00
03000C00
03000C00
03000C00
03000C00
00C03C00
00C03C00
003FCC00
003FCC00
00000C00
00000C00
00000C00
00000C00
0000FFC0
0000FFC0
ENDCHAR
STARTCHAR 2372
ENCODING 9074
SWIDTH 192 0
DWIDTH 32 0
BBX 32 32 0 -4
BITMAP
00000000
00000000
00000000
00000000
00000000
00000000
00000000
00000000
00000000
00000000
00000000
00000000
00FC3F00
00FC3F00
000CC300
000CC300
000F0000
000F0000
000C0000
000C0000
000C0000
000C0000
000C0000
000C0000
000C0000
000C0000
00FFC000
00FFC000
00000000
00000000
00000000
00000000
ENDCHAR
STARTCHAR 2373
ENCODING 9075
SWIDTH 192 0
DWIDTH 32 0
BBX 32 32 0 -4
BITMAP
00000000
00000000
00000000
00000000
00000000
00000000
00000000
00000000
00000000
00000000
00000000
00000000
003FF300
003FF300
00C00F00
00C00F00
00C00300
00C00300
003FC000
003FC000
00003C00
00003C00
00C00300
00C00300
00F00300
00F00300
00CFFC00
00CFFC00
00000000
00000000
00000000
00000000
ENDCHAR
STARTCHAR 2374
ENCODING 9076
SWIDTH 192 0
DWIDTH 32 0
BBX 32 32 0 -4
BITMAP
00000000
00000000
00000000
00000000
000C0000
000C0000
000C0000
000C0000
000C0000
000C0000
000C0000
000C0000
03FFFC00
03FFFC00
000C0000
000C0000
000C0000
000C0000
000C0000
000C0000
000C0000
000C0000
000C0000
000C0000
00030300
00030300
0000FF00
0000FF00
00000000
00000000
00000000
00000000
ENDCHAR
STARTCHAR 2375
ENCODING 9077
SWIDTH 192 0
DWIDTH 32 0
BBX 32 32 0 -4
BITMAP
00000000
00000000
00000000
00000000
00000000
00000000
00000000
00000000
00000000
00000000
00000000
00000000
03F03F00
03F03F00
00300300
00300300
00300300
00300300
00300300
00300300
00300300
00300300
00300300
00300300
003C0F00
003C0F00
000FF3F0
000FF3F0
00000000
00000000
00000000
00000000
ENDCHAR
STARTCHAR 2376
ENCODING 9078
SWIDTH 192 0
DWIDTH 32 0
BBX 32 32 0 -4
BITMAP
00000000
00000000
00000000
00000000
00000000
00000000
00000000
00000000
00000000
00000000
00000000
00000000
0FF03FC0
0FF03FC0
00C00C00
00C00C00
00F03C00
00F03C00
00303000
00303000
003CF000
003CF000
000CC000
000CC000
000FC000
000FC000
00030000
00030000
00000000
00000000
00000000
00000000
ENDCHAR
STARTCHAR 2377
ENCODING 9079
SWIDTH 192 0
DWIDTH 32 0
BBX 32 32 0 -4
BITMAP
00000000
00000000
00000000
00000000
00000000
00000000
00000000
00000000
00000000
00000000
00000000
00000000
3FC3C3FC
3FC3C3FC
0303C0C0
0303C0C0
03CFF3C0
03CFF3C0
00CC3300
00CC3300
00CC3300
00CC3300
00FC3F00
00FC3F00
00300C00
00300C00
00300C00
00300C00
00000000
00000000
00000000
00000000
ENDCHAR
STARTCHAR 2378
ENCODING 9080
SWIDTH 192 0
DWIDTH 32 0
BBX 32 32 0 -4
BITMAP
00000000
00000000
00000000
00000000
00000000
00000000
00000000
00000000
00000000
00000000
00000000
00000000
03FC3FC0
03FC3FC0
00300C00
00300C00
000C3000
000C3000
0003C000
0003C000
000C3000
000C3000
00300C00
00300C00
00C00300
00C00300
0FFC3FF0
0FFC3FF0
00000000
00000000
00000000
00000000
ENDCHAR
STARTCHAR 2379
ENCODING 9081
SWIDTH 192 0
DWIDTH 32 0
BBX 32 32 0 -4
BITMAP
00000000
00000000
00000000
00000000
00000000
00000000
00000000
00000000
00000000
00000000
00000000
00000000
03FC0FF0
03FC0FF0
00300300
00300300
003C0F00
003C0F00
000C0C00
000C0C00
000F3C00
000F3C00
00033000
00033000
0000F000
0000F000
0003C000
0003C000
030F0000
030F0000
03FC0000
03FC0000
ENDCHAR
STARTCHAR 237a
ENCODING 9082
SWIDTH 192 0
DWIDTH 32 0
BBX 32 32 0 -4
BITMAP
00000000
00000000
00000000
00000000
00000000
00000000
00000000
00000000
00000000
00000000
00000000
00000000
00FFFF00
00FFFF00
00C00C00
00C00C00
00C03000
00C03000
0000C000
0000C000
00030000
00030000
000C0300
000C0300
00300300
00300300
00FFFF00
00FFFF00
00000000
00000000
00000000
00000000
ENDCHAR
STARTCHAR 2421
ENCODING 9249
SWIDTH 192 0
DWIDTH 32 0
BBX 32 32 0 -4
BITMAP
00000000
00000000
00000000
00000000
00000000
00000000
00000000
00000000
00030000
00030000
00030000
00030000
03FFFFC0
03FFFFC0
000C3000
000C3000
000FFF00
000FFF00
003C33C0
003C33C0
00CC30F0
00CC30F0
030CC030
030CC030
030CC030
030CC030
030300F0
030300F0
00FC03C0
00FC03C0
00003C00
00003C00
ENDCHAR
STARTCHAR 2422
ENCODING 9250
SWIDTH 192 0
DWIDTH 32 0
BBX 32 32 0 -4
BITMAP
000C0000
000C0000
000C0000
000C0000
0FFFFFC0
0FFFFFC0
00300000
00300000
00303000
00303000
003FFF00
003FFF00
03F033F0
03F033F0
0F303030
0F303030
0C30303C
0C30303C
3C30C00C
3C30C00C
3030C00C
3030C00C
3033003C
3033003C
303C0030
303C0030
0FC003F0
0FC003F0
00003F00
00003F00
00000000
00000000
ENDCHAR
STARTCHAR 2423
ENCODING 9251
SWIDTH 192 0
DWIDTH 32 0
BBX 32 32 0 -4
BITMAP
00000000
00000000
00000000
00000000
00000000
00000000
00000000
00000000
00000000
00000000
00000000
00000000
03000000
03000000
03000F00
03000F00
030003C0
030003C0
030000C0
030000C0
030000F0
030000F0
03C00030
03C00030
00CC0030
00CC0030
00FC0000
00FC0000
00300000
00300000
00000000
00000000
ENDCHAR
STARTCHAR 2424
ENCODING 9252
SWIDTH 192 0
DWIDTH 32 0
BBX 32 32 0 -4
BITMAP
00000000
00000000
00000000
00000000
0C000000
0C000000
0C000300
0C000300
0C0003C0
0C0003C0
0C0000F0
0C0000F0
0C000030
0C000030
0C00003C
0C00003C
0C00000C
0C00000C
0C00000C
0C00000C
0F0C000C
0F0C000C
033C0000
033C0000
03F00000
03F00000
00C00000
00C00000
00000000
00000000
00000000
00000000
ENDCHAR
STARTCHAR 2425
ENCODING 9253
SWIDTH 192 0
DWIDTH 32 0
BBX 32 32 0 -4
BITMAP
00000000
00000000
00000000
00000000
00000000
00000000
00000000
00000000
003C0000
003C0000
000FC000
000FC000
0000FC00
0000FC00
00000000
00000000
00FFFC00
00FFFC00
00000300
00000300
00000300
00000300
00000300
00000300
00000F00
00000F00
00003C00
00003C00
0003F000
0003F000
003F0000
003F0000
ENDCHAR
STARTCHAR 2426
ENCODING 9254
SWIDTH 192 0
DWIDTH 32 0
BBX 32 32 0 -4
BITMAP
003C0000
003C0000
000FC000
000FC000
0000FC00
0000FC00
00000000
00000000
00000000
00000000
03FFFF00
03FFFF00
000003C0
000003C0
000000C0
000000C0
000000C0
000000C0
000000C0
000000C0
000003C0
000003C0
00000F00
00000F00
00003C00
00003C00
0003F000
0003F000
00FF0000
00FF0000
00000000
00000000
ENDCHAR
STARTCHAR 2427
ENCODING 9255
SWIDTH 192 0
DWIDTH 32 0
BBX 32 32 0 -4
BITMAP
00000000
00000000
00000000
00000000
00000000
00000000
00000000
00000000
003C0000
003C0000
000FC000
000FC000
0000FC00
0000FC00
00000000
00000000
00FFFC00
00FFFC00
00003000
00003000
0000C000
0000C000
00030000
00030000
003FC000
003FC000
00F0C000
00F0C000
03C0C000
03C0C000
00003FC0
00003FC0
ENDCHAR
STARTCHAR 2428
ENCODING 9256
SWIDTH 192 0
DWIDTH 32 0
BBX 32 32 0 -4
BITMAP
003C0000
003C0000
000FC000
000FC000
0000FC00
0000FC00
00000000
00000000
03FFFF00
03FFFF00
00000C00
00000C00
00003000
00003000
0000C000
0000C000
00030000
00030000
000FF000
000FF000
003C3000
003C3000
00F03000
00F03000
03C03000
03C03000
0F003C00
0F003C00
00000FFC
00000FFC
00000000
00000000
ENDCHAR
STARTCHAR 2429
ENCODING 9257
SWIDTH 192 0
DWIDTH 32 0
BBX 32 32 0 -4
BITMAP
00000000
00000000
00000000
00000000
00000000
00000000
00000000
00000000
000C0000
000C0000
000C0300
000C0300
000FF3C0
000FF3C0
03FC00C0
03FC00C0
000C0000
000C0000
000FFC00
000FFC00
003C0300
003C0300
00CC00C0
00CC00C0
030C00C0
030C00C0
030C03C0
030C03C0
00F03F00
00F03F00
00000000
00000000
ENDCHAR
STARTCHAR 242a
ENCODING 9258
SWIDTH 192 0
DWIDTH 32 0
BBX 32 32 0 -4
BITMAP
00300000
00300000
00300000
00300000
003000F0
003000F0
003FF03C
003FF03C
3FF0000C
3FF0000C
00300000
00300000
00300000
00300000
0033FFC0
0033FFC0
003F00F0
003F00F0
03F0003C
03F0003C
0F30000C
0F30000C
3C30000C
3C30000C
3030003C
3030003C
30F000F0
30F000F0
0FC00FC0
0FC00FC0
00000000
00000000
ENDCHAR
STARTCHAR 242b
ENCODING 9259
SWIDTH 192 0
DWIDTH 32 0
BBX 32 32 0 -4
BITMAP
00300000
00300000
00300000
00300000
003000C0
003000C0
003000F0
003000F0
3FFFC03C
3FFFC03C
0030300C
0030300C
0030300F
0030300F
00F03003
00F03003
00C03003
00C03003
00C03000
00C03000
03C03000
03C03000
03003000
03003000
0F00F000
0F00F000
3C00C000
3C00C000
000FC000
000FC000
00000000
00000000
ENDCHAR
STARTCHAR 242c
ENCODING 9260
SWIDTH 192 0
DWIDTH 32 0
BBX 32 32 0 -4
BITMAP
00300033
00300033
00300033
00300033
00300300
00300300
003003C0
003003C0
3FFFC0F0
3FFFC0F0
00303030
00303030
0030303C
0030303C
00F0300C
00F0300C
00C0300C
00C0300C
00C03000
00C03000
03C03000
03C03000
03003000
03003000
0F00F000
0F00F000
3C00C000
3C00C000
000FC000
000FC000
00000000
00000000
ENDCHAR
STARTCHAR 242d
ENCODING 9261
SWIDTH 192 0
DWIDTH 32 0
BBX 32 32 0 -4
BITMAP
000C0000
000C0000
000C0000
000C0000
0FFFFFC0
0FFFFFC0
00030000
00030000
00030000
00030000
0FFFFFF0
0FFFFFF0
0000C000
0000C000
00003000
00003000
00FFFF00
00FFFF00
030003C0
030003C0
0C000000
0C000000
0C000000
0C000000
0F000000
0F000000
03F00000
03F00000
003FFF00
003FFF00
00000000
00000000
ENDCHAR
STARTCHAR 242e
ENCODING 9262
SWIDTH 192 0
DWIDTH 32 0
BBX 32 32 0 -4
BITMAP
000C0033
000C0033
000C0033
000C0033
0FFFFF00
0FFFFF00
00030000
00030000
00030000
00030000
0FFFFFC0
0FFFFFC0
0000C000
0000C000
00003000
00003000
00FFFF00
00FFFF00
030003C0
030003C0
0C000000
0C000000
0C000000
0C000000
0F000000
0F000000
03F00000
03F00000
003FFF00
003FFF00
00000000
00000000
ENDCHAR
STARTCHAR 242f
ENCODING 9263
SWIDTH 192 0
DWIDTH 32 0
BBX 32 32 0 -4
BITMAP
00000300
00000300
00000F00
00000F00
00003C00
00003C00
0000F000
0000F000
0003C000
0003C000
000F0000
000F0000
00F00000
00F00000
03C00000
03C00000
00F00000
00F00000
003C0000
003C0000
000F0000
000F0000
0003C000
0003C000
0000F000
0000F000
00003C00
00003C00
00000F00
00000F00
00000300
00000300
ENDCHAR
STARTCHAR 2430
ENCODING 9264
SWIDTH 192 0
DWIDTH 32 0
BBX 32 32 0 -4
BITMAP
00000300
00000300
00000F33
00000F33
00003C33
00003C33
0000F000
0000F000
0003C000
0003C000
000F0000
000F0000
00F00000
00F00000
03C00000
03C00000
00F00000
00F00000
003C0000
003C0000
000F0000
000F0000
0003C000
0003C000
0000F000
0000F000
00003C00
00003C00
00000F00
00000F00
00000300
00000300
ENDCHAR
STARTCHAR 2431
ENCODING 9265
SWIDTH 192 0
DWIDTH 32 0
BBX 32 32 0 -4
BITMAP
00000300
00000300
0C000300
0C000300
0C000300
0C000300
3C000300
3C000300
303FFFFF
303FFFFF
30000300
30000300
30000300
30000300
30000300
30000300
30000300
30000300
30000300
30000300
33000300
33000300
3C000F00
3C000F00
0C000C00
0C000C00
00003C00
00003C00
0000F000
0000F000
00000000
00000000
ENDCHAR
STARTCHAR 2432
ENCODING 9266
SWIDTH 192 0
DWIDTH 32 0
BBX 32 32 0 -4
BITMAP
00000C33
00000C33
0C000C33
0C000C33
0C000C00
0C000C00
3C000C00
3C000C00
303FFFFC
303FFFFC
30000C00
30000C00
30000C00
30000C00
30000C00
30000C00
30000C00
30000C00
30000C00
30000C00
33000C00
33000C00
3C003C00
3C003C00
0C003000
0C003000
0000F000
0000F000
0003C000
0003C000
00000000
00000000
ENDCHAR
STARTCHAR 2433
ENCODING 9267
SWIDTH 192 0
DWIDTH 32 0
BBX 32 32 0 -4
BITMAP
00000000
00000000
00000000
00000000
03FFFFC0
03FFFFC0
00000000
00000000
00000000
00000000
00000000
00000000
00000000
00000000
00000000
00000000
00000000
00000000
00000000
00000000
0C000000
0C000000
0F000000
0F000000
03F00000
03F00000
003FFFF0
003FFFF0
00000000
00000000
00000000
00000000
ENDCHAR
STARTCHAR 2434
ENCODING 9268
SWIDTH 192 0
DWIDTH 32 0
BBX 32 32 0 -4
BITMAP
00000033
00000033
00000033
00000033
03FFFF00
03FFFF00
00000000
00000000
00000000
00000000
00000000
00000000
00000000
00000000
00000000
00000000
00000000
00000000
00000000
00000000
0C000000
0C000000
0F000000
0F000000
03F00000
03F00000
003FFFF0
003FFFF0
00000000
00000000
00000000
00000000
ENDCHAR
STARTCHAR 2435
ENCODING 9269
SWIDTH 192 0
DWIDTH 32 0
BBX 32 32 0 -4
BITMAP
00300000
00300000
003C0000
003C0000
000C0000
000C0000
3FFFFFF0
3FFFFFF0
00030000
00030000
0003C000
0003C000
0000F000
0000F000
00003C00
00003C00
00FFFFC0
00FFFFC0
030000F0
030000F0
0C000000
0C000000
0C000000
0C000000
0F000000
0F000000
03F00000
03F00000
003FFF00
003FFF00
00000000
00000000
ENDCHAR
STARTCHAR 2436
ENCODING 9270
SWIDTH 192 0
DWIDTH 32 0
BBX 32 32 0 -4
BITMAP
00300033
00300033
003C0033
003C0033
000C0000
000C0000
3FFFFFF0
3FFFFFF0
00030000
00030000
0003C000
0003C000
0000F000
0000F000
00003C00
00003C00
00FFFFC0
00FFFFC0
030000F0
030000F0
0C000000
0C000000
0C000000
0C000000
0F000000
0F000000
03F00000
03F00000
003FFF00
003FFF00
00000000
00000000
ENDCHAR
STARTCHAR 2437
ENCODING 9271
SWIDTH 192 0
DWIDTH 32 0
BBX 32 32 0 -4
BITMAP
00000000
00000000
00C00000
00C00000
00C00000
00C00000
00C00000
00C00000
00C00000
00C00000
00C00000
00C00000
00C00000
00C00000
00C00000
00C00000
00C00000
00C00000
00C00000
00C00000
00C00030
00C00030
00C000F0
00C000F0
00C003C0
00C003C0
00303F00
00303F00
000FF000
000FF000
00000000
00000000
ENDCHAR
STARTCHAR 2438
ENCODING 9272
SWIDTH 192 0
DWIDTH 32 0
BBX 32 32 0 -4
BITMAP
00000000
00000000
00C00000
00C00000
00C03300
00C03300
00C03300
00C03300
00C00000
00C00000
00C00000
00C00000
00C00000
00C00000
00C00000
00C00000
00C00000
00C00000
00C00000
00C00000
00C00030
00C00030
00C000F0
00C000F0
00C003C0
00C003C0
00303F00
00303F00
000FF000
000FF000
00000000
00000000
ENDCHAR
STARTCHAR 2439
ENCODING 9273
SWIDTH 192 0
DWIDTH 32 0
BBX 32 32 0 -4
BITMAP
0000C000
0000C000
0000C000
0000C000
0000C000
0000C000
FFFFFFFF
FFFFFFFF
0000C000
0000C000
0000C000
0000C000
003FC000
003FC000
00F0F000
00F0F000
00C03000
00C03000
00C03000
00C03000
00F03000
00F03000
003FF000
003FF000
0000C000
0000C000
0003C000
0003C000
000F0000
000F0000
00FC0000
00FC0000
ENDCHAR
STARTCHAR 243a
ENCODING 9274
SWIDTH 192 0
DWIDTH 32 0
BBX 32 32 0 -4
BITMAP
0000C033
0000C033
0000C033
0000C033
0000C000
0000C000
FFFFFFFF
FFFFFFFF
0000C000
0000C000
0000C000
0000C000
003FC000
003FC000
00F0F000
00F0F000
00C03000
00C03000
00C03000
00C03000
00F03000
00F03000
003FF000
003FF000
0000C000
0000C000
0003C000
0003C000
000F0000
000F0000
00FC0000
00FC0000
ENDCHAR
STARTCHAR 243b
ENCODING 9275
SWIDTH 192 0
DWIDTH 32 0
BBX 32 32 0 -4
BITMAP
00000000
00000000
00C00300
00C00300
00C00300
00C00300
00C00300
00C00300
00C00300
00C00300
FFFFFFFF
FFFFFFFF
00C00300
00C00300
00C00300
00C00300
00C00300
00C00300
00C00300
00C00300
00C03C00
00C03C00
00C00000
00C00000
00C00000
00C00000
00300000
00300000
000FFFF0
000FFFF0
00000000
00000000
ENDCHAR
STARTCHAR 243c
ENCODING 9276
SWIDTH 192 0
DWIDTH 32 0
BBX 32 32 0 -4
BITMAP
00000033
00000033
00C00C33
00C00C33
00C00C00
00C00C00
00C00C00
00C00C00
00C00C00
00C00C00
FFFFFFFF
FFFFFFFF
00C00C00
00C00C00
00C00C00
00C00C00
00C00C00
00C00C00
00C00C00
00C00C00
00C0F000
00C0F000
00C00000
00C00000
00C00000
00C00000
00300000
00300000
000FFFF0
000FFFF0
00000000
00000000
ENDCHAR
STARTCHAR 243d
ENCODING 9277
SWIDTH 192 0
DWIDTH 32 0
BBX 32 32 0 -4
BITMAP
00000000
00000000
03FFFFC0
03FFFFC0
00000F00
00000F00
0000F000
0000F000
0003C000
0003C000
000F0000
000F0000
00F00000
00F00000
3FFFFFFC
3FFFFFFC
0003C000
0003C000
000F0000
000F0000
003C0000
003C0000
00300000
00300000
00300000
00300000
003C0000
003C0000
000FC000
000FC000
0000FF00
0000FF00
ENDCHAR
STARTCHAR 243e
ENCODING 9278
SWIDTH 192 0
DWIDTH 32 0
BBX 32 32 0 -4
BITMAP
00000000
00000000
03FFFF00
03FFFF00
00003C33
00003C33
0000F033
0000F033
0003C000
0003C000
000F0000
000F0000
00F00000
00F00000
3FFFFFFC
3FFFFFFC
0003C000
0003C000
000F0000
000F0000
003C0000
003C0000
00300000
00300000
00300000
00300000
003C0000
003C0000
000FC000
000FC000
0000FF00
0000FF00
ENDCHAR
STARTCHAR 243f
ENCODING 9279
SWIDTH 192 0
DWIDTH 32 0
BBX 32 32 0 -4
BITMAP
00300000
00300000
00300000
00300000
00300000
00300000
3FFFC000
3FFFC000
00C00000
00C00000
00C03FF0
00C03FF0
00C00000
00C00000
03C00000
03C00000
03000000
03000000
03000000
03000000
0F000000
0F000000
0C000000
0C000000
0C00C000
0C00C000
3C00F000
3C00F000
30003FFC
30003FFC
00000000
00000000
ENDCHAR
STARTCHAR 2440
ENCODING 9280
SWIDTH 192 0
DWIDTH 32 0
BBX 32 32 0 -4
BITMAP
003000CC
003000CC
003000CC
003000CC
00300000
00300000
3FFFC000
3FFFC000
00C00000
00C00000
00C03FF0
00C03FF0
00C00000
00C00000
03C00000
03C00000
03000000
03000000
03000000
03000000
0F000000
0F000000
0C000000
0C000000
0C00C000
0C00C000
3C00F000
3C00F000
30003FFC
30003FFC
00000000
00000000
ENDCHAR
STARTCHAR 2441
ENCODING 9281
SWIDTH 192 0
DWIDTH 32 0
BBX 32 32 0 -4
BITMAP
00030000
00030000
00030000
00030000
00030000
00030000
3FFFFFF0
3FFFFFF0
000C0000
000C0000
003C0000
003C0000
00300000
00300000
00FFFF00
00FFFF00
03C000C0
03C000C0
0F000030
0F000030
00000030
00000030
00000030
00000030
000000F0
000000F0
00000FC0
00000FC0
003FFC00
003FFC00
00000000
00000000
ENDCHAR
STARTCHAR 2442
ENCODING 9282
SWIDTH 192 0
DWIDTH 32 0
BBX 32 32 0 -4
BITMAP
00030033
00030033
00030033
00030033
00030000
00030000
3FFFFFF0
3FFFFFF0
000C0000
000C0000
003C0000
003C0000
00300000
00300000
00FFFF00
00FFFF00
03C000C0
03C000C0
0F000030
0F000030
00000030
00000030
00000030
00000030
000000F0
000000F0
00000FC0
00000FC0
003FFC00
003FFC00
00000000
00000000
ENDCHAR
STARTCHAR 2443
ENCODING 9283
SWIDTH 192 0
DWIDTH 32 0
BBX 32 32 0 -4
BITMAP
00000000
00000000
00000000
00000000
00000000
00000000
00000000
00000000
00000000
00000000
00000000
00000000
00000000
00000000
0003FC00
0003FC00
003F0300
003F0300
03F000C0
03F000C0
000000C0
000000C0
000000C0
000000C0
000003C0
000003C0
00000F00
00000F00
0000FC00
0000FC00
00000000
00000000
ENDCHAR
STARTCHAR 2444
ENCODING 9284
SWIDTH 192 0
DWIDTH 32 0
BBX 32 32 0 -4
BITMAP
00000000
00000000
00000000
00000000
00000000
00000000
000FFFC0
000FFFC0
03FC0030
03FC0030
3F00000C
3F00000C
0000000C
0000000C
0000000C
0000000C
0000000C
0000000C
0000003C
0000003C
000000F0
000000F0
00000FC0
00000FC0
0000FC00
0000FC00
00000000
00000000
00000000
00000000
00000000
00000000
ENDCHAR
STARTCHAR 2445
ENCODING 9285
SWIDTH 192 0
DWIDTH 32 0
BBX 32 32 0 -4
BITMAP
00000033
00000033
00000033
00000033
00000000
00000000
000FFFC0
000FFFC0
03FC0030
03FC0030
3F00000C
3F00000C
0000000C
0000000C
0000000C
0000000C
0000000C
0000000C
0000003C
0000003C
000000F0
000000F0
00000FC0
00000FC0
0000FC00
0000FC00
00000000
00000000
00000000
00000000
00000000
00000000
ENDCHAR
STARTCHAR 2446
ENCODING 9286
SWIDTH 192 0
DWIDTH 32 0
BBX 32 32 0 -4
BITMAP
00000000
00000000
00000000
00000000
3FFFFFFC
3FFFFFFC
00003C00
00003C00
0000F000
0000F000
0003C000
0003C000
00030000
00030000
000F0000
000F0000
000C0000
000C0000
000C0000
000C0000
000C0000
000C0000
000F0000
000F0000
0003C000
0003C000
0000FC00
0000FC00
00000FC0
00000FC0
00000000
00000000
ENDCHAR
STARTCHAR 2447
ENCODING 9287
SWIDTH 192 0
DWIDTH 32 0
BBX 32 32 0 -4
BITMAP
00000000
00000000
00000000
00000000
3FFFFFF0
3FFFFFF0
00003C00
00003C00
0000F033
0000F033
0003C033
0003C033
00030000
00030000
000F0000
000F0000
000C0000
000C0000
000C0000
000C0000
000C0000
000C0000
000F0000
000F0000
0003C000
0003C000
0000FC00
0000FC00
00000FC0
00000FC0
00000000
00000000
ENDCHAR
STARTCHAR 2448
ENCODING 9288
SWIDTH 192 0
DWIDTH 32 0
BBX 32 32 0 -4
BITMAP
00000000
00000000
03000000
03000000
03C00000
03C00000
00C00000
00C00000
00F000F0
00F000F0
00300FC0
00300FC0
003CFC00
003CFC00
000FC000
000FC000
003C0000
003C0000
00F00000
00F00000
03C00000
03C00000
03000000
03000000
03000000
03000000
03C00000
03C00000
00FFFFF0
00FFFFF0
00000000
00000000
ENDCHAR
STARTCHAR 2449
ENCODING 9289
SWIDTH 192 0
DWIDTH 32 0
BBX 32 32 0 -4
BITMAP
00000033
00000033
03000033
03000033
03C00000
03C00000
00C00000
00C00000
00F000F0
00F000F0
00300FC0
00300FC0
003CFC00
003CFC00
000FC000
000FC000
003C0000
003C0000
00F00000
00F00000
03C00000
03C00000
03000000
03000000
03000000
03000000
03C00000
03C00000
00FFFFF0
00FFFFF0
00000000
00000000
ENDCHAR
STARTCHAR 244a
ENCODING 9290
SWIDTH 192 0
DWIDTH 32 0
BBX 32 32 0 -4
BITMAP
00C00000
00C00000
00C00000
00C00000
00C003C0
00C003C0
3FFF00F0
3FFF00F0
00C0003C
00C0003C
03C00000
03C00000
03000C00
03000C00
03000C00
03000C00
0F000C00
0F000C00
0C000C00
0C000C00
3C000C00
3C000C00
000FFC00
000FFC00
00300FC0
00300FC0
00303CF0
00303CF0
000FF000
000FF000
00000000
00000000
ENDCHAR
STARTCHAR 244b
ENCODING 9291
SWIDTH 192 0
DWIDTH 32 0
BBX 32 32 0 -4
BITMAP
00000000
00000000
03000000
03000000
03000000
03000000
0F03FFF0
0F03FFF0
0C000000
0C000000
0C000000
0C000000
0C000000
0C000000
0C000000
0C000000
0C000000
0C000000
0C000000
0C000000
0C0C0000
0C0C0000
0C0C0000
0C0C0000
0CCF0000
0CCF0000
0F03FFFC
0F03FFFC
03000000
03000000
00000000
00000000
ENDCHAR
STARTCHAR 244c
ENCODING 9292
SWIDTH 192 0
DWIDTH 32 0
BBX 32 32 0 -4
BITMAP
0000C000
0000C000
0000C000
0000C000
0C00C000
0C00C000
0C00C000
0C00C000
0F3FFF00
0F3FFF00
03F0C3F0
03F0C3F0
0300C030
0300C030
0FC3C03C
0FC3C03C
0CC3000C
0CC3000C
3CF3000C
3CF3000C
303F000C
303F000C
300C0FCC
300C0FCC
303F3030
303F3030
30F330FC
30F330FC
0FC00FCF
0FC00FCF
00000000
00000000
ENDCHAR
STARTCHAR 244d
ENCODING 9293
SWIDTH 192 0
DWIDTH 32 0
BBX 32 32 0 -4
BITMAP
00C00000
00C00000
00C00000
00C00000
00C00000
00C00000
00C0FFC0
00C0FFC0
3FC3C0F0
3FC3C0F0
00CF003C
00CF003C
00FC000C
00FC000C
00F0000C
00F0000C
00C0000C
00C0000C
03C0000C
03C0000C
0FC00FCC
0FC00FCC
3CC03030
3CC03030
00C030FC
00C030FC
00C00FCF
00C00FCF
00C00000
00C00000
00000000
00000000
ENDCHAR
STARTCHAR 244e
ENCODING 9294
SWIDTH 192 0
DWIDTH 32 0
BBX 32 32 0 -4
BITMAP
00000000
00000000
00000000
00000000
000FFC00
000FFC00
00FCCFC0
00FCCFC0
03C0C0F0
03C0C0F0
0F00C030
0F00C030
0C03C03C
0C03C03C
3C03000C
3C03000C
300F000C
300F000C
300C000C
300C000C
303C003C
303C003C
30F00030
30F00030
0FC003F0
0FC003F0
00003F00
00003F00
00000000
00000000
00000000
00000000
ENDCHAR
STARTCHAR 244f
ENCODING 9295
SWIDTH 192 0
DWIDTH 32 0
BBX 32 32 0 -4
BITMAP
00000000
00000000
0C000C00
0C000C00
0C000C00
0C000C00
3C000C00
3C000C00
303FFFFC
303FFFFC
30000C00
30000C00
30000C00
30000C00
30000C00
30000C00
30000C00
30000C00
30000C00
30000C00
300FFC00
300FFC00
30300FC0
30300FC0
33300CF0
33300CF0
3C303C3C
3C303C3C
0C0FF000
0C0FF000
00000000
00000000
ENDCHAR
STARTCHAR 2450
ENCODING 9296
SWIDTH 192 0
DWIDTH 32 0
BBX 32 32 0 -4
BITMAP
00000033
00000033
0C000C33
0C000C33
0C000C00
0C000C00
3C000C00
3C000C00
303FFFFC
303FFFFC
30000C00
30000C00
30000C00
30000C00
30000C00
30000C00
30000C00
30000C00
30000C00
30000C00
300FFC00
300FFC00
30300FC0
30300FC0
33300CF0
33300CF0
3C303C3C
3C303C3C
0C0FF000
0C0FF000
00000000
00000000
ENDCHAR
STARTCHAR 2451
ENCODING 9297
SWIDTH 192 0
DWIDTH 32 0
BBX 32 32 0 -4
BITMAP
00000000
00000000
0C003000
0C003000
0C00303C
0C00303C
3C0030C3
3C0030C3
303FFFC3
303FFFC3
3000303C
3000303C
30003000
30003000
30003000
30003000
30003000
30003000
30003000
30003000
300FF000
300FF000
30303F00
30303F00
333033C0
333033C0
3C30F0F0
3C30F0F0
0C0FC000
0C0FC000
00000000
00000000
ENDCHAR
STARTCHAR 2452
ENCODING 9298
SWIDTH 192 0
DWIDTH 32 0
BBX 32 32 0 -4
BITMAP
00000000
00000000
000C0300
000C0300
3FFC0300
3FFC0300
003003C0
003003C0
00F003F0
00F003F0
03C0033C
03C0033C
0300030F
0300030F
0F000300
0F000300
0C000300
0C000300
0C000300
0C000300
0C000300
0C000300
0C000F00
0C000F00
0F000C00
0F000C00
03C0FC00
03C0FC00
00FFC000
00FFC000
00000000
00000000
ENDCHAR
STARTCHAR 2453
ENCODING 9299
SWIDTH 192 0
DWIDTH 32 0
BBX 32 32 0 -4
BITMAP
00000033
00000033
000C0333
000C0333
3FFC0300
3FFC0300
003003C0
003003C0
00F003F0
00F003F0
03C0033C
03C0033C
0300030F
0300030F
0F000300
0F000300
0C000300
0C000300
0C000300
0C000300
0C000300
0C000300
0C000F00
0C000F00
0F000C00
0F000C00
03C0FC00
03C0FC00
00FFC000
00FFC000
00000000
00000000
ENDCHAR
STARTCHAR 2454
ENCODING 9300
SWIDTH 192 0
DWIDTH 32 0
BBX 32 32 0 -4
BITMAP
00000000
00000000
00C03000
00C03000
FFC0303C
FFC0303C
030030C3
030030C3
0F003CC3
0F003CC3
0C003F3C
0C003F3C
0C0033C0
0C0033C0
3C003000
3C003000
30003000
30003000
30003000
30003000
30003000
30003000
30003000
30003000
3C00F000
3C00F000
0F03C000
0F03C000
03FF0000
03FF0000
00000000
00000000
ENDCHAR
STARTCHAR 2455
ENCODING 9301
SWIDTH 192 0
DWIDTH 32 0
BBX 32 32 0 -4
BITMAP
00000000
00000000
00300000
00300000
003C0000
003C0000
000FC000
000FC000
0000F000
0000F000
00000000
00000000
003C0000
003C0000
000F0000
000F0000
0003C0F0
0003C0F0
3000C03C
3000C03C
3000F00C
3000F00C
33C0300F
33C0300F
3F003003
3F003003
0C00F000
0C00F000
000FC000
000FC000
00000000
00000000
ENDCHAR
STARTCHAR 2456
ENCODING 9302
SWIDTH 192 0
DWIDTH 32 0
BBX 32 32 0 -4
BITMAP
00000000
00000000
003000CC
003000CC
003C00CC
003C00CC
000FC000
000FC000
0000F000
0000F000
00000000
00000000
003C0000
003C0000
000F0000
000F0000
0003C0F0
0003C0F0
3000C03C
3000C03C
3000F00C
3000F00C
33C0300F
33C0300F
3F003003
3F003003
0C00F000
0C00F000
000FC000
000FC000
00000000
00000000
ENDCHAR
STARTCHAR 2457
ENCODING 9303
SWIDTH 192 0
DWIDTH 32 0
BBX 32 32 0 -4
BITMAP
00000000
00000000
00300000
00300000
003C00F0
003C00F0
000FC30C
000FC30C
0000F30C
0000F30C
000000F0
000000F0
003C0000
003C0000
000F0000
000F0000
0003C0F0
0003C0F0
3000C03C
3000C03C
3000F00C
3000F00C
33C0300F
33C0300F
3F003003
3F003003
0C00F000
0C00F000
000FC000
000FC000
00000000
00000000
ENDCHAR
STARTCHAR 2458
ENCODING 9304
SWIDTH 192 0
DWIDTH 32 0
BBX 32 32 0 -4
BITMAP
00000000
00000000
00000000
00000000
00000000
00000000
003C0000
003C0000
00C30000
00C30000
03C3C000
03C3C000
0300C000
0300C000
0F00F000
0F00F000
3C003C00
3C003C00
00000F00
00000F00
000003C0
000003C0
000000F0
000000F0
0000003C
0000003C
00000000
00000000
00000000
00000000
00000000
00000000
ENDCHAR
STARTCHAR 2459
ENCODING 9305
SWIDTH 192 0
DWIDTH 32 0
BBX 32 32 0 -4
BITMAP
00000000
00000000
00000CC0
00000CC0
00000CC0
00000CC0
003C0000
003C0000
00C30000
00C30000
03C3C000
03C3C000
0300C000
0300C000
0F00F000
0F00F000
3C003C00
3C003C00
00000F00
00000F00
000003C0
000003C0
000000F0
000000F0
0000003C
0000003C
00000000
00000000
00000000
00000000
00000000
00000000
ENDCHAR
STARTCHAR 245a
ENCODING 9306
SWIDTH 192 0
DWIDTH 32 0
BBX 32 32 0 -4
BITMAP
00000000
00000000
00000000
00000000
00000000
00000000
003C03C0
003C03C0
00C30C30
00C30C30
03C3CC30
03C3CC30
0300C3C0
0300C3C0
0F00F000
0F00F000
3C003C00
3C003C00
00000F00
00000F00
000003C0
000003C0
000000F0
000000F0
0000003C
0000003C
00000000
00000000
00000000
00000000
00000000
00000000
ENDCHAR
STARTCHAR 245b
ENCODING 9307
SWIDTH 192 0
DWIDTH 32 0
BBX 32 32 0 -4
BITMAP
00000000
00000000
0C000000
0C000000
0C3FFFFC
0C3FFFFC
3C000C00
3C000C00
30000C00
30000C00
30000C00
30000C00
303FFFFC
303FFFFC
30000C00
30000C00
30000C00
30000C00
30000C00
30000C00
300FFC00
300FFC00
30300FC0
30300FC0
33300CF0
33300CF0
3C303C3C
3C303C3C
0C0FF000
0C0FF000
00000000
00000000
ENDCHAR
STARTCHAR 245c
ENCODING 9308
SWIDTH 192 0
DWIDTH 32 0
BBX 32 32 0 -4
BITMAP
00000033
00000033
0C000033
0C000033
0C3FFFC0
0C3FFFC0
3C000C00
3C000C00
30000C00
30000C00
30000C00
30000C00
303FFFF0
303FFFF0
30000C00
30000C00
30000C00
30000C00
30000C00
30000C00
300FFC00
300FFC00
30300FC0
30300FC0
33300CF0
33300CF0
3C303C3C
3C303C3C
0C0FF000
0C0FF000
00000000
00000000
ENDCHAR
STARTCHAR 245d
ENCODING 9309
SWIDTH 192 0
DWIDTH 32 0
BBX 32 32 0 -4
BITMAP
00000000
00000000
0C000000
0C000000
0C3FFF3C
0C3FFF3C
3C0030C3
3C0030C3
300030C3
300030C3
3000303C
3000303C
303FFFC0
303FFFC0
30003000
30003000
30003000
30003000
30003000
30003000
300FF000
300FF000
30303F00
30303F00
333033C0
333033C0
3C30F0F0
3C30F0F0
0C0FC000
0C0FC000
00000000
00000000
ENDCHAR
STARTCHAR 245e
ENCODING 9310
SWIDTH 192 0
DWIDTH 32 0
BBX 32 32 0 -4
BITMAP
0000C000
0000C000
0000C000
0000C000
0000C000
0000C000
0FFFFFF0
0FFFFFF0
0000C000
0000C000
0000C000
0000C000
0FFFFFF0
0FFFFFF0
0000C000
0000C000
0000C000
0000C000
0000C000
0000C000
03FFC000
03FFC000
0C00FC00
0C00FC00
0C00CFC0
0C00CFC0
0C03C0F0
0C03C0F0
03FF0000
03FF0000
00000000
00000000
ENDCHAR
STARTCHAR 245f
ENCODING 9311
SWIDTH 192 0
DWIDTH 32 0
BBX 32 32 0 -4
BITMAP
00000000
00000000
00000000
00000000
03FF0000
03FF0000
00030000
00030000
000300C0
000300C0
000300C0
000300C0
000300C0
000300C0
03FFFFC0
03FFFFC0
0F0C00FC
0F0C00FC
3C3C00CF
3C3C00CF
303003C0
303003C0
30F00300
30F00300
33C00F00
33C00F00
0F003C00
0F003C00
0000F000
0000F000
00000000
00000000
ENDCHAR
STARTCHAR 2460
ENCODING 9312
SWIDTH 192 0
DWIDTH 32 0
BBX 32 32 0 -4
BITMAP
00C00000
00C00000
00C00000
00C00000
00C00000
00C00000
3FFF03C0
3FFF03C0
00C000F0
00C000F0
00C0003C
00C0003C
00C0000C
00C0000C
0FC00000
0FC00000
30C00000
30C00000
30C00000
30C00000
30C00000
30C00000
30C000C0
30C000C0
0FC000C0
0FC000C0
00F003C0
00F003C0
003FFF00
003FFF00
00000000
00000000
ENDCHAR
STARTCHAR 2461
ENCODING 9313
SWIDTH 192 0
DWIDTH 32 0
BBX 32 32 0 -4
BITMAP
00003000
00003000
00003000
00003000
0C003000
0C003000
0C003000
0C003000
0F3FFF00
0F3FFF00
03F0C3F0
03F0C3F0
0300C030
0300C030
0FC0C03C
0FC0C03C
0CF3C00C
0CF3C00C
3C33000C
3C33000C
303F000C
303F000C
300C003C
300C003C
30FF0030
30FF0030
0FC303F0
0FC303F0
00003F00
00003F00
00000000
00000000
ENDCHAR
STARTCHAR 2462
ENCODING 9314
SWIDTH 192 0
DWIDTH 32 0
BBX 32 32 0 -4
BITMAP
000C0000
000C0000
000C0000
000C0000
000C0000
000C0000
0FFFFC00
0FFFFC00
000C0000
000C0000
000C0000
000C0000
0FFFFC00
0FFFFC00
00300000
00300000
00300000
00300000
00300030
00300030
00300030
00300030
00300030
00300030
003C00F0
003C00F0
000F03C0
000F03C0
0003FF00
0003FF00
00000000
00000000
ENDCHAR
STARTCHAR 2463
ENCODING 9315
SWIDTH 192 0
DWIDTH 32 0
BBX 32 32 0 -4
BITMAP
00000000
00000000
00000000
00000000
00000000
00000000
00000000
00000000
0000F000
0000F000
00C03C00
00C03C00
00F00C00
00F00C00
0030FFC0
0030FFC0
003FC030
003FC030
03FC0030
03FC0030
0F0F0030
0F0F0030
000303C0
000303C0
00030000
00030000
0003C000
0003C000
0000C000
0000C000
0000C000
0000C000
ENDCHAR
STARTCHAR 2464
ENCODING 9316
SWIDTH 192 0
DWIDTH 32 0
BBX 32 32 0 -4
BITMAP
00000000
00000000
0300F000
0300F000
03C03C00
03C03C00
00C00C00
00C00C00
00F0FFF0
00F0FFF0
003FC00C
003FC00C
0FF0000C
0FF0000C
FC3C003C
FC3C003C
000C03F0
000C03F0
000C0000
000C0000
000F0000
000F0000
00030000
00030000
00030000
00030000
0003C000
0003C000
0000C000
0000C000
0000C000
0000C000
ENDCHAR
STARTCHAR 2465
ENCODING 9317
SWIDTH 192 0
DWIDTH 32 0
BBX 32 32 0 -4
BITMAP
00000000
00000000
00000000
00000000
00000000
00000000
00000000
00000000
00003000
00003000
00C03000
00C03000
00C3FF00
00C3FF00
030C30C0
030C30C0
03303030
03303030
03303030
03303030
03C03030
03C03030
00CC30C0
00CC30C0
00C3FF00
00C3FF00
00003000
00003000
0000F000
0000F000
0003C000
0003C000
ENDCHAR
STARTCHAR 2466
ENCODING 9318
SWIDTH 192 0
DWIDTH 32 0
BBX 32 32 0 -4
BITMAP
00000000
00000000
00003000
00003000
0C003000
0C003000
0C0FFFC0
0C0FFFC0
3C3C30F0
3C3C30F0
30F0303C
30F0303C
30C0300C
30C0300C
3300300C
3300300C
3300300C
3300300C
3C00303C
3C00303C
0C3C30F0
0C3C30F0
0C0FFFC0
0C0FFFC0
00003000
00003000
0000F000
0000F000
0003C000
0003C000
00000000
00000000
ENDCHAR
STARTCHAR 2467
ENCODING 9319
SWIDTH 192 0
DWIDTH 32 0
BBX 32 32 0 -4
BITMAP
00000000
00000000
00000000
00000000
00000000
00000000
00000000
00000000
00030000
00030000
00030000
00030000
00030000
00030000
0003FF00
0003FF00
00030000
00030000
00030000
00030000
00030000
00030000
00030000
00030000
00FF0000
00FF0000
0303FC00
0303FC00
03030F00
03030F00
00FC0000
00FC0000
ENDCHAR
STARTCHAR 2468
ENCODING 9320
SWIDTH 192 0
DWIDTH 32 0
BBX 32 32 0 -4
BITMAP
0000C000
0000C000
0000C000
0000C000
0000C000
0000C000
0000C000
0000C000
0000FFF0
0000FFF0
0000C000
0000C000
0000C000
0000C000
0000C000
0000C000
0000C000
0000C000
0000C000
0000C000
03FFC000
03FFC000
0C00FC00
0C00FC00
0C00CFC0
0C00CFC0
0C03C0F0
0C03C0F0
03FF0000
03FF0000
00000000
00000000
ENDCHAR
STARTCHAR 2469
ENCODING 9321
SWIDTH 192 0
DWIDTH 32 0
BBX 32 32 0 -4
BITMAP
0003C000
0003C000
0000F000
0000F000
00C03C00
00C03C00
00C00000
00C00000
03C00000
03C00000
03000000
03000000
03000000
03000000
030FFFC0
030FFFC0
03FC00F0
03FC00F0
0F000030
0F000030
00000030
00000030
00000030
00000030
000000F0
000000F0
00000FC0
00000FC0
0003FC00
0003FC00
00000000
00000000
ENDCHAR
STARTCHAR 246a
ENCODING 9322
SWIDTH 192 0
DWIDTH 32 0
BBX 32 32 0 -4
BITMAP
00000000
00000000
00C000C0
00C000C0
00C000C0
00C000C0
00C000C0
00C000C0
00C000C0
00C000C0
00C000C0
00C000C0
00C000C0
00C000C0
00CC00C0
00CC00C0
00F000C0
00F000C0
00C000C0
00C000C0
000003C0
000003C0
00000300
00000300
00000F00
00000F00
00003C00
00003C00
0003F000
0003F000
00000000
00000000
ENDCHAR
STARTCHAR 246b
ENCODING 9323
SWIDTH 192 0
DWIDTH 32 0
BBX 32 32 0 -4
BITMAP
00000000
00000000
03FFFF00
03FFFF00
00003C00
00003C00
0000F000
0000F000
0003C000
0003C000
000F0000
000F0000
003FFF00
003FFF00
00F003C0
00F003C0
03C000F0
03C000F0
0F000030
0F000030
003F0030
003F0030
00C3C030
00C3C030
00C0C0F0
00C0C0F0
00F0C3C0
00F0C3C0
003FFF00
003FFF00
00000000
00000000
ENDCHAR
STARTCHAR 246c
ENCODING 9324
SWIDTH 192 0
DWIDTH 32 0
BBX 32 32 0 -4
BITMAP
00C00000
00C00000
00C00000
00C00000
00C00000
00C00000
00C0FC00
00C0FC00
3FC3C300
3FC3C300
00CF0300
00CF0300
00FC0300
00FC0300
00F00300
00F00300
00C00300
00C00300
03C00300
03C00300
0FC00300
0FC00300
3CC00303
3CC00303
00C0030F
00C0030F
00C000FC
00C000FC
00C00000
00C00000
00000000
00000000
ENDCHAR
STARTCHAR 246d
ENCODING 9325
SWIDTH 192 0
DWIDTH 32 0
BBX 32 32 0 -4
BITMAP
00000000
00000000
03FFFF00
03FFFF00
00003C00
00003C00
0000F000
0000F000
0003C000
0003C000
000F0000
000F0000
003FFF00
003FFF00
00F003C0
00F003C0
03C000F0
03C000F0
0F000030
0F000030
00000030
00000030
000000F0
000000F0
000003C0
000003C0
00003F00
00003F00
000FF000
000FF000
00000000
00000000
ENDCHAR
STARTCHAR 246e
ENCODING 9326
SWIDTH 192 0
DWIDTH 32 0
BBX 32 32 0 -4
BITMAP
00000000
00000000
00000000
00000000
00000000
00000000
00000000
00000000
00300000
00300000
00300000
00300000
00300000
00300000
0FF03F00
0FF03F00
0033C0C0
0033C0C0
003C0030
003C0030
00300030
00300030
00F00030
00F00030
03F00030
03F00030
0F3000C0
0F3000C0
00300F00
00300F00
00300000
00300000
ENDCHAR
STARTCHAR 246f
ENCODING 9327
SWIDTH 192 0
DWIDTH 32 0
BBX 32 32 0 -4
BITMAP
00C00000
00C00000
00C00000
00C00000
00C00000
00C00000
00C0FFC0
00C0FFC0
3FC3C0F0
3FC3C0F0
00CF003C
00CF003C
00FC000C
00FC000C
00F0000C
00F0000C
00C0000C
00C0000C
03C0000C
03C0000C
0FC0000C
0FC0000C
3CC0003C
3CC0003C
00C000F0
00C000F0
00C00FC0
00C00FC0
00C00000
00C00000
00000000
00000000
ENDCHAR
STARTCHAR 2470
ENCODING 9328
SWIDTH 192 0
DWIDTH 32 0
BBX 32 32 0 -4
BITMAP
00000000
00000000
00FFC000
00FFC000
0000C000
0000C000
0000C000
0000C000
0000C000
0000C000
000FFFC0
000FFFC0
00F300F0
00F300F0
03C3003C
03C3003C
0F0F000C
0F0F000C
0C3C000C
0C3C000C
3C303C0C
3C303C0C
30F0CF0C
30F0CF0C
33C0C33C
33C0C33C
0F00F0F0
0F00F0F0
00003FC0
00003FC0
00000000
00000000
ENDCHAR
STARTCHAR 2471
ENCODING 9329
SWIDTH 192 0
DWIDTH 32 0
BBX 32 32 0 -4
BITMAP
00000000
00000000
03FFFF00
03FFFF00
0000F000
0000F000
000F0000
000F0000
00FFFF00
00FFFF00
0FC003C0
0FC003C0
000000C0
000000C0
00FC00C0
00FC00C0
030F03C0
030F03C0
03C30F00
03C30F00
00FFFC00
00FFFC00
00C00000
00C00000
0FFC3FF0
0FFC3FF0
3C0FF03C
3C0FF03C
F000C00F
F000C00F
00000000
00000000
ENDCHAR
STARTCHAR 2472
ENCODING 9330
SWIDTH 192 0
DWIDTH 32 0
BBX 32 32 0 -4
BITMAP
000C0000
000C0000
000C0000
000C0000
000FFC00
000FFC00
0FFC0000
0FFC0000
00300000
00300000
0030003C
0030003C
00FFC3F0
00FFC3F0
03C03F00
03C03F00
0F03F000
0F03F000
000F3000
000F3000
003C3000
003C3000
00F03000
00F03000
00C00000
00C00000
00F00000
00F00000
003FFFF0
003FFFF0
00000000
00000000
ENDCHAR
STARTCHAR 2473
ENCODING 9331
SWIDTH 192 0
DWIDTH 32 0
BBX 32 32 0 -4
BITMAP
000C0000
000C0000
000C0000
000C0000
003C0000
003C0000
00300000
00300000
00F00000
00F00000
00C00000
00C00000
00C00000
00C00000
03CFC000
03CFC000
03303000
03303000
03C03000
03C03000
0F003000
0F003000
0C00300C
0C00300C
0C00303C
0C00303C
3C0030F0
3C0030F0
30000FC0
30000FC0
00000000
00000000
ENDCHAR
STARTCHAR 2521
ENCODING 9505
SWIDTH 192 0
DWIDTH 32 0
BBX 32 32 0 -4
BITMAP
00000000
00000000
00000000
00000000
00000000
00000000
00000000
00000000
00000000
00000000
00000000
00000000
03FFFFF0
03FFFFF0
000000F0
000000F0
000303C0
000303C0
00030F00
00030F00
00030000
00030000
00030000
00030000
000F0000
000F0000
000C0000
000C0000
003C0000
003C0000
00F00000
00F00000
ENDCHAR
STARTCHAR 2522
ENCODING 9506
SWIDTH 192 0
DWIDTH 32 0
BBX 32 32 0 -4
BITMAP
00000000
00000000
00000000
00000000
3FFFFFFC
3FFFFFFC
0000003C
0000003C
000300F0
000300F0
000303C0
000303C0
00030F00
00030F00
00030000
00030000
00030000
00030000
00030000
00030000
000F0000
000F0000
000C0000
000C0000
003C0000
003C0000
00F00000
00F00000
0FC00000
0FC00000
00000000
00000000
ENDCHAR
STARTCHAR 2523
ENCODING 9507
SWIDTH 192 0
DWIDTH 32 0
BBX 32 32 0 -4
BITMAP
00000000
00000000
00000000
00000000
00000000
00000000
00000000
00000000
00000000
00000000
000000C0
000000C0
000003C0
000003C0
00000F00
00000F00
0000FC00
0000FC00
000FC000
000FC000
03FCC000
03FCC000
0000C000
0000C000
0000C000
0000C000
0000C000
0000C000
0000C000
0000C000
0000C000
0000C000
ENDCHAR
STARTCHAR 2524
ENCODING 9508
SWIDTH 192 0
DWIDTH 32 0
BBX 32 32 0 -4
BITMAP
00000000
00000000
00000030
00000030
000000F0
000000F0
000003C0
000003C0
00000F00
00000F00
0000FC00
0000FC00
000FC000
000FC000
00FCC000
00FCC000
3FC0C000
3FC0C000
0000C000
0000C000
0000C000
0000C000
0000C000
0000C000
0000C000
0000C000
0000C000
0000C000
0000C000
0000C000
00000000
00000000
ENDCHAR
STARTCHAR 2525
ENCODING 9509
SWIDTH 192 0
DWIDTH 32 0
BBX 32 32 0 -4
BITMAP
00000000
00000000
00000000
00000000
00000000
00000000
00000000
00000000
00000000
00000000
00030000
00030000
00030000
00030000
03FFFFC0
03FFFFC0
030000C0
030000C0
030000C0
030000C0
000003C0
000003C0
00000300
00000300
00000F00
00000F00
00003C00
00003C00
0003F000
0003F000
003F0000
003F0000
ENDCHAR
STARTCHAR 2526
ENCODING 9510
SWIDTH 192 0
DWIDTH 32 0
BBX 32 32 0 -4
BITMAP
00030000
00030000
00030000
00030000
00030000
00030000
0FFFFFF0
0FFFFFF0
0C000030
0C000030
0C000030
0C000030
0C000030
0C000030
0C000030
0C000030
000000F0
000000F0
000000C0
000000C0
000003C0
000003C0
00000F00
00000F00
00003C00
00003C00
0003F000
0003F000
003F0000
003F0000
00000000
00000000
ENDCHAR
STARTCHAR 2527
ENCODING 9511
SWIDTH 192 0
DWIDTH 32 0
BBX 32 32 0 -4
BITMAP
00000000
00000000
00000000
00000000
00000000
00000000
00000000
00000000
00000000
00000000
00000000
00000000
00000000
00000000
00FFFF00
00FFFF00
00030000
00030000
00030000
00030000
00030000
00030000
00030000
00030000
00030000
00030000
00030000
00030000
03FFFFC0
03FFFFC0
00000000
00000000
ENDCHAR
STARTCHAR 2528
ENCODING 9512
SWIDTH 192 0
DWIDTH 32 0
BBX 32 32 0 -4
BITMAP
00000000
00000000
00000000
00000000
00000000
00000000
0FFFFFF0
0FFFFFF0
00030000
00030000
00030000
00030000
00030000
00030000
00030000
00030000
00030000
00030000
00030000
00030000
00030000
00030000
00030000
00030000
3FFFFFFC
3FFFFFFC
00000000
00000000
00000000
00000000
00000000
00000000
ENDCHAR
STARTCHAR 2529
ENCODING 9513
SWIDTH 192 0
DWIDTH 32 0
BBX 32 32 0 -4
BITMAP
00000000
00000000
00000000
00000000
00000000
00000000
00000000
00000000
00000000
00000000
00003000
00003000
00003000
00003000
00003000
00003000
03FFFFF0
03FFFFF0
00033000
00033000
000F3000
000F3000
003C3000
003C3000
00F03000
00F03000
0FC03000
0FC03000
00003000
00003000
0003F000
0003F000
ENDCHAR
STARTCHAR 252a
ENCODING 9514
SWIDTH 192 0
DWIDTH 32 0
BBX 32 32 0 -4
BITMAP
00003000
00003000
00003000
00003000
00003000
00003000
00003000
00003000
3FFFFFFC
3FFFFFFC
00033000
00033000
000F3000
000F3000
000C3000
000C3000
003C3000
003C3000
00F03000
00F03000
03C03000
03C03000
0F003000
0F003000
3C003000
3C003000
00003000
00003000
0003F000
0003F000
00000000
00000000
ENDCHAR
STARTCHAR 252b
ENCODING 9515
SWIDTH 192 0
DWIDTH 32 0
BBX 32 32 0 -4
BITMAP
00030000
00030000
00030000
00030000
00030000
00030000
00030000
00030000
0FFFFFF0
0FFFFFF0
00030030
00030030
00030030
00030030
000F0030
000F0030
000C0030
000C0030
000C0030
000C0030
003C0030
003C0030
003000F0
003000F0
00F000C0
00F000C0
03C000C0
03C000C0
0F003FC0
0F003FC0
00000000
00000000
ENDCHAR
STARTCHAR 252c
ENCODING 9516
SWIDTH 192 0
DWIDTH 32 0
BBX 32 32 0 -4
BITMAP
00030033
00030033
00030033
00030033
00030000
00030000
00030000
00030000
0FFFFFF0
0FFFFFF0
00030030
00030030
00030030
00030030
000F0030
000F0030
000C0030
000C0030
000C0030
000C0030
003C0030
003C0030
003000F0
003000F0
00F000C0
00F000C0
03C000C0
03C000C0
0F003FC0
0F003FC0
00000000
00000000
ENDCHAR
STARTCHAR 252d
ENCODING 9517
SWIDTH 192 0
DWIDTH 32 0
BBX 32 32 0 -4
BITMAP
00300000
00300000
00300000
00300000
003C0000
003C0000
000C0FC0
000C0FC0
000FFC00
000FFC00
00FF0000
00FF0000
3FC30000
3FC30000
000303FC
000303FC
0003FF00
0003FF00
003FC000
003FC000
0FF0C000
0FF0C000
0000F000
0000F000
00003000
00003000
00003000
00003000
00003C00
00003C00
00000C00
00000C00
ENDCHAR
STARTCHAR 252e
ENCODING 9518
SWIDTH 192 0
DWIDTH 32 0
BBX 32 32 0 -4
BITMAP
00300033
00300033
00300033
00300033
003C0000
003C0000
000C0FC0
000C0FC0
000FFC00
000FFC00
00FF0000
00FF0000
3FC30000
3FC30000
000303FC
000303FC
0003FF00
0003FF00
003FC000
003FC000
0FF0C000
0FF0C000
0000F000
0000F000
00003000
00003000
00003000
00003000
00003C00
00003C00
00000C00
00000C00
ENDCHAR
STARTCHAR 252f
ENCODING 9519
SWIDTH 192 0
DWIDTH 32 0
BBX 32 32 0 -4
BITMAP
00030000
00030000
00030000
00030000
00030000
00030000
000FFFC0
000FFFC0
000C00C0
000C00C0
003C00C0
003C00C0
00F003C0
00F003C0
03C00300
03C00300
00000F00
00000F00
00000C00
00000C00
00003C00
00003C00
0000F000
0000F000
0003C000
0003C000
003F0000
003F0000
03F00000
03F00000
00000000
00000000
ENDCHAR
STARTCHAR 2530
ENCODING 9520
SWIDTH 192 0
DWIDTH 32 0
BBX 32 32 0 -4
BITMAP
00030033
00030033
00030033
00030033
00030000
00030000
000FFFC0
000FFFC0
000C00C0
000C00C0
003C00C0
003C00C0
00F003C0
00F003C0
03C00300
03C00300
00000F00
00000F00
00000C00
00000C00
00003C00
00003C00
0000F000
0000F000
0003C000
0003C000
003F0000
003F0000
03F00000
03F00000
00000000
00000000
ENDCHAR
STARTCHAR 2531
ENCODING 9521
SWIDTH 192 0
DWIDTH 32 0
BBX 32 32 0 -4
BITMAP
00300000
00300000
00300000
00300000
00F00000
00F00000
00C00000
00C00000
03FFFFFC
03FFFFFC
03000C00
03000C00
0F000C00
0F000C00
3C000C00
3C000C00
00000C00
00000C00
00003C00
00003C00
00003000
00003000
0000F000
0000F000
0003C000
0003C000
000F0000
000F0000
00FC0000
00FC0000
00000000
00000000
ENDCHAR
STARTCHAR 2532
ENCODING 9522
SWIDTH 192 0
DWIDTH 32 0
BBX 32 32 0 -4
BITMAP
00300033
00300033
00300033
00300033
00F00000
00F00000
00C00000
00C00000
03FFFFFC
03FFFFFC
03000C00
03000C00
0F000C00
0F000C00
3C000C00
3C000C00
00000C00
00000C00
00003C00
00003C00
00003000
00003000
0000F000
0000F000
0003C000
0003C000
000F0000
000F0000
00FC0000
00FC0000
00000000
00000000
ENDCHAR
STARTCHAR 2533
ENCODING 9523
SWIDTH 192 0
DWIDTH 32 0
BBX 32 32 0 -4
BITMAP
00000000
00000000
00000000
00000000
00000000
00000000
0FFFFFF0
0FFFFFF0
00000030
00000030
00000030
00000030
00000030
00000030
00000030
00000030
00000030
00000030
00000030
00000030
00000030
00000030
00000030
00000030
00000030
00000030
0FFFFFF0
0FFFFFF0
00000000
00000000
00000000
00000000
ENDCHAR
STARTCHAR 2534
ENCODING 9524
SWIDTH 192 0
DWIDTH 32 0
BBX 32 32 0 -4
BITMAP
00000033
00000033
00000033
00000033
00000000
00000000
0FFFFFF0
0FFFFFF0
00000030
00000030
00000030
00000030
00000030
00000030
00000030
00000030
00000030
00000030
00000030
00000030
00000030
00000030
00000030
00000030
00000030
00000030
0FFFFFF0
0FFFFFF0
00000000
00000000
00000000
00000000
ENDCHAR
STARTCHAR 2535
ENCODING 9525
SWIDTH 192 0
DWIDTH 32 0
BBX 32 32 0 -4
BITMAP
00000000
00000000
00C00300
00C00300
00C00300
00C00300
00C00300
00C00300
FFFFFFFF
FFFFFFFF
00C00300
00C00300
00C00300
00C00300
00C00300
00C00300
00C00300
00C00300
00000F00
00000F00
00000C00
00000C00
00003C00
00003C00
0000F000
0000F000
0003C000
0003C000
003F0000
003F0000
00000000
00000000
ENDCHAR
STARTCHAR 2536
ENCODING 9526
SWIDTH 192 0
DWIDTH 32 0
BBX 32 32 0 -4
BITMAP
00000033
00000033
00C00333
00C00333
00C00300
00C00300
00C00300
00C00300
FFFFFFFF
FFFFFFFF
00C00300
00C00300
00C00300
00C00300
00C00300
00C00300
00C00300
00C00300
00000F00
00000F00
00000C00
00000C00
00003C00
00003C00
0000F000
0000F000
0003C000
0003C000
003F0000
003F0000
00000000
00000000
ENDCHAR
STARTCHAR 2537
ENCODING 9527
SWIDTH 192 0
DWIDTH 32 0
BBX 32 32 0 -4
BITMAP
00000000
00000000
00000000
00000000
00F00000
00F00000
003C0000
003C0000
000C0000
000C0000
00000000
00000000
0F00000C
0F00000C
03C0003C
03C0003C
00C000F0
00C000F0
000003C0
000003C0
00000F00
00000F00
00003C00
00003C00
0003F000
0003F000
003F0000
003F0000
0FF00000
0FF00000
00000000
00000000
ENDCHAR
STARTCHAR 2538
ENCODING 9528
SWIDTH 192 0
DWIDTH 32 0
BBX 32 32 0 -4
BITMAP
00000000
00000000
000000CC
000000CC
00F000CC
00F000CC
003C0000
003C0000
000C0000
000C0000
00000000
00000000
0F00000C
0F00000C
03C0003C
03C0003C
00C000F0
00C000F0
000003C0
000003C0
00000F00
00000F00
00003C00
00003C00
0003F000
0003F000
003F0000
003F0000
0FF00000
0FF00000
00000000
00000000
ENDCHAR
STARTCHAR 2539
ENCODING 9529
SWIDTH 192 0
DWIDTH 32 0
BBX 32 32 0 -4
BITMAP
00000000
00000000
00000000
00000000
0FFFFF00
0FFFFF00
00000300
00000300
00000300
00000300
00000F00
00000F00
00000C00
00000C00
00003C00
00003C00
0000F000
0000F000
0003F000
0003F000
000F3C00
000F3C00
003C0F00
003C0F00
00F003C0
00F003C0
03C000F0
03C000F0
3F00003C
3F00003C
00000000
00000000
ENDCHAR
STARTCHAR 253a
ENCODING 9530
SWIDTH 192 0
DWIDTH 32 0
BBX 32 32 0 -4
BITMAP
00000033
00000033
00000033
00000033
0FFFFF00
0FFFFF00
00000300
00000300
00000300
00000300
00000F00
00000F00
00000C00
00000C00
00003C00
00003C00
0000F000
0000F000
0003F000
0003F000
000F3C00
000F3C00
003C0F00
003C0F00
00F003C0
00F003C0
03C000F0
03C000F0
3F00003C
3F00003C
00000000
00000000
ENDCHAR
STARTCHAR 253b
ENCODING 9531
SWIDTH 192 0
DWIDTH 32 0
BBX 32 32 0 -4
BITMAP
00000000
00000000
00C00000
00C00000
00C00000
00C00000
00C00000
00C00000
00C0FFF0
00C0FFF0
00FFC0F0
00FFC0F0
FFC003C0
FFC003C0
00C00F00
00C00F00
00C00000
00C00000
00C00000
00C00000
00C00000
00C00000
00C00000
00C00000
00F00000
00F00000
003FFFF0
003FFFF0
00000000
00000000
00000000
00000000
ENDCHAR
STARTCHAR 253c
ENCODING 9532
SWIDTH 192 0
DWIDTH 32 0
BBX 32 32 0 -4
BITMAP
00000033
00000033
00C00033
00C00033
00C00000
00C00000
00C00000
00C00000
00C0FFF0
00C0FFF0
00FFC0F0
00FFC0F0
FFC003C0
FFC003C0
00C00F00
00C00F00
00C00000
00C00000
00C00000
00C00000
00C00000
00C00000
00C00000
00C00000
00F00000
00F00000
003FFFF0
003FFFF0
00000000
00000000
00000000
00000000
ENDCHAR
STARTCHAR 253d
ENCODING 9533
SWIDTH 192 0
DWIDTH 32 0
BBX 32 32 0 -4
BITMAP
00000000
00000000
00000000
00000000
0C000030
0C000030
0F000030
0F000030
03000030
03000030
03C00030
03C00030
00C000F0
00C000F0
000000C0
000000C0
000003C0
000003C0
00000300
00000300
00000F00
00000F00
00003C00
00003C00
0000F000
0000F000
000FC000
000FC000
00FC0000
00FC0000
00000000
00000000
ENDCHAR
STARTCHAR 253e
ENCODING 9534
SWIDTH 192 0
DWIDTH 32 0
BBX 32 32 0 -4
BITMAP
00000033
00000033
00000033
00000033
0C000000
0C000000
0F0000C0
0F0000C0
030000C0
030000C0
03C000C0
03C000C0
00C003C0
00C003C0
00000300
00000300
00000F00
00000F00
00000C00
00000C00
00003C00
00003C00
0000F000
0000F000
0003C000
0003C000
003F0000
003F0000
03F00000
03F00000
00000000
00000000
ENDCHAR
STARTCHAR 253f
ENCODING 9535
SWIDTH 192 0
DWIDTH 32 0
BBX 32 32 0 -4
BITMAP
00030000
00030000
00030000
00030000
00030000
00030000
000FFFF0
000FFFF0
000C0030
000C0030
003C00F0
003C00F0
00F3C0C0
00F3C0C0
03C0F3C0
03C0F3C0
00003300
00003300
00000F00
00000F00
00003C00
00003C00
0000F000
0000F000
0003C000
0003C000
003F0000
003F0000
03F00000
03F00000
00000000
00000000
ENDCHAR
STARTCHAR 2540
ENCODING 9536
SWIDTH 192 0
DWIDTH 32 0
BBX 32 32 0 -4
BITMAP
000C0033
000C0033
000C0033
000C0033
000C0000
000C0000
003FFFC0
003FFFC0
003000C0
003000C0
00F003C0
00F003C0
03CF0300
03CF0300
0F03CF00
0F03CF00
0000CC00
0000CC00
00003C00
00003C00
0000F000
0000F000
0003C000
0003C000
000F0000
000F0000
00FC0000
00FC0000
0FC00000
0FC00000
00000000
00000000
ENDCHAR
STARTCHAR 2541
ENCODING 9537
SWIDTH 192 0
DWIDTH 32 0
BBX 32 32 0 -4
BITMAP
00000000
00000000
000003C0
000003C0
0000FF00
0000FF00
03FFC000
03FFC000
0000C000
0000C000
0000C000
0000C000
0000C000
0000C000
3FFFFFFC
3FFFFFFC
0000C000
0000C000
0000C000
0000C000
0003C000
0003C000
00030000
00030000
000F0000
000F0000
003C0000
003C0000
03F00000
03F00000
00000000
00000000
ENDCHAR
STARTCHAR 2542
ENCODING 9538
SWIDTH 192 0
DWIDTH 32 0
BBX 32 32 0 -4
BITMAP
00000033
00000033
00000F33
00000F33
0000FC00
0000FC00
03FFC000
03FFC000
0000C000
0000C000
0000C000
0000C000
0000C000
0000C000
3FFFFFFC
3FFFFFFC
0000C000
0000C000
0000C000
0000C000
0003C000
0003C000
00030000
00030000
000F0000
000F0000
003C0000
003C0000
03F00000
03F00000
00000000
00000000
ENDCHAR
STARTCHAR 2543
ENCODING 9539
SWIDTH 192 0
DWIDTH 32 0
BBX 32 32 0 -4
BITMAP
00000000
00000000
00000000
00000000
00000000
00000000
00000000
00000000
00000000
00000000
00000000
00000000
000C0000
000C0000
030F00C0
030F00C0
03C300C0
03C300C0
00C003C0
00C003C0
00000300
00000300
00000F00
00000F00
00003C00
00003C00
0000F000
0000F000
0003C000
0003C000
003F0000
003F0000
ENDCHAR
STARTCHAR 2544
ENCODING 9540
SWIDTH 192 0
DWIDTH 32 0
BBX 32 32 0 -4
BITMAP
00000000
00000000
00000000
00000000
00300000
00300000
303C000C
303C000C
3C0C000C
3C0C000C
0C0F003C
0C0F003C
0F030030
0F030030
030000F0
030000F0
000000C0
000000C0
000003C0
000003C0
00000F00
00000F00
00003C00
00003C00
0000F000
0000F000
000FC000
000FC000
00FC0000
00FC0000
00000000
00000000
ENDCHAR
STARTCHAR 2545
ENCODING 9541
SWIDTH 192 0
DWIDTH 32 0
BBX 32 32 0 -4
BITMAP
00000033
00000033
00000033
00000033
00300000
00300000
303C0030
303C0030
3C0C0030
3C0C0030
0C0F0030
0C0F0030
0F0300F0
0F0300F0
030000C0
030000C0
000003C0
000003C0
00000300
00000300
00000F00
00000F00
00003C00
00003C00
0000F000
0000F000
000FC000
000FC000
00FC0000
00FC0000
00000000
00000000
ENDCHAR
STARTCHAR 2546
ENCODING 9542
SWIDTH 192 0
DWIDTH 32 0
BBX 32 32 0 -4
BITMAP
00000000
00000000
00000000
00000000
0FFFFFF0
0FFFFFF0
00000000
00000000
00000000
00000000
00000000
00000000
3FFFFFFC
3FFFFFFC
0000C000
0000C000
0000C000
0000C000
0000C000
0000C000
0003C000
0003C000
00030000
00030000
000F0000
000F0000
003C0000
003C0000
03F00000
03F00000
00000000
00000000
ENDCHAR
STARTCHAR 2547
ENCODING 9543
SWIDTH 192 0
DWIDTH 32 0
BBX 32 32 0 -4
BITMAP
00000033
00000033
00000033
00000033
0FFFFFC0
0FFFFFC0
00000000
00000000
00000000
00000000
00000000
00000000
3FFFFFF0
3FFFFFF0
0000C000
0000C000
0000C000
0000C000
0000C000
0000C000
0003C000
0003C000
00030000
00030000
000F0000
000F0000
003C0000
003C0000
03F00000
03F00000
00000000
00000000
ENDCHAR
STARTCHAR 2548
ENCODING 9544
SWIDTH 192 0
DWIDTH 32 0
BBX 32 32 0 -4
BITMAP
00000000
00000000
000C0000
000C0000
000C0000
000C0000
000C0000
000C0000
000C0000
000C0000
000C0000
000C0000
000FF000
000FF000
000C3F00
000C3F00
000C03F0
000C03F0
000C0000
000C0000
000C0000
000C0000
000C0000
000C0000
000C0000
000C0000
000C0000
000C0000
000C0000
000C0000
00000000
00000000
ENDCHAR
STARTCHAR 2549
ENCODING 9545
SWIDTH 192 0
DWIDTH 32 0
BBX 32 32 0 -4
BITMAP
00000000
00000000
000C00CC
000C00CC
000C00CC
000C00CC
000C0000
000C0000
000C0000
000C0000
000C0000
000C0000
000FF000
000FF000
000C3F00
000C3F00
000C03F0
000C03F0
000C0000
000C0000
000C0000
000C0000
000C0000
000C0000
000C0000
000C0000
000C0000
000C0000
000C0000
000C0000
00000000
00000000
ENDCHAR
STARTCHAR 254a
ENCODING 9546
SWIDTH 192 0
DWIDTH 32 0
BBX 32 32 0 -4
BITMAP
00000000
00000000
0000C000
0000C000
0000C000
0000C000
0000C000
0000C000
0000C000
0000C000
3FFFFFFC
3FFFFFFC
0000C000
0000C000
0000C000
0000C000
0000C000
0000C000
0000C000
0000C000
0003C000
0003C000
00030000
00030000
000F0000
000F0000
003C0000
003C0000
03F00000
03F00000
00000000
00000000
ENDCHAR
STARTCHAR 254b
ENCODING 9547
SWIDTH 192 0
DWIDTH 32 0
BBX 32 32 0 -4
BITMAP
00000000
00000000
00000000
00000000
00000000
00000000
00000000
00000000
03FFFFC0
03FFFFC0
00000000
00000000
00000000
00000000
00000000
00000000
00000000
00000000
00000000
00000000
00000000
00000000
00000000
00000000
3FFFFFFC
3FFFFFFC
00000000
00000000
00000000
00000000
00000000
00000000
ENDCHAR
STARTCHAR 254c
ENCODING 9548
SWIDTH 192 0
DWIDTH 32 0
BBX 32 32 0 -4
BITMAP
00000000
00000000
00000000
00000000
03FFFFC0
03FFFFC0
000000C0
000000C0
000003C0
000003C0
00000300
00000300
00F00F00
00F00F00
003F3C00
003F3C00
0003F000
0003F000
0000FC00
0000FC00
0003CF00
0003CF00
000F03C0
000F03C0
003C00C0
003C00C0
00F00000
00F00000
0FC00000
0FC00000
00000000
00000000
ENDCHAR
STARTCHAR 254d
ENCODING 9549
SWIDTH 192 0
DWIDTH 32 0
BBX 32 32 0 -4
BITMAP
00030000
00030000
00030000
00030000
00030000
00030000
0FFFFFC0
0FFFFFC0
00000F00
00000F00
00003C00
00003C00
0000F000
0000F000
0003C000
0003C000
003F0F00
003F0F00
03F303F0
03F303F0
3F03003C
3F03003C
00030000
00030000
00030000
00030000
00030000
00030000
00030000
00030000
00000000
00000000
ENDCHAR
STARTCHAR 254e
ENCODING 9550
SWIDTH 192 0
DWIDTH 32 0
BBX 32 32 0 -4
BITMAP
00000000
00000000
00000000
00000000
000000C0
000000C0
000000C0
000000C0
000003C0
000003C0
00000300
00000300
00000F00
00000F00
00003C00
00003C00
00003000
00003000
0000F000
0000F000
0003C000
0003C000
000F0000
000F0000
003C0000
003C0000
00F00000
00F00000
0FC00000
0FC00000
00000000
00000000
ENDCHAR
STARTCHAR 254f
ENCODING 9551
SWIDTH 192 0
DWIDTH 32 0
BBX 32 32 0 -4
BITMAP
00000000
00000000
00000000
00000000
00000000
00000000
00300C00
00300C00
00300F00
00300F00
00300300
00300300
00F003C0
00F003C0
00C000C0
00C000C0
00C000F0
00C000F0
00C00030
00C00030
03C00030
03C00030
0300003C
0300003C
0F00000C
0F00000C
3C00000C
3C00000C
00000000
00000000
00000000
00000000
ENDCHAR
STARTCHAR 2550
ENCODING 9552
SWIDTH 192 0
DWIDTH 32 0
BBX 32 32 0 -4
BITMAP
00000033
00000033
00000033
00000033
00000000
00000000
00300C00
00300C00
00300F00
00300F00
00300300
00300300
00F003C0
00F003C0
00C000C0
00C000C0
00C000F0
00C000F0
00C00030
00C00030
03C00030
03C00030
0300003C
0300003C
0F00000C
0F00000C
3C00000C
3C00000C
00000000
00000000
00000000
00000000
ENDCHAR
STARTCHAR 2551
ENCODING 9553
SWIDTH 192 0
DWIDTH 32 0
BBX 32 32 0 -4
BITMAP
00000000
00000000
00000000
00000000
0000003C
0000003C
00C030C3
00C030C3
00C03CC3
00C03CC3
00C00C3C
00C00C3C
03C00F00
03C00F00
03000300
03000300
030003C0
030003C0
030000C0
030000C0
0F0000C0
0F0000C0
0C0000F0
0C0000F0
3C000030
3C000030
F0000030
F0000030
00000000
00000000
00000000
00000000
ENDCHAR
STARTCHAR 2552
ENCODING 9554
SWIDTH 192 0
DWIDTH 32 0
BBX 32 32 0 -4
BITMAP
00000000
00000000
03000000
03000000
03000000
03000000
03000000
03000000
030003C0
030003C0
0300FF00
0300FF00
03FFC000
03FFC000
03000000
03000000
03000000
03000000
03000000
03000000
03000000
03000000
03000000
03000000
03C00000
03C00000
00FFFFF0
00FFFFF0
00000000
00000000
00000000
00000000
ENDCHAR
STARTCHAR 2553
ENCODING 9555
SWIDTH 192 0
DWIDTH 32 0
BBX 32 32 0 -4
BITMAP
00000033
00000033
03000033
03000033
03000000
03000000
03000000
03000000
030003C0
030003C0
0300FF00
0300FF00
03FFC000
03FFC000
03000000
03000000
03000000
03000000
03000000
03000000
03000000
03000000
03000000
03000000
03C00000
03C00000
00FFFFF0
00FFFFF0
00000000
00000000
00000000
00000000
ENDCHAR
STARTCHAR 2554
ENCODING 9556
SWIDTH 192 0
DWIDTH 32 0
BBX 32 32 0 -4
BITMAP
00000000
00000000
0C000000
0C000000
0C00003C
0C00003C
0C0000C3
0C0000C3
0C003CC3
0C003CC3
0C0FF03C
0C0FF03C
0FFC0000
0FFC0000
0C000000
0C000000
0C000000
0C000000
0C000000
0C000000
0C000000
0C000000
0C000000
0C000000
0F000000
0F000000
03FFFFC0
03FFFFC0
00000000
00000000
00000000
00000000
ENDCHAR
STARTCHAR 2555
ENCODING 9557
SWIDTH 192 0
DWIDTH 32 0
BBX 32 32 0 -4
BITMAP
00000000
00000000
00000000
00000000
0FFFFFF0
0FFFFFF0
00000030
00000030
000000F0
000000F0
000000C0
000000C0
000003C0
000003C0
00000300
00000300
00000F00
00000F00
00003C00
00003C00
0000F000
0000F000
0003C000
0003C000
003F0000
003F0000
03F00000
03F00000
00000000
00000000
00000000
00000000
ENDCHAR
STARTCHAR 2556
ENCODING 9558
SWIDTH 192 0
DWIDTH 32 0
BBX 32 32 0 -4
BITMAP
00000033
00000033
00000033
00000033
3FFFFFC0
3FFFFFC0
000000C0
000000C0
000003C0
000003C0
00000300
00000300
00000F00
00000F00
00000C00
00000C00
00003C00
00003C00
0000F000
0000F000
0003C000
0003C000
000F0000
000F0000
00FC0000
00FC0000
0FC00000
0FC00000
00000000
00000000
00000000
00000000
ENDCHAR
STARTCHAR 2557
ENCODING 9559
SWIDTH 192 0
DWIDTH 32 0
BBX 32 32 0 -4
BITMAP
00000000
00000000
00000000
00000000
FFFFFC3C
FFFFFC3C
00000CC3
00000CC3
00000CC3
00000CC3
00003C3C
00003C3C
00003000
00003000
0000F000
0000F000
0000C000
0000C000
0003C000
0003C000
000F0000
000F0000
003C0000
003C0000
03F00000
03F00000
3F000000
3F000000
00000000
00000000
00000000
00000000
ENDCHAR
STARTCHAR 2558
ENCODING 9560
SWIDTH 192 0
DWIDTH 32 0
BBX 32 32 0 -4
BITMAP
00000000
00000000
00000000
00000000
00000000
00000000
00300000
00300000
00FC0000
00FC0000
00CF0000
00CF0000
03C3C000
03C3C000
0300F000
0300F000
0F003C00
0F003C00
3C000F00
3C000F00
000003C0
000003C0
000000F0
000000F0
0000003C
0000003C
00000000
00000000
00000000
00000000
00000000
00000000
ENDCHAR
STARTCHAR 2559
ENCODING 9561
SWIDTH 192 0
DWIDTH 32 0
BBX 32 32 0 -4
BITMAP
00000000
00000000
00003300
00003300
00003300
00003300
00300000
00300000
00FC0000
00FC0000
00CF0000
00CF0000
03C3C000
03C3C000
0300F000
0300F000
0F003C00
0F003C00
3C000F00
3C000F00
000003C0
000003C0
000000F0
000000F0
0000003C
0000003C
00000000
00000000
00000000
00000000
00000000
00000000
ENDCHAR
STARTCHAR 255a
ENCODING 9562
SWIDTH 192 0
DWIDTH 32 0
BBX 32 32 0 -4
BITMAP
00000000
00000000
00000000
00000000
00000000
00000000
00300F00
00300F00
00FC30C0
00FC30C0
00CF30C0
00CF30C0
03C3CF00
03C3CF00
0300F000
0300F000
0F003C00
0F003C00
3C000F00
3C000F00
000003C0
000003C0
000000F0
000000F0
0000003C
0000003C
00000000
00000000
00000000
00000000
00000000
00000000
ENDCHAR
STARTCHAR 255b
ENCODING 9563
SWIDTH 192 0
DWIDTH 32 0
BBX 32 32 0 -4
BITMAP
00000000
00000000
00030000
00030000
00030000
00030000
00030000
00030000
3FFFFFFC
3FFFFFFC
00030000
00030000
00030000
00030000
00C30300
00C30300
00C303C0
00C303C0
03C300F0
03C300F0
03030030
03030030
0F03003C
0F03003C
3C03000C
3C03000C
00030000
00030000
003F0000
003F0000
00000000
00000000
ENDCHAR
STARTCHAR 255c
ENCODING 9564
SWIDTH 192 0
DWIDTH 32 0
BBX 32 32 0 -4
BITMAP
000000CC
000000CC
000300CC
000300CC
00030000
00030000
00030000
00030000
3FFFFFFC
3FFFFFFC
00030000
00030000
00030000
00030000
00C30300
00C30300
00C303C0
00C303C0
03C300F0
03C300F0
03030030
03030030
0F03003C
0F03003C
3C03000C
3C03000C
00030000
00030000
003F0000
003F0000
00000000
00000000
ENDCHAR
STARTCHAR 255d
ENCODING 9565
SWIDTH 192 0
DWIDTH 32 0
BBX 32 32 0 -4
BITMAP
00000000
00000000
00030000
00030000
0003003C
0003003C
000300C3
000300C3
3FFFFFC3
3FFFFFC3
0003003C
0003003C
00030000
00030000
00C30C00
00C30C00
00C30F00
00C30F00
03C303C0
03C303C0
030300C0
030300C0
0F0300F0
0F0300F0
3C030030
3C030030
00030000
00030000
003F0000
003F0000
00000000
00000000
ENDCHAR
STARTCHAR 255e
ENCODING 9566
SWIDTH 192 0
DWIDTH 32 0
BBX 32 32 0 -4
BITMAP
00000000
00000000
00000000
00000000
00000000
00000000
3FFFFFFC
3FFFFFFC
000000F0
000000F0
000003C0
000003C0
00000F00
00000F00
00F03C00
00F03C00
003CF000
003CF000
000FC000
000FC000
0003C000
0003C000
0000F000
0000F000
00003C00
00003C00
00000C00
00000C00
00000000
00000000
00000000
00000000
ENDCHAR
STARTCHAR 255f
ENCODING 9567
SWIDTH 192 0
DWIDTH 32 0
BBX 32 32 0 -4
BITMAP
00000000
00000000
003F0000
003F0000
0003FC00
0003FC00
00000F00
00000F00
00000000
00000000
00000000
00000000
003F0000
003F0000
0003F000
0003F000
00003C00
00003C00
00000000
00000000
00000000
00000000
00FC0000
00FC0000
000FC000
000FC000
0000FC00
0000FC00
00000F00
00000F00
00000000
00000000
ENDCHAR
STARTCHAR 2560
ENCODING 9568
SWIDTH 192 0
DWIDTH 32 0
BBX 32 32 0 -4
BITMAP
00000000
00000000
00030000
00030000
00030000
00030000
000F0000
000F0000
000C0000
000C0000
000C0000
000C0000
003C0000
003C0000
00300300
00300300
00300300
00300300
00F003C0
00F003C0
00C000C0
00C000C0
00C0FFF0
00C0FFF0
03FFC030
03FFC030
3F00003C
3F00003C
00000000
00000000
00000000
00000000
ENDCHAR
STARTCHAR 2561
ENCODING 9569
SWIDTH 192 0
DWIDTH 32 0
BBX 32 32 0 -4
BITMAP
00000000
00000000
000000C0
000000C0
000000C0
000000C0
000003C0
000003C0
00000300
00000300
00F00F00
00F00F00
003F3C00
003F3C00
0003F000
0003F000
0000FC00
0000FC00
0003CF00
0003CF00
000F03C0
000F03C0
003C00C0
003C00C0
00F00000
00F00000
03C00000
03C00000
3F000000
3F000000
00000000
00000000
ENDCHAR
STARTCHAR 2562
ENCODING 9570
SWIDTH 192 0
DWIDTH 32 0
BBX 32 32 0 -4
BITMAP
00000000
00000000
00000000
00000000
0FFFFFC0
0FFFFFC0
000C0000
000C0000
000C0000
000C0000
000C0000
000C0000
000C0000
000C0000
3FFFFFF0
3FFFFFF0
000C0000
000C0000
000C0000
000C0000
000C0000
000C0000
000C0000
000C0000
000F0000
000F0000
0003FFF0
0003FFF0
00000000
00000000
00000000
00000000
ENDCHAR
STARTCHAR 2563
ENCODING 9571
SWIDTH 192 0
DWIDTH 32 0
BBX 32 32 0 -4
BITMAP
00000000
00000000
00000000
00000000
00000000
00000000
00000000
00000000
00000000
00000000
00300000
00300000
003C0000
003C0000
000C0FF0
000C0FF0
000FFC30
000FFC30
00FF00F0
00FF00F0
0FC300C0
0FC300C0
0003C000
0003C000
0000C000
0000C000
0000F000
0000F000
00003000
00003000
00003000
00003000
ENDCHAR
STARTCHAR 2564
ENCODING 9572
SWIDTH 192 0
DWIDTH 32 0
BBX 32 32 0 -4
BITMAP
00000000
00000000
00C00000
00C00000
00F00000
00F00000
003003FC
003003FC
0033FF0C
0033FF0C
03FF003C
03FF003C
FF0C00F0
FF0C00F0
000F00C0
000F00C0
00030000
00030000
0003C000
0003C000
0000C000
0000C000
0000C000
0000C000
0000F000
0000F000
00003000
00003000
00003000
00003000
00000000
00000000
ENDCHAR
STARTCHAR 2565
ENCODING 9573
SWIDTH 192 0
DWIDTH 32 0
BBX 32 32 0 -4
BITMAP
00000000
00000000
00000000
00000000
00000000
00000000
00000000
00000000
00000000
00000000
00000000
00000000
00000000
00000000
00FFF000
00FFF000
00003000
00003000
00003000
00003000
00003000
00003000
00003000
00003000
00003000
00003000
00003000
00003000
03FFFFC0
03FFFFC0
00000000
00000000
ENDCHAR
STARTCHAR 2566
ENCODING 9574
SWIDTH 192 0
DWIDTH 32 0
BBX 32 32 0 -4
BITMAP
00000000
00000000
00000000
00000000
00000000
00000000
03FFFC00
03FFFC00
00000C00
00000C00
00000C00
00000C00
00000C00
00000C00
00000C00
00000C00
00000C00
00000C00
00000C00
00000C00
00000C00
00000C00
00000C00
00000C00
3FFFFFFC
3FFFFFFC
00000000
00000000
00000000
00000000
00000000
00000000
ENDCHAR
STARTCHAR 2567
ENCODING 9575
SWIDTH 192 0
DWIDTH 32 0
BBX 32 32 0 -4
BITMAP
00000000
00000000
00000000
00000000
00000000
00000000
00000000
00000000
00000000
00000000
00000000
00000000
00FFFF00
00FFFF00
00000300
00000300
00000300
00000300
00000300
00000300
00FFFF00
00FFFF00
00000300
00000300
00000300
00000300
00000300
00000300
00FFFF00
00FFFF00
00000000
00000000
ENDCHAR
STARTCHAR 2568
ENCODING 9576
SWIDTH 192 0
DWIDTH 32 0
BBX 32 32 0 -4
BITMAP
00000000
00000000
00000000
00000000
03FFFFC0
03FFFFC0
000000C0
000000C0
000000C0
000000C0
000000C0
000000C0
000000C0
000000C0
03FFFFC0
03FFFFC0
000000C0
000000C0
000000C0
000000C0
000000C0
000000C0
000000C0
000000C0
000000C0
000000C0
03FFFFC0
03FFFFC0
00000000
00000000
00000000
00000000
ENDCHAR
STARTCHAR 2569
ENCODING 9577
SWIDTH 192 0
DWIDTH 32 0
BBX 32 32 0 -4
BITMAP
00000000
00000000
00000000
00000000
03FFFFC0
03FFFFC0
00000000
00000000
00000000
00000000
00000000
00000000
0FFFFFF0
0FFFFFF0
00000030
00000030
000000F0
000000F0
000000C0
000000C0
000003C0
000003C0
00000F00
00000F00
00003C00
00003C00
0003F000
0003F000
00FF0000
00FF0000
00000000
00000000
ENDCHAR
STARTCHAR 256a
ENCODING 9578
SWIDTH 192 0
DWIDTH 32 0
BBX 32 32 0 -4
BITMAP
00000000
00000000
00C000C0
00C000C0
00C000C0
00C000C0
00C000C0
00C000C0
00C000C0
00C000C0
00C000C0
00C000C0
00C000C0
00C000C0
00C000C0
00C000C0
00C000C0
00C000C0
000000C0
000000C0
000003C0
000003C0
00000300
00000300
00000F00
00000F00
00003C00
00003C00
0003F000
0003F000
00000000
00000000
ENDCHAR
STARTCHAR 256b
ENCODING 9579
SWIDTH 192 0
DWIDTH 32 0
BBX 32 32 0 -4
BITMAP
00000000
00000000
00003000
00003000
00C03000
00C03000
00C03000
00C03000
00C03000
00C03000
00C03000
00C03000
00C03000
00C03000
00C03003
00C03003
00C0300F
00C0300F
00C0303C
00C0303C
03C030F0
03C030F0
030033C0
030033C0
0F003F00
0F003F00
3C003C00
3C003C00
00000000
00000000
00000000
00000000
ENDCHAR
STARTCHAR 256c
ENCODING 9580
SWIDTH 192 0
DWIDTH 32 0
BBX 32 32 0 -4
BITMAP
00000000
00000000
00000000
00000000
00C00000
00C00000
00C00000
00C00000
00C00000
00C00000
00C00000
00C00000
00C00000
00C00000
00C0000C
00C0000C
00C0003C
00C0003C
00C000F0
00C000F0
00C003C0
00C003C0
00C03F00
00C03F00
00C3F000
00C3F000
00FF0000
00FF0000
00000000
00000000
00000000
00000000
ENDCHAR
STARTCHAR 256d
ENCODING 9581
SWIDTH 192 0
DWIDTH 32 0
BBX 32 32 0 -4
BITMAP
00000000
00000000
00000000
00000000
00000000
00000000
03FFFFC0
03FFFFC0
030000C0
030000C0
030000C0
030000C0
030000C0
030000C0
030000C0
030000C0
030000C0
030000C0
030000C0
030000C0
030000C0
030000C0
030000C0
030000C0
03FFFFC0
03FFFFC0
00000000
00000000
00000000
00000000
00000000
00000000
ENDCHAR
STARTCHAR 256e
ENCODING 9582
SWIDTH 192 0
DWIDTH 32 0
BBX 32 32 0 -4
BITMAP
00000000
00000000
00000000
00000000
00000000
00000000
00000000
00000000
00000000
00000000
00000000
00000000
03FFFFC0
03FFFFC0
030000C0
030000C0
030000C0
030000C0
030000C0
030000C0
000003C0
000003C0
00000300
00000300
00000F00
00000F00
00003C00
00003C00
0003F000
0003F000
003F0000
003F0000
ENDCHAR
STARTCHAR 256f
ENCODING 9583
SWIDTH 192 0
DWIDTH 32 0
BBX 32 32 0 -4
BITMAP
00000000
00000000
00000000
00000000
0FFFFFF0
0FFFFFF0
0C000030
0C000030
0C000030
0C000030
0C000030
0C000030
00000030
00000030
000000F0
000000F0
000000C0
000000C0
000003C0
000003C0
00000F00
00000F00
00003C00
00003C00
0003F000
0003F000
003F0000
003F0000
00000000
00000000
00000000
00000000
ENDCHAR
STARTCHAR 2570
ENCODING 9584
SWIDTH 192 0
DWIDTH 32 0
BBX 32 32 0 -4
BITMAP
00000000
00000000
00003000
00003000
00003000
00003000
00003000
00003000
0FFFFFF0
0FFFFFF0
00C03000
00C03000
00C03000
00C03000
00C03000
00C03000
00C03000
00C03000
00C03000
00C03000
3FFFFFFC
3FFFFFFC
00003000
00003000
00003000
00003000
00003000
00003000
00003000
00003000
00000000
00000000
ENDCHAR
STARTCHAR 2571
ENCODING 9585
SWIDTH 192 0
DWIDTH 32 0
BBX 32 32 0 -4
BITMAP
00000000
00000000
00000000
00000000
00000000
00000000
0FFFFFF0
0FFFFFF0
000000F0
000000F0
000003C0
000003C0
00030F00
00030F00
00030000
00030000
00030000
00030000
00030000
00030000
00030000
00030000
00030000
00030000
3FFFFFFC
3FFFFFFC
00000000
00000000
00000000
00000000
00000000
00000000
ENDCHAR
STARTCHAR 2572
ENCODING 9586
SWIDTH 192 0
DWIDTH 32 0
BBX 32 32 0 -4
BITMAP
00000000
00000000
00000000
00000000
03FFFFF0
03FFFFF0
00000030
00000030
00000030
00000030
00000030
00000030
03FFFFF0
03FFFFF0
000000C0
000000C0
000003C0
000003C0
00000F00
00000F00
00003C00
00003C00
0000F000
0000F000
000FC000
000FC000
00FC0000
00FC0000
00000000
00000000
00000000
00000000
ENDCHAR
STARTCHAR 2573
ENCODING 9587
SWIDTH 192 0
DWIDTH 32 0
BBX 32 32 0 -4
BITMAP
00000000
00000000
00000000
00000000
0F000000
0F000000
03F00000
03F00000
003C0000
003C0000
0000000C
0000000C
0000003C
0000003C
000000F0
000000F0
000003C0
000003C0
00000F00
00000F00
00003C00
00003C00
0003F000
0003F000
003F0000
003F0000
0FF00000
0FF00000
00000000
00000000
00000000
00000000
ENDCHAR
STARTCHAR 2574
ENCODING 9588
SWIDTH 192 0
DWIDTH 32 0
BBX 32 32 0 -4
BITMAP
00030033
00030033
00030033
00030033
00030000
00030000
0FFFFFF0
0FFFFFF0
0C000030
0C000030
0C000030
0C000030
0C000030
0C000030
0C000030
0C000030
000000F0
000000F0
000000C0
000000C0
000003C0
000003C0
00000F00
00000F00
00003C00
00003C00
0003F000
0003F000
003F0000
003F0000
00000000
00000000
ENDCHAR
STARTCHAR 2575
ENCODING 9589
SWIDTH 192 0
DWIDTH 32 0
BBX 32 32 0 -4
BITMAP
00000000
00000000
00000000
00000000
00000000
00000000
00000000
00000000
00000000
00000000
00030000
00030000
00030000
00030000
00030000
00030000
03FFFFC0
03FFFFC0
000300C0
000300C0
000300C0
000300C0
000F00C0
000F00C0
000C00C0
000C00C0
003C03C0
003C03C0
00F00300
00F00300
03C03F00
03C03F00
ENDCHAR
STARTCHAR 2576
ENCODING 9590
SWIDTH 192 0
DWIDTH 32 0
BBX 32 32 0 -4
BITMAP
00000000
00000000
00000000
00000000
00000000
00000000
00000000
00000000
00000000
00000000
00300000
00300000
00300000
00300000
00300000
00300000
00FFFFF0
00FFFFF0
00C00C00
00C00C00
03C00C00
03C00C00
0F003C00
0F003C00
00003000
00003000
0000F000
0000F000
0003C000
0003C000
000F0000
000F0000
ENDCHAR
STARTCHAR 2621
ENCODING 9761
SWIDTH 192 0
DWIDTH 32 0
BBX 32 32 0 -4
BITMAP
00000000
00000000
00030000
00030000
00030000
00030000
000FC000
000FC000
000CC000
000CC000
003CF000
003CF000
00303000
00303000
00F03C00
00F03C00
00C00C00
00C00C00
03FFFF00
03FFFF00
03000300
03000300
0F0003C0
0F0003C0
0C0000C0
0C0000C0
FFC00FFC
FFC00FFC
00000000
00000000
00000000
00000000
ENDCHAR
STARTCHAR 2622
ENCODING 9762
SWIDTH 192 0
DWIDTH 32 0
BBX 32 32 0 -4
BITMAP
00000000
00000000
0FFFFC00
0FFFFC00
00C00300
00C00300
00C000C0
00C000C0
00C000C0
00C000C0
00C000C0
00C000C0
00C00300
00C00300
00FFFC00
00FFFC00
00C003C0
00C003C0
00C00030
00C00030
00C00030
00C00030
00C00030
00C00030
00C000C0
00C000C0
0FFFFF00
0FFFFF00
00000000
00000000
00000000
00000000
ENDCHAR
STARTCHAR 2623
ENCODING 9763
SWIDTH 192 0
DWIDTH 32 0
BBX 32 32 0 -4
BITMAP
00000000
00000000
03FFFFF0
03FFFFF0
00300030
00300030
00300030
00300030
00300000
00300000
00300000
00300000
00300000
00300000
00300000
00300000
00300000
00300000
00300000
00300000
00300000
00300000
00300000
00300000
00300000
00300000
03FF0000
03FF0000
00000000
00000000
00000000
00000000
ENDCHAR
STARTCHAR 2624
ENCODING 9764
SWIDTH 192 0
DWIDTH 32 0
BBX 32 32 0 -4
BITMAP
00000000
00000000
00030000
00030000
000FC000
000FC000
000CC000
000CC000
003CF000
003CF000
00303000
00303000
00F03C00
00F03C00
00C00C00
00C00C00
00C00C00
00C00C00
03C00F00
03C00F00
03000300
03000300
0F0003C0
0F0003C0
0C0000C0
0C0000C0
3FFFFFF0
3FFFFFF0
00000000
00000000
00000000
00000000
ENDCHAR
STARTCHAR 2625
ENCODING 9765
SWIDTH 192 0
DWIDTH 32 0
BBX 32 32 0 -4
BITMAP
00000000
00000000
0FFFFFC0
0FFFFFC0
00C000C0
00C000C0
00C000C0
00C000C0
00C00000
00C00000
00C03000
00C03000
00C03000
00C03000
00FFF000
00FFF000
00C03000
00C03000
00C03000
00C03000
00C00000
00C00000
00C000C0
00C000C0
00C000C0
00C000C0
0FFFFFC0
0FFFFFC0
00000000
00000000
00000000
00000000
ENDCHAR
STARTCHAR 2626
ENCODING 9766
SWIDTH 192 0
DWIDTH 32 0
BBX 32 32 0 -4
BITMAP
00000000
00000000
03FFFFC0
03FFFFC0
03000F00
03000F00
03003C00
03003C00
00003000
00003000
0000F000
0000F000
0003C000
0003C000
00030000
00030000
000F0000
000F0000
003C0000
003C0000
00300000
00300000
00F000C0
00F000C0
03C000C0
03C000C0
0FFFFFC0
0FFFFFC0
00000000
00000000
00000000
00000000
ENDCHAR
STARTCHAR 2627
ENCODING 9767
SWIDTH 192 0
DWIDTH 32 0
BBX 32 32 0 -4
BITMAP
00000000
00000000
3FF00FFC
3FF00FFC
030000C0
030000C0
030000C0
030000C0
030000C0
030000C0
030000C0
030000C0
030000C0
030000C0
03FFFFC0
03FFFFC0
030000C0
030000C0
030000C0
030000C0
030000C0
030000C0
030000C0
030000C0
030000C0
030000C0
3FF00FFC
3FF00FFC
00000000
00000000
00000000
00000000
ENDCHAR
STARTCHAR 2628
ENCODING 9768
SWIDTH 192 0
DWIDTH 32 0
BBX 32 32 0 -4
BITMAP
00000000
00000000
000FF000
000FF000
00F00F00
00F00F00
03C003C0
03C003C0
030000C0
030000C0
0F0000F0
0F0000F0
0C300C30
0C300C30
0C3FFC30
0C3FFC30
0C300C30
0C300C30
0F0000F0
0F0000F0
030000C0
030000C0
03C003C0
03C003C0
00F00F00
00F00F00
000FF000
000FF000
00000000
00000000
00000000
00000000
ENDCHAR
STARTCHAR 2629
ENCODING 9769
SWIDTH 192 0
DWIDTH 32 0
BBX 32 32 0 -4
BITMAP
00000000
00000000
003FF000
003FF000
00030000
00030000
00030000
00030000
00030000
00030000
00030000
00030000
00030000
00030000
00030000
00030000
00030000
00030000
00030000
00030000
00030000
00030000
00030000
00030000
00030000
00030000
003FF000
003FF000
00000000
00000000
00000000
00000000
ENDCHAR
STARTCHAR 262a
ENCODING 9770
SWIDTH 192 0
DWIDTH 32 0
BBX 32 32 0 -4
BITMAP
00000000
00000000
0FFC3FF0
0FFC3FF0
00C00F00
00C00F00
00C03C00
00C03C00
00C0F000
00C0F000
00C3C000
00C3C000
00CF0000
00CF0000
00FF0000
00FF0000
00C3C000
00C3C000
00C0F000
00C0F000
00C03C00
00C03C00
00C00F00
00C00F00
00C003C0
00C003C0
0FFC0FFC
0FFC0FFC
00000000
00000000
00000000
00000000
ENDCHAR
STARTCHAR 262b
ENCODING 9771
SWIDTH 192 0
DWIDTH 32 0
BBX 32 32 0 -4
BITMAP
00000000
00000000
00030000
00030000
000FC000
000FC000
000CC000
000CC000
003CF000
003CF000
00303000
00303000
00F03C00
00F03C00
00C00C00
00C00C00
00C00C00
00C00C00
03C00F00
03C00F00
03000300
03000300
0F0003C0
0F0003C0
0C0000C0
0C0000C0
FFC00FFC
FFC00FFC
00000000
00000000
00000000
00000000
ENDCHAR
STARTCHAR 262c
ENCODING 9772
SWIDTH 192 0
DWIDTH 32 0
BBX 32 32 0 -4
BITMAP
00000000
00000000
FF0003FC
FF0003FC
0F0003C0
0F0003C0
0FC00FC0
0FC00FC0
0CC00CC0
0CC00CC0
0CC00CC0
0CC00CC0
0CF03CC0
0CF03CC0
0C3030C0
0C3030C0
0C3030C0
0C3030C0
0C3CF0C0
0C3CF0C0
0C0CC0C0
0C0CC0C0
0C0FC0C0
0C0FC0C0
0C0300C0
0C0300C0
FF0303FC
FF0303FC
00000000
00000000
00000000
00000000
ENDCHAR
STARTCHAR 262d
ENCODING 9773
SWIDTH 192 0
DWIDTH 32 0
BBX 32 32 0 -4
BITMAP
00000000
00000000
3FC00FFC
3FC00FFC
03F000C0
03F000C0
033000C0
033000C0
033C00C0
033C00C0
030F00C0
030F00C0
030300C0
030300C0
0303C0C0
0303C0C0
0300F0C0
0300F0C0
030030C0
030030C0
03003CC0
03003CC0
03000FC0
03000FC0
030003C0
030003C0
3FC000C0
3FC000C0
00000000
00000000
00000000
00000000
ENDCHAR
STARTCHAR 262e
ENCODING 9774
SWIDTH 192 0
DWIDTH 32 0
BBX 32 32 0 -4
BITMAP
00000000
00000000
0FFFFFF0
0FFFFFF0
0C000030
0C000030
00000000
00000000
00000000
00000000
00000000
00000000
030000C0
030000C0
03FFFFC0
03FFFFC0
030000C0
030000C0
00000000
00000000
00000000
00000000
00000000
00000000
0C000030
0C000030
0FFFFFF0
0FFFFFF0
00000000
00000000
00000000
00000000
ENDCHAR
STARTCHAR 262f
ENCODING 9775
SWIDTH 192 0
DWIDTH 32 0
BBX 32 32 0 -4
BITMAP
00000000
00000000
000FF000
000FF000
00F00F00
00F00F00
03C003C0
03C003C0
030000C0
030000C0
0F0000F0
0F0000F0
0C000030
0C000030
0C000030
0C000030
0C000030
0C000030
0F0000F0
0F0000F0
030000C0
030000C0
03C003C0
03C003C0
00F00F00
00F00F00
000FF000
000FF000
00000000
00000000
00000000
00000000
ENDCHAR
STARTCHAR 2630
ENCODING 9776
SWIDTH 192 0
DWIDTH 32 0
BBX 32 32 0 -4
BITMAP
00000000
00000000
0FFFFFF0
0FFFFFF0
00C00300
00C00300
00C00300
00C00300
00C00300
00C00300
00C00300
00C00300
00C00300
00C00300
00C00300
00C00300
00C00300
00C00300
00C00300
00C00300
00C00300
00C00300
00C00300
00C00300
00C00300
00C00300
0FFC3FF0
0FFC3FF0
00000000
00000000
00000000
00000000
ENDCHAR
STARTCHAR 2631
ENCODING 9777
SWIDTH 192 0
DWIDTH 32 0
BBX 32 32 0 -4
BITMAP
00000000
00000000
03FFFF00
03FFFF00
003000C0
003000C0
00300030
00300030
00300030
00300030
00300030
00300030
003000C0
003000C0
003FFF00
003FFF00
00300000
00300000
00300000
00300000
00300000
00300000
00300000
00300000
00300000
00300000
03FF0000
03FF0000
00000000
00000000
00000000
00000000
ENDCHAR
STARTCHAR 2632
ENCODING 9778
SWIDTH 192 0
DWIDTH 32 0
BBX 32 32 0 -4
BITMAP
00000000
00000000
0FFFFFC0
0FFFFFC0
03C000C0
03C000C0
00F000C0
00F000C0
003C0000
003C0000
000F0000
000F0000
0003C000
0003C000
0000F000
0000F000
0003C000
0003C000
000F0000
000F0000
003C0000
003C0000
00F000C0
00F000C0
03C000C0
03C000C0
0FFFFFC0
0FFFFFC0
00000000
00000000
00000000
00000000
ENDCHAR
STARTCHAR 2633
ENCODING 9779
SWIDTH 192 0
DWIDTH 32 0
BBX 32 32 0 -4
BITMAP
00000000
00000000
3FFFFFF0
3FFFFFF0
30030030
30030030
30030030
30030030
00030000
00030000
00030000
00030000
00030000
00030000
00030000
00030000
00030000
00030000
00030000
00030000
00030000
00030000
00030000
00030000
00030000
00030000
003FF000
003FF000
00000000
00000000
00000000
00000000
ENDCHAR
STARTCHAR 2634
ENCODING 9780
SWIDTH 192 0
DWIDTH 32 0
BBX 32 32 0 -4
BITMAP
00000000
00000000
03FCFF00
03FCFF00
0F0FC3C0
0F0FC3C0
3C0300F0
3C0300F0
00030000
00030000
00030000
00030000
00030000
00030000
00030000
00030000
00030000
00030000
00030000
00030000
00030000
00030000
00030000
00030000
00030000
00030000
003FF000
003FF000
00000000
00000000
00000000
00000000
ENDCHAR
STARTCHAR 2635
ENCODING 9781
SWIDTH 192 0
DWIDTH 32 0
BBX 32 32 0 -4
BITMAP
00000000
00000000
003FF000
003FF000
00030000
00030000
00FFFC00
00FFFC00
0F0303C0
0F0303C0
3C0300F0
3C0300F0
30030030
30030030
30030030
30030030
30030030
30030030
3C0300F0
3C0300F0
0F0303C0
0F0303C0
00FFFC00
00FFFC00
00030000
00030000
003FF000
003FF000
00000000
00000000
00000000
00000000
ENDCHAR
STARTCHAR 2636
ENCODING 9782
SWIDTH 192 0
DWIDTH 32 0
BBX 32 32 0 -4
BITMAP
00000000
00000000
3FF03FF0
3FF03FF0
03000300
03000300
03C00F00
03C00F00
00F03C00
00F03C00
003CF000
003CF000
000FC000
000FC000
00030000
00030000
000FC000
000FC000
003CF000
003CF000
00F03C00
00F03C00
03C00F00
03C00F00
03000300
03000300
3FC03FF0
3FC03FF0
00000000
00000000
00000000
00000000
ENDCHAR
STARTCHAR 2637
ENCODING 9783
SWIDTH 192 0
DWIDTH 32 0
BBX 32 32 0 -4
BITMAP
00000000
00000000
003FF000
003FF000
3C0300F0
3C0300F0
C303030C
C303030C
03030300
03030300
03030300
03030300
03030300
03030300
03030300
03030300
03C30F00
03C30F00
00C30C00
00C30C00
003FF000
003FF000
00030000
00030000
00030000
00030000
003FF000
003FF000
00000000
00000000
00000000
00000000
ENDCHAR
STARTCHAR 2638
ENCODING 9784
SWIDTH 192 0
DWIDTH 32 0
BBX 32 32 0 -4
BITMAP
00000000
00000000
000FF000
000FF000
00F00F00
00F00F00
03C003C0
03C003C0
030000C0
030000C0
0C000030
0C000030
0C000030
0C000030
0C000030
0C000030
030000C0
030000C0
03C003C0
03C003C0
00F00F00
00F00F00
0C0C3030
0C0C3030
0C0C3030
0C0C3030
0FFC3FF0
0FFC3FF0
00000000
00000000
00000000
00000000
ENDCHAR
STARTCHAR 2641
ENCODING 9793
SWIDTH 192 0
DWIDTH 32 0
BBX 32 32 0 -4
BITMAP
00000000
00000000
00000000
00000000
00000000
00000000
00000000
00000000
00000000
00000000
00000000
00000000
000FC0C0
000FC0C0
003030C0
003030C0
00C03300
00C03300
00C03C00
00C03C00
03003000
03003000
0300F000
0300F000
030330C0
030330C0
00FC0F00
00FC0F00
00000000
00000000
00000000
00000000
ENDCHAR
STARTCHAR 2642
ENCODING 9794
SWIDTH 192 0
DWIDTH 32 0
BBX 32 32 0 -4
BITMAP
00000000
00000000
0000FF00
0000FF00
0003C0C0
0003C0C0
000F00C0
000F00C0
000C00C0
000C00C0
003C00C0
003C00C0
00300300
00300300
0030FC00
0030FC00
00F00F00
00F00F00
00C00300
00C00300
00C00300
00C00300
00C00300
00C00300
03CC0F00
03CC0F00
0303FC00
0303FC00
03000000
03000000
0F000000
0F000000
ENDCHAR
STARTCHAR 2643
ENCODING 9795
SWIDTH 192 0
DWIDTH 32 0
BBX 32 32 0 -4
BITMAP
00000000
00000000
00000000
00000000
00000000
00000000
00000000
00000000
00000000
00000000
00000000
00000000
00FC03C0
00FC03C0
03C30F00
03C30F00
0F033C00
0F033C00
0003F000
0003F000
0003C000
0003C000
00030000
00030000
000F0000
000F0000
000C0000
000C0000
003C0000
003C0000
00300000
00300000
ENDCHAR
STARTCHAR 2644
ENCODING 9796
SWIDTH 192 0
DWIDTH 32 0
BBX 32 32 0 -4
BITMAP
00000000
00000000
000FF000
000FF000
00303F00
00303F00
000C03C0
000C03C0
000300C0
000300C0
0000C000
0000C000
000F3000
000F3000
00300C00
00300C00
00C00C00
00C00C00
03000C00
03000C00
03003C00
03003C00
03003000
03003000
00C0C000
00C0C000
003F0000
003F0000
00000000
00000000
00000000
00000000
ENDCHAR
STARTCHAR 2645
ENCODING 9797
SWIDTH 192 0
DWIDTH 32 0
BBX 32 32 0 -4
BITMAP
00000000
00000000
00000000
00000000
00000000
00000000
00000000
00000000
00000000
00000000
00000000
00000000
000FFC00
000FFC00
00300300
00300300
00300000
00300000
000FF000
000FF000
00300000
00300000
00C00000
00C00000
00C00C00
00C00C00
003FF000
003FF000
00000000
00000000
00000000
00000000
ENDCHAR
STARTCHAR 2646
ENCODING 9798
SWIDTH 192 0
DWIDTH 32 0
BBX 32 32 0 -4
BITMAP
000C0000
000C0000
003003C0
003003C0
00300F00
00300F00
000FFC00
000FFC00
0000F000
0000F000
0003C000
0003C000
000F0000
000F0000
003C0000
003C0000
00F00000
00F00000
00C00000
00C00000
00F00000
00F00000
003F0000
003F0000
0003C000
0003C000
00003000
00003000
00003000
00003000
000FC000
000FC000
ENDCHAR
STARTCHAR 2647
ENCODING 9799
SWIDTH 192 0
DWIDTH 32 0
BBX 32 32 0 -4
BITMAP
00000000
00000000
00000000
00000000
00000000
00000000
00000000
00000000
00000000
00000000
00000000
00000000
00FCFF00
00FCFF00
030F03C0
030F03C0
000C00C0
000C00C0
003C00C0
003C00C0
003003C0
003003C0
00300300
00300300
00F00300
00F00300
00C00F00
00C00F00
00000C00
00000C00
00003C00
00003C00
ENDCHAR
STARTCHAR 2648
ENCODING 9800
SWIDTH 192 0
DWIDTH 32 0
BBX 32 32 0 -4
BITMAP
00000000
00000000
0000FC00
0000FC00
000F0300
000F0300
003C00C0
003C00C0
00F000C0
00F000C0
00C000C0
00C000C0
03FFFFC0
03FFFFC0
030000C0
030000C0
030003C0
030003C0
03000300
03000300
03000F00
03000F00
03003C00
03003C00
00C0F000
00C0F000
003F0000
003F0000
00000000
00000000
00000000
00000000
ENDCHAR
STARTCHAR 2649
ENCODING 9801
SWIDTH 192 0
DWIDTH 32 0
BBX 32 32 0 -4
BITMAP
00000000
00000000
00000000
00000000
00000000
00000000
00000000
00000000
00000000
00000000
00000000
00000000
000C0000
000C0000
000C0000
000C0000
003C0000
003C0000
00300000
00300000
00F00000
00F00000
00C00300
00C00300
00C0FC00
00C0FC00
003FC000
003FC000
00000000
00000000
00000000
00000000
ENDCHAR
STARTCHAR 264a
ENCODING 9802
SWIDTH 192 0
DWIDTH 32 0
BBX 32 32 0 -4
BITMAP
00000000
00000000
00000000
00000000
00000000
00000000
00000000
00000000
00000000
00000000
00000000
00000000
00300FC0
00300FC0
003030C0
003030C0
0033C000
0033C000
00FC0000
00FC0000
00C30000
00C30000
03C30000
03C30000
03030300
03030300
0F00FC00
0F00FC00
00000000
00000000
00000000
00000000
ENDCHAR
STARTCHAR 264b
ENCODING 9803
SWIDTH 192 0
DWIDTH 32 0
BBX 32 32 0 -4
BITMAP
00000000
00000000
0003C000
0003C000
0000F000
0000F000
00003000
00003000
00003000
00003000
00003000
00003000
00003000
00003000
0000F000
0000F000
00033000
00033000
000C3000
000C3000
003C3C00
003C3C00
00300C00
00300C00
00F00F00
00F00F00
03C003C0
03C003C0
00000000
00000000
00000000
00000000
ENDCHAR
STARTCHAR 264c
ENCODING 9804
SWIDTH 192 0
DWIDTH 32 0
BBX 32 32 0 -4
BITMAP
00000000
00000000
00000000
00000000
00000000
00000000
00000000
00000000
00000000
00000000
00000000
00000000
00300C00
00300C00
00300C00
00300C00
00F03C00
00F03C00
00C03000
00C03000
00C03000
00C03000
00C03000
00C03000
03F0F0C0
03F0F0C0
033F0F00
033F0F00
03000000
03000000
0F000000
0F000000
ENDCHAR
STARTCHAR 264d
ENCODING 9805
SWIDTH 192 0
DWIDTH 32 0
BBX 32 32 0 -4
BITMAP
00000000
00000000
00000000
00000000
00000000
00000000
00000000
00000000
00000000
00000000
00000000
00000000
03C000C0
03C000C0
003000C0
003000C0
00300300
00300300
00300F00
00300F00
00F03C00
00F03C00
00C0F000
00C0F000
00CFC000
00CFC000
03FC0000
03FC0000
00000000
00000000
00000000
00000000
ENDCHAR
STARTCHAR 264e
ENCODING 9806
SWIDTH 192 0
DWIDTH 32 0
BBX 32 32 0 -4
BITMAP
00000000
00000000
0000FF00
0000FF00
00030000
00030000
0000C000
0000C000
000FFF00
000FFF00
00300000
00300000
00300000
00300000
000C0000
000C0000
00FFFF00
00FFFF00
03000000
03000000
03000000
03000000
00FC0000
00FC0000
0003F000
0003F000
00000C00
00000C00
00000C00
00000C00
00FFF000
00FFF000
ENDCHAR
STARTCHAR 264f
ENCODING 9807
SWIDTH 192 0
DWIDTH 32 0
BBX 32 32 0 -4
BITMAP
00000000
00000000
00000000
00000000
00000000
00000000
00000000
00000000
00000000
00000000
00000000
00000000
0003F000
0003F000
003C0C00
003C0C00
00F00300
00F00300
00C00300
00C00300
00C00300
00C00300
00C00F00
00C00F00
00303C00
00303C00
000FC000
000FC000
00000000
00000000
00000000
00000000
ENDCHAR
STARTCHAR 2650
ENCODING 9808
SWIDTH 192 0
DWIDTH 32 0
BBX 32 32 0 -4
BITMAP
00000000
00000000
00000000
00000000
00000000
00000000
00000000
00000000
00000000
00000000
000000C0
000000C0
00FFFF00
00FFFF00
030C3000
030C3000
000C3000
000C3000
000C3000
000C3000
0030C000
0030C000
0030C000
0030C000
00F0C300
00F0C300
03C03C00
03C03C00
00000000
00000000
00000000
00000000
ENDCHAR
STARTCHAR 2651
ENCODING 9809
SWIDTH 192 0
DWIDTH 32 0
BBX 32 32 0 -4
BITMAP
00000000
00000000
00000000
00000000
00000000
00000000
00000000
00000000
00000000
00000000
00000000
00000000
0003F000
0003F000
000C0C00
000C0C00
00300300
00300300
00300300
00300300
00F00300
00F00300
00C00300
00C00300
00CC0C00
00CC0C00
03C3F000
03C3F000
03000000
03000000
03000000
03000000
ENDCHAR
STARTCHAR 2652
ENCODING 9810
SWIDTH 192 0
DWIDTH 32 0
BBX 32 32 0 -4
BITMAP
00000000
00000000
00000000
00000000
00000000
00000000
00000000
00000000
00000000
00000000
000000C0
000000C0
0003FFC0
0003FFC0
003C0C00
003C0C00
00F00300
00F00300
00C00300
00C00300
00C00300
00C00300
00C00F00
00C00F00
00303C00
00303C00
000FC000
000FC000
00000000
00000000
00000000
00000000
ENDCHAR
STARTCHAR 2653
ENCODING 9811
SWIDTH 192 0
DWIDTH 32 0
BBX 32 32 0 -4
BITMAP
00000000
00000000
00000000
00000000
00000000
00000000
00000000
00000000
00000000
00000000
000000C0
000000C0
00FFFF00
00FFFF00
03030000
03030000
000F0000
000F0000
000C0000
000C0000
003C0000
003C0000
00300C00
00300C00
00303000
00303000
000FC000
000FC000
00000000
00000000
00000000
00000000
ENDCHAR
STARTCHAR 2654
ENCODING 9812
SWIDTH 192 0
DWIDTH 32 0
BBX 32 32 0 -4
BITMAP
00000000
00000000
00000000
00000000
00000000
00000000
00000000
00000000
00000000
00000000
00000000
00000000
00300F00
00300F00
00300300
00300300
00300300
00300300
00F00F00
00F00F00
00C00C00
00C00C00
00C03C00
00C03C00
00C0F000
00C0F000
003F0000
003F0000
00000000
00000000
00000000
00000000
ENDCHAR
STARTCHAR 2655
ENCODING 9813
SWIDTH 192 0
DWIDTH 32 0
BBX 32 32 0 -4
BITMAP
00000000
00000000
00000C00
00000C00
00000C00
00000C00
00003C00
00003C00
00003000
00003000
00003000
00003000
000FFC00
000FFC00
00F0C300
00F0C300
0300C0C0
0300C0C0
0303C0C0
0303C0C0
030300C0
030300C0
00C30F00
00C30F00
003FF000
003FF000
000C0000
000C0000
000C0000
000C0000
003C0000
003C0000
ENDCHAR
STARTCHAR 2656
ENCODING 9814
SWIDTH 192 0
DWIDTH 32 0
BBX 32 32 0 -4
BITMAP
00000000
00000000
00000000
00000000
00000000
00000000
00000000
00000000
00000000
00000000
00000000
00000000
003C03C0
003C03C0
00C30F00
00C30F00
00033C00
00033C00
0003F000
0003F000
0003C000
0003C000
000F0000
000F0000
003F0000
003F0000
00F30000
00F30000
03C0C300
03C0C300
0F003C00
0F003C00
ENDCHAR
STARTCHAR 2657
ENCODING 9815
SWIDTH 192 0
DWIDTH 32 0
BBX 32 32 0 -4
BITMAP
00000000
00000000
00000C00
00000C00
00000C00
00000C00
00003C00
00003C00
00003000
00003000
00003000
00003000
00F0F0C0
00F0F0C0
0330C0C0
0330C0C0
0030C0C0
0030C0C0
00F3C3C0
00F3C3C0
00C30300
00C30300
00C30C00
00C30C00
003FF000
003FF000
000C0000
000C0000
000C0000
000C0000
003C0000
003C0000
ENDCHAR
STARTCHAR 2658
ENCODING 9816
SWIDTH 192 0
DWIDTH 32 0
BBX 32 32 0 -4
BITMAP
00000000
00000000
00000000
00000000
00000000
00000000
00000000
00000000
00000000
00000000
00000000
00000000
003000C0
003000C0
00C0C030
00C0C030
0300C030
0300C030
0303C030
0303C030
0C030030
0C030030
0C030030
0C030030
0C0FC0C0
0C0FC0C0
03F0FF00
03F0FF00
00000000
00000000
00000000
00000000
ENDCHAR
STARTCHAR 2721
ENCODING 10017
SWIDTH 192 0
DWIDTH 32 0
BBX 32 32 0 -4
BITMAP
00000000
00000000
00030000
00030000
003F0000
003F0000
000FC000
000FC000
000CC000
000CC000
003CF000
003CF000
00303000
00303000
00F03C00
00F03C00
00C00C00
00C00C00
03FFFF00
03FFFF00
03000300
03000300
0F0003C0
0F0003C0
0C0000C0
0C0000C0
FFC00FFC
FFC00FFC
00000000
00000000
00000000
00000000
ENDCHAR
STARTCHAR 2722
ENCODING 10018
SWIDTH 192 0
DWIDTH 32 0
BBX 32 32 0 -4
BITMAP
00000000
00000000
0FFFFFC0
0FFFFFC0
00C000C0
00C000C0
00C000C0
00C000C0
00C00000
00C00000
00C00000
00C00000
00C00000
00C00000
00FFFF00
00FFFF00
00C000C0
00C000C0
00C00030
00C00030
00C00030
00C00030
00C00030
00C00030
00C000C0
00C000C0
0FFFFF00
0FFFFF00
00000000
00000000
00000000
00000000
ENDCHAR
STARTCHAR 2723
ENCODING 10019
SWIDTH 192 0
DWIDTH 32 0
BBX 32 32 0 -4
BITMAP
00000000
00000000
0FFFFC00
0FFFFC00
00C00300
00C00300
00C000C0
00C000C0
00C000C0
00C000C0
00C000C0
00C000C0
00C00300
00C00300
00FFFC00
00FFFC00
00C003C0
00C003C0
00C00030
00C00030
00C00030
00C00030
00C00030
00C00030
00C000C0
00C000C0
0FFFFF00
0FFFFF00
00000000
00000000
00000000
00000000
ENDCHAR
STARTCHAR 2724
ENCODING 10020
SWIDTH 192 0
DWIDTH 32 0
BBX 32 32 0 -4
BITMAP
00000000
00000000
03FFFFC0
03FFFFC0
003000C0
003000C0
00300030
00300030
00300000
00300000
00300000
00300000
00300000
00300000
00300000
00300000
00300000
00300000
00300000
00300000
00300000
00300000
00300000
00300000
00300000
00300000
03FF0000
03FF0000
00000000
00000000
00000000
00000000
ENDCHAR
STARTCHAR 2725
ENCODING 10021
SWIDTH 192 0
DWIDTH 32 0
BBX 32 32 0 -4
BITMAP
00000000
00000000
00FFFFF0
00FFFFF0
000C0300
000C0300
000C0300
000C0300
000C0300
000C0300
000C0300
000C0300
000C0300
000C0300
000C0300
000C0300
000C0300
000C0300
000C0300
000C0300
00300300
00300300
00300300
00300300
00C00300
00C00300
0FFFFFF0
0FFFFFF0
0C000030
0C000030
0C000030
0C000030
ENDCHAR
STARTCHAR 2726
ENCODING 10022
SWIDTH 192 0
DWIDTH 32 0
BBX 32 32 0 -4
BITMAP
00000000
00000000
0FFFFFC0
0FFFFFC0
00C000C0
00C000C0
00C00030
00C00030
00C03000
00C03000
00C03000
00C03000
00FFF000
00FFF000
00C03000
00C03000
00C03000
00C03000
00C00000
00C00000
00C00000
00C00000
00C00030
00C00030
00C000C0
00C000C0
0FFFFFC0
0FFFFFC0
00000000
00000000
00000000
00000000
ENDCHAR
STARTCHAR 2727
ENCODING 10023
SWIDTH 192 0
DWIDTH 32 0
BBX 32 32 0 -4
BITMAP
00F00F00
00F00F00
00F00F00
00F00F00
00000000
00000000
0FFFFFC0
0FFFFFC0
00C000C0
00C000C0
00C000C0
00C000C0
00C03000
00C03000
00C03000
00C03000
00FFF000
00FFF000
00C03000
00C03000
00C03000
00C03000
00C000C0
00C000C0
00C000C0
00C000C0
0FFFFFC0
0FFFFFC0
00000000
00000000
00000000
00000000
ENDCHAR
STARTCHAR 2728
ENCODING 10024
SWIDTH 192 0
DWIDTH 32 0
BBX 32 32 0 -4
BITMAP
00000000
00000000
3C3FF0F0
3C3FF0F0
C303030C
C303030C
03030300
03030300
03030300
03030300
03030300
03030300
00C30C00
00C30C00
03FFFF00
03FFFF00
03030300
03030300
0F0303C0
0F0303C0
0C0300C0
0C0300C0
3C0300F0
3C0300F0
30030030
30030030
FC3FF0FC
FC3FF0FC
00000000
00000000
00000000
00000000
ENDCHAR
STARTCHAR 2729
ENCODING 10025
SWIDTH 192 0
DWIDTH 32 0
BBX 32 32 0 -4
BITMAP
00000000
00000000
003FF000
003FF000
03F00F00
03F00F00
030003C0
030003C0
000000C0
000000C0
000000C0
000000C0
00000300
00000300
000FFC00
000FFC00
00000300
00000300
000000C0
000000C0
000000C0
000000C0
030003C0
030003C0
03F00F00
03F00F00
003FF000
003FF000
00000000
00000000
00000000
00000000
ENDCHAR
STARTCHAR 272a
ENCODING 10026
SWIDTH 192 0
DWIDTH 32 0
BBX 32 32 0 -4
BITMAP
00000000
00000000
3FF00FFC
3FF00FFC
030000C0
030000C0
030003C0
030003C0
03000FC0
03000FC0
03003CC0
03003CC0
0300F0C0
0300F0C0
0303C0C0
0303C0C0
030F00C0
030F00C0
033C00C0
033C00C0
03F000C0
03F000C0
03C000C0
03C000C0
030000C0
030000C0
3FF00FFC
3FF00FFC
00000000
00000000
00000000
00000000
ENDCHAR
STARTCHAR 272b
ENCODING 10027
SWIDTH 192 0
DWIDTH 32 0
BBX 32 32 0 -4
BITMAP
003C3C00
003C3C00
00300C00
00300C00
000FF000
000FF000
3FF00FFC
3FF00FFC
030000C0
030000C0
03000FC0
03000FC0
03003CC0
03003CC0
0300F0C0
0300F0C0
0303C0C0
0303C0C0
030F00C0
030F00C0
033C00C0
033C00C0
03F000C0
03F000C0
030000C0
030000C0
3FF00FFC
3FF00FFC
00000000
00000000
00000000
00000000
ENDCHAR
STARTCHAR 272c
ENCODING 10028
SWIDTH 192 0
DWIDTH 32 0
BBX 32 32 0 -4
BITMAP
00000000
00000000
0FFC0FF0
0FFC0FF0
00C03C30
00C03C30
00C03000
00C03000
00C0F000
00C0F000
00C0C000
00C0C000
00C3C000
00C3C000
00FF0000
00FF0000
00C3C000
00C3C000
00C0F000
00C0F000
00C03C00
00C03C00
00C00F00
00C00F00
00C003C0
00C003C0
0FFC0FFC
0FFC0FFC
00000000
00000000
00000000
00000000
ENDCHAR
STARTCHAR 272d
ENCODING 10029
SWIDTH 192 0
DWIDTH 32 0
BBX 32 32 0 -4
BITMAP
00000000
00000000
00FFFFF0
00FFFFF0
000C0300
000C0300
000C0300
000C0300
000C0300
000C0300
000C0300
000C0300
000C0300
000C0300
000C0300
000C0300
000C0300
000C0300
003C0300
003C0300
00300300
00300300
00F00300
00F00300
33C00300
33C00300
3F003FF0
3F003FF0
00000000
00000000
00000000
00000000
ENDCHAR
STARTCHAR 272e
ENCODING 10030
SWIDTH 192 0
DWIDTH 32 0
BBX 32 32 0 -4
BITMAP
00000000
00000000
3FC00FF0
3FC00FF0
03C00F00
03C00F00
03F03F00
03F03F00
03303300
03303300
03303300
03303300
033CF300
033CF300
030CC300
030CC300
0F0CC3C0
0F0CC3C0
0C0FC0C0
0C0FC0C0
0C0300C0
0C0300C0
0C0300C0
0C0300C0
0C0000C0
0C0000C0
FFC00FFC
FFC00FFC
00000000
00000000
00000000
00000000
ENDCHAR
STARTCHAR 272f
ENCODING 10031
SWIDTH 192 0
DWIDTH 32 0
BBX 32 32 0 -4
BITMAP
00000000
00000000
3FF00FFC
3FF00FFC
030000C0
030000C0
030000C0
030000C0
030000C0
030000C0
030000C0
030000C0
03FFFFC0
03FFFFC0
030000C0
030000C0
030000C0
030000C0
030000C0
030000C0
030000C0
030000C0
030000C0
030000C0
030000C0
030000C0
3FF00FFC
3FF00FFC
00000000
00000000
00000000
00000000
ENDCHAR
STARTCHAR 2730
ENCODING 10032
SWIDTH 192 0
DWIDTH 32 0
BBX 32 32 0 -4
BITMAP
00000000
00000000
000FF000
000FF000
00F00F00
00F00F00
03C003C0
03C003C0
030000C0
030000C0
0F0000F0
0F0000F0
0C000030
0C000030
0C000030
0C000030
0C000030
0C000030
0F0000F0
0F0000F0
030000C0
030000C0
03C003C0
03C003C0
00F00F00
00F00F00
000FF000
000FF000
00000000
00000000
00000000
00000000
ENDCHAR
STARTCHAR 2731
ENCODING 10033
SWIDTH 192 0
DWIDTH 32 0
BBX 32 32 0 -4
BITMAP
00000000
00000000
3FFFFFFC
3FFFFFFC
030000C0
030000C0
030000C0
030000C0
030000C0
030000C0
030000C0
030000C0
030000C0
030000C0
030000C0
030000C0
030000C0
030000C0
030000C0
030000C0
030000C0
030000C0
030000C0
030000C0
030000C0
030000C0
3FF00FFC
3FF00FFC
00000000
00000000
00000000
00000000
ENDCHAR
STARTCHAR 2732
ENCODING 10034
SWIDTH 192 0
DWIDTH 32 0
BBX 32 32 0 -4
BITMAP
00000000
00000000
03FFFF00
03FFFF00
003000C0
003000C0
00300030
00300030
00300030
00300030
00300030
00300030
003000C0
003000C0
003FFF00
003FFF00
00300000
00300000
00300000
00300000
00300000
00300000
00300000
00300000
00300000
00300000
03FF0000
03FF0000
00000000
00000000
00000000
00000000
ENDCHAR
STARTCHAR 2733
ENCODING 10035
SWIDTH 192 0
DWIDTH 32 0
BBX 32 32 0 -4
BITMAP
00000000
00000000
000FFC00
000FFC00
00F00FC0
00F00FC0
03C000C0
03C000C0
030000C0
030000C0
0F000000
0F000000
0C000000
0C000000
0C000000
0C000000
0C000000
0C000000
0F000000
0F000000
030000C0
030000C0
03C000C0
03C000C0
00F00FC0
00F00FC0
000FFC00
000FFC00
00000000
00000000
00000000
00000000
ENDCHAR
STARTCHAR 2734
ENCODING 10036
SWIDTH 192 0
DWIDTH 32 0
BBX 32 32 0 -4
BITMAP
00000000
00000000
3FFFFFF0
3FFFFFF0
30030030
30030030
30030030
30030030
00030000
00030000
00030000
00030000
00030000
00030000
00030000
00030000
00030000
00030000
00030000
00030000
00030000
00030000
00030000
00030000
00030000
00030000
003FF000
003FF000
00000000
00000000
00000000
00000000
ENDCHAR
STARTCHAR 2735
ENCODING 10037
SWIDTH 192 0
DWIDTH 32 0
BBX 32 32 0 -4
BITMAP
00000000
00000000
0FFC0FFC
0FFC0FFC
00C000C0
00C000C0
00F003C0
00F003C0
00300300
00300300
003C0F00
003C0F00
000C0C00
000C0C00
000F3C00
000F3C00
00033000
00033000
0003F000
0003F000
0000C000
0000C000
0003C000
0003C000
030F0000
030F0000
03FC0000
03FC0000
00000000
00000000
00000000
00000000
ENDCHAR
STARTCHAR 2736
ENCODING 10038
SWIDTH 192 0
DWIDTH 32 0
BBX 32 32 0 -4
BITMAP
00000000
00000000
003FF000
003FF000
00030000
00030000
00FFFC00
00FFFC00
0F0303C0
0F0303C0
3C0300F0
3C0300F0
30030030
30030030
30030030
30030030
30030030
30030030
3C0300F0
3C0300F0
0F0303C0
0F0303C0
00FFFC00
00FFFC00
00030000
00030000
003FF000
003FF000
00000000
00000000
00000000
00000000
ENDCHAR
STARTCHAR 2737
ENCODING 10039
SWIDTH 192 0
DWIDTH 32 0
BBX 32 32 0 -4
BITMAP
00000000
00000000
3FF03FF0
3FF03FF0
03000300
03000300
03C00F00
03C00F00
00F03C00
00F03C00
003CF000
003CF000
000FC000
000FC000
00030000
00030000
000FC000
000FC000
003CF000
003CF000
00F03C00
00F03C00
03C00F00
03C00F00
03000300
03000300
3FC03FF0
3FC03FF0
00000000
00000000
00000000
00000000
ENDCHAR
STARTCHAR 2738
ENCODING 10040
SWIDTH 192 0
DWIDTH 32 0
BBX 32 32 0 -4
BITMAP
00000000
00000000
3FF03FF0
3FF03FF0
03000300
03000300
03000300
03000300
03000300
03000300
03000300
03000300
03000300
03000300
03000300
03000300
03000300
03000300
03000300
03000300
03000300
03000300
03000300
03000300
03000300
03000300
3FFFFFFC
3FFFFFFC
0000000C
0000000C
0000000C
0000000C
ENDCHAR
STARTCHAR 2739
ENCODING 10041
SWIDTH 192 0
DWIDTH 32 0
BBX 32 32 0 -4
BITMAP
00000000
00000000
3FF03FF0
3FF03FF0
03000300
03000300
03000300
03000300
03000300
03000300
03000300
03000300
03000300
03000300
03C00F00
03C00F00
00FFF300
00FFF300
00000300
00000300
00000300
00000300
00000300
00000300
00000300
00000300
00003FF0
00003FF0
00000000
00000000
00000000
00000000
ENDCHAR
STARTCHAR 273a
ENCODING 10042
SWIDTH 192 0
DWIDTH 32 0
BBX 32 32 0 -4
BITMAP
00000000
00000000
FF3FF3FC
FF3FF3FC
0C0300C0
0C0300C0
0C0300C0
0C0300C0
0C0300C0
0C0300C0
0C0300C0
0C0300C0
0C0300C0
0C0300C0
0C0300C0
0C0300C0
0C0300C0
0C0300C0
0C0300C0
0C0300C0
0C0300C0
0C0300C0
0C0300C0
0C0300C0
0C0300C0
0C0300C0
FFFFFFFC
FFFFFFFC
00000000
00000000
00000000
00000000
ENDCHAR
STARTCHAR 273b
ENCODING 10043
SWIDTH 192 0
DWIDTH 32 0
BBX 32 32 0 -4
BITMAP
00000000
00000000
FF3FF3FC
FF3FF3FC
0C0300C0
0C0300C0
0C0300C0
0C0300C0
0C0300C0
0C0300C0
0C0300C0
0C0300C0
0C0300C0
0C0300C0
0C0300C0
0C0300C0
0C0300C0
0C0300C0
0C0300C0
0C0300C0
0C0300C0
0C0300C0
0C0300C0
0C0300C0
0C0300C0
0C0300C0
FFFFFFFF
FFFFFFFF
00000003
00000003
00000003
00000003
ENDCHAR
STARTCHAR 273c
ENCODING 10044
SWIDTH 192 0
DWIDTH 32 0
BBX 32 32 0 -4
BITMAP
00000000
00000000
3FFFC000
3FFFC000
300C0000
300C0000
300C0000
300C0000
000C0000
000C0000
000C0000
000C0000
000FFFC0
000FFFC0
000C0030
000C0030
000C000C
000C000C
000C000C
000C000C
000C000C
000C000C
000C000C
000C000C
000C0030
000C0030
00FFFFC0
00FFFFC0
00000000
00000000
00000000
00000000
ENDCHAR
STARTCHAR 273d
ENCODING 10045
SWIDTH 192 0
DWIDTH 32 0
BBX 32 32 0 -4
BITMAP
00000000
00000000
FFC00FFC
FFC00FFC
0C0000C0
0C0000C0
0C0000C0
0C0000C0
0C0000C0
0C0000C0
0C0000C0
0C0000C0
0FFF00C0
0FFF00C0
0C00C0C0
0C00C0C0
0C0030C0
0C0030C0
0C0030C0
0C0030C0
0C0030C0
0C0030C0
0C0030C0
0C0030C0
0C00C0C0
0C00C0C0
FFFF0FFC
FFFF0FFC
00000000
00000000
00000000
00000000
ENDCHAR
STARTCHAR 273e
ENCODING 10046
SWIDTH 192 0
DWIDTH 32 0
BBX 32 32 0 -4
BITMAP
00000000
00000000
0FFC0000
0FFC0000
00C00000
00C00000
00C00000
00C00000
00C00000
00C00000
00C00000
00C00000
00FFFC00
00FFFC00
00C00300
00C00300
00C000C0
00C000C0
00C000C0
00C000C0
00C000C0
00C000C0
00C000C0
00C000C0
00C00300
00C00300
0FFFFC00
0FFFFC00
00000000
00000000
00000000
00000000
ENDCHAR
STARTCHAR 273f
ENCODING 10047
SWIDTH 192 0
DWIDTH 32 0
BBX 32 32 0 -4
BITMAP
00000000
00000000
003FF000
003FF000
03F00F00
03F00F00
030003C0
030003C0
030000C0
030000C0
000000F0
000000F0
003F0330
003F0330
00C0FC30
00C0FC30
00000030
00000030
000000F0
000000F0
030000C0
030000C0
030003C0
030003C0
03F00F00
03F00F00
003FF000
003FF000
00000000
00000000
00000000
00000000
ENDCHAR
STARTCHAR 2740
ENCODING 10048
SWIDTH 192 0
DWIDTH 32 0
BBX 32 32 0 -4
BITMAP
00000000
00000000
FFC03F00
FFC03F00
0C03C0F0
0C03C0F0
0C030030
0C030030
0C0F003C
0C0F003C
0C0C000C
0C0C000C
0C0C000C
0C0C000C
0FFC000C
0FFC000C
0C0C000C
0C0C000C
0C0C000C
0C0C000C
0C0F003C
0C0F003C
0C030030
0C030030
0C03C0F0
0C03C0F0
FFC03F00
FFC03F00
00000000
00000000
00000000
00000000
ENDCHAR
STARTCHAR 2741
ENCODING 10049
SWIDTH 192 0
DWIDTH 32 0
BBX 32 32 0 -4
BITMAP
00000000
00000000
00FFFFF0
00FFFFF0
03000300
03000300
0C000300
0C000300
0C000300
0C000300
0C000300
0C000300
03000300
03000300
00FFFF00
00FFFF00
000C0300
000C0300
003C0300
003C0300
00300300
00300300
00F00300
00F00300
03C00300
03C00300
3F003FF0
3F003FF0
00000000
00000000
00000000
00000000
ENDCHAR
STARTCHAR 2751
ENCODING 10065
SWIDTH 192 0
DWIDTH 32 0
BBX 32 32 0 -4
BITMAP
00000000
00000000
00000000
00000000
00000000
00000000
00000000
00000000
00000000
00000000
00000000
00000000
003FFC00
003FFC00
00000300
00000300
00000300
00000300
003FFF00
003FFF00
00C00300
00C00300
00C00300
00C00300
00C00F00
00C00F00
003FF3C0
003FF3C0
00000000
00000000
00000000
00000000
ENDCHAR
STARTCHAR 2752
ENCODING 10066
SWIDTH 192 0
DWIDTH 32 0
BBX 32 32 0 -4
BITMAP
00000000
00000000
00000300
00000300
000FFC00
000FFC00
003C0000
003C0000
00F00000
00F00000
00C00000
00C00000
00CFF000
00CFF000
00F00C00
00F00C00
00C00300
00C00300
00C00300
00C00300
00C00300
00C00300
00C00300
00C00300
00300C00
00300C00
000FF000
000FF000
00000000
00000000
00000000
00000000
ENDCHAR
STARTCHAR 2753
ENCODING 10067
SWIDTH 192 0
DWIDTH 32 0
BBX 32 32 0 -4
BITMAP
00000000
00000000
00000000
00000000
00000000
00000000
00000000
00000000
00000000
00000000
00000000
00000000
00FFFC00
00FFFC00
00300300
00300300
00300300
00300300
003FFC00
003FFC00
00300300
00300300
00300300
00300300
00300300
00300300
00FFFC00
00FFFC00
00000000
00000000
00000000
00000000
ENDCHAR
STARTCHAR 2754
ENCODING 10068
SWIDTH 192 0
DWIDTH 32 0
BBX 32 32 0 -4
BITMAP
00000000
00000000
00000000
00000000
00000000
00000000
00000000
00000000
00000000
00000000
00000000
00000000
00FFFF00
00FFFF00
00300300
00300300
00300300
00300300
00300000
00300000
00300000
00300000
00300000
00300000
00300000
00300000
00FC0000
00FC0000
00000000
00000000
00000000
00000000
ENDCHAR
STARTCHAR 2755
ENCODING 10069
SWIDTH 192 0
DWIDTH 32 0
BBX 32 32 0 -4
BITMAP
00000000
00000000
00000000
00000000
00000000
00000000
00000000
00000000
00000000
00000000
00000000
00000000
003FFF00
003FFF00
000C0C00
000C0C00
000C0C00
000C0C00
000C0C00
000C0C00
000C0C00
000C0C00
003C0C00
003C0C00
00300C00
00300C00
03FFFFC0
03FFFFC0
030000C0
030000C0
030000C0
030000C0
ENDCHAR
STARTCHAR 2756
ENCODING 10070
SWIDTH 192 0
DWIDTH 32 0
BBX 32 32 0 -4
BITMAP
00000000
00000000
00000000
00000000
00000000
00000000
00000000
00000000
00000000
00000000
00000000
00000000
000FF000
000FF000
00300C00
00300C00
00C00300
00C00300
00FFFF00
00FFFF00
00C00000
00C00000
00C00000
00C00000
00300300
00300300
000FFC00
000FFC00
00000000
00000000
00000000
00000000
ENDCHAR
STARTCHAR 2757
ENCODING 10071
SWIDTH 192 0
DWIDTH 32 0
BBX 32 32 0 -4
BITMAP
00000000
00000000
00000000
00000000
00000000
00000000
003C3C00
003C3C00
003C3C00
003C3C00
00000000
00000000
000FF000
000FF000
00300C00
00300C00
00C00300
00C00300
00FFFF00
00FFFF00
00C00000
00C00000
00C00000
00C00000
00300300
00300300
000FFC00
000FFC00
00000000
00000000
00000000
00000000
ENDCHAR
STARTCHAR 2758
ENCODING 10072
SWIDTH 192 0
DWIDTH 32 0
BBX 32 32 0 -4
BITMAP
00000000
00000000
00000000
00000000
00000000
00000000
00000000
00000000
00000000
00000000
00000000
00000000
0F0FC3C0
0F0FC3C0
03030300
03030300
00C30C00
00C30C00
003FF000
003FF000
00F33C00
00F33C00
00C30C00
00C30C00
03C30F00
03C30F00
0F0FC3C0
0F0FC3C0
00000000
00000000
00000000
00000000
ENDCHAR
STARTCHAR 2759
ENCODING 10073
SWIDTH 192 0
DWIDTH 32 0
BBX 32 32 0 -4
BITMAP
00000000
00000000
00000000
00000000
00000000
00000000
00000000
00000000
00000000
00000000
00000000
00000000
003FFC00
003FFC00
00300300
00300300
00000300
00000300
0003FC00
0003FC00
00000300
00000300
00000300
00000300
00300300
00300300
003FFC00
003FFC00
00000000
00000000
00000000
00000000
ENDCHAR
STARTCHAR 275a
ENCODING 10074
SWIDTH 192 0
DWIDTH 32 0
BBX 32 32 0 -4
BITMAP
00000000
00000000
00000000
00000000
00000000
00000000
00000000
00000000
00000000
00000000
00000000
00000000
03F00FC0
03F00FC0
00C00300
00C00300
00C00F00
00C00F00
00C0F300
00C0F300
00CF0300
00CF0300
00F00300
00F00300
00C00300
00C00300
03F00FC0
03F00FC0
00000000
00000000
00000000
00000000
ENDCHAR
STARTCHAR 275b
ENCODING 10075
SWIDTH 192 0
DWIDTH 32 0
BBX 32 32 0 -4
BITMAP
00000000
00000000
00000000
00000000
003C3C00
003C3C00
00300C00
00300C00
000FF000
000FF000
00000000
00000000
03F00FC0
03F00FC0
00C00300
00C00300
00C00F00
00C00F00
00C0F300
00C0F300
00CF0300
00CF0300
00F00300
00F00300
00C00300
00C00300
03F00FC0
03F00FC0
00000000
00000000
00000000
00000000
ENDCHAR
STARTCHAR 275c
ENCODING 10076
SWIDTH 192 0
DWIDTH 32 0
BBX 32 32 0 -4
BITMAP
00000000
00000000
00000000
00000000
00000000
00000000
00000000
00000000
00000000
00000000
00000000
00000000
00FC3F00
00FC3F00
0030C300
0030C300
00330000
00330000
003F0000
003F0000
0030C000
0030C000
00303000
00303000
00300C00
00300C00
00FC3FC0
00FC3FC0
00000000
00000000
00000000
00000000
ENDCHAR
STARTCHAR 275d
ENCODING 10077
SWIDTH 192 0
DWIDTH 32 0
BBX 32 32 0 -4
BITMAP
00000000
00000000
00000000
00000000
00000000
00000000
00000000
00000000
00000000
00000000
00000000
00000000
003FFF00
003FFF00
000C0C00
000C0C00
000C0C00
000C0C00
000C0C00
000C0C00
000C0C00
000C0C00
000C0C00
000C0C00
033C0C00
033C0C00
03F03F00
03F03F00
00000000
00000000
00000000
00000000
ENDCHAR
STARTCHAR 275e
ENCODING 10078
SWIDTH 192 0
DWIDTH 32 0
BBX 32 32 0 -4
BITMAP
00000000
00000000
00000000
00000000
00000000
00000000
00000000
00000000
00000000
00000000
00000000
00000000
0FC00FC0
0FC00FC0
03303300
03303300
03303300
03303300
030CC300
030CC300
030CC300
030CC300
03030300
03030300
03030300
03030300
0FC00FC0
0FC00FC0
00000000
00000000
00000000
00000000
ENDCHAR
STARTCHAR 275f
ENCODING 10079
SWIDTH 192 0
DWIDTH 32 0
BBX 32 32 0 -4
BITMAP
00000000
00000000
00000000
00000000
00000000
00000000
00000000
00000000
00000000
00000000
00000000
00000000
03F00FC0
03F00FC0
00C00300
00C00300
00C00300
00C00300
00FFFF00
00FFFF00
00C00300
00C00300
00C00300
00C00300
00C00300
00C00300
03F00FC0
03F00FC0
00000000
00000000
00000000
00000000
ENDCHAR
STARTCHAR 2760
ENCODING 10080
SWIDTH 192 0
DWIDTH 32 0
BBX 32 32 0 -4
BITMAP
00000000
00000000
00000000
00000000
00000000
00000000
00000000
00000000
00000000
00000000
00000000
00000000
000FF000
000FF000
00300C00
00300C00
00C00300
00C00300
00C00300
00C00300
00C00300
00C00300
00C00300
00C00300
00300C00
00300C00
000FF000
000FF000
00000000
00000000
00000000
00000000
ENDCHAR
STARTCHAR 2761
ENCODING 10081
SWIDTH 192 0
DWIDTH 32 0
BBX 32 32 0 -4
BITMAP
00000000
00000000
00000000
00000000
00000000
00000000
00000000
00000000
00000000
00000000
00000000
00000000
03FFFF00
03FFFF00
00C00C00
00C00C00
00C00C00
00C00C00
00C00C00
00C00C00
00C00C00
00C00C00
00C00C00
00C00C00
00C00C00
00C00C00
03F03F00
03F03F00
00000000
00000000
00000000
00000000
ENDCHAR
STARTCHAR 2762
ENCODING 10082
SWIDTH 192 0
DWIDTH 32 0
BBX 32 32 0 -4
BITMAP
00000000
00000000
00000000
00000000
00000000
00000000
00000000
00000000
00000000
00000000
00000000
00000000
00F3FC00
00F3FC00
003C0300
003C0300
003000C0
003000C0
003000C0
003000C0
003000C0
003000C0
003C0300
003C0300
0033FC00
0033FC00
00300000
00300000
00300000
00300000
00FC0000
00FC0000
ENDCHAR
STARTCHAR 2763
ENCODING 10083
SWIDTH 192 0
DWIDTH 32 0
BBX 32 32 0 -4
BITMAP
00000000
00000000
00000000
00000000
00000000
00000000
00000000
00000000
00000000
00000000
00000000
00000000
000FFC00
000FFC00
00300300
00300300
00C00000
00C00000
00C00000
00C00000
00C00000
00C00000
00C00000
00C00000
00300300
00300300
000FFC00
000FFC00
00000000
00000000
00000000
00000000
ENDCHAR
STARTCHAR 2764
ENCODING 10084
SWIDTH 192 0
DWIDTH 32 0
BBX 32 32 0 -4
BITMAP
00000000
00000000
00000000
00000000
00000000
00000000
00000000
00000000
00000000
00000000
00000000
00000000
03FFFF00
03FFFF00
03030300
03030300
00030000
00030000
00030000
00030000
00030000
00030000
00030000
00030000
00030000
00030000
000FC000
000FC000
00000000
00000000
00000000
00000000
ENDCHAR
STARTCHAR 2765
ENCODING 10085
SWIDTH 192 0
DWIDTH 32 0
BBX 32 32 0 -4
BITMAP
00000000
00000000
00000000
00000000
00000000
00000000
00000000
00000000
00000000
00000000
00000000
00000000
03F00FC0
03F00FC0
00C00300
00C00300
00F00F00
00F00F00
00300C00
00300C00
003C3C00
003C3C00
000C3000
000C3000
000CF000
000CF000
0003C000
0003C000
030F0000
030F0000
03FC0000
03FC0000
ENDCHAR
STARTCHAR 2766
ENCODING 10086
SWIDTH 192 0
DWIDTH 32 0
BBX 32 32 0 -4
BITMAP
00000000
00000000
000F0000
000F0000
00030000
00030000
00030000
00030000
00030000
00030000
00030000
00030000
00F33C00
00F33C00
030FC300
030FC300
0C0300C0
0C0300C0
0C0300C0
0C0300C0
0C0300C0
0C0300C0
0C0300C0
0C0300C0
030FC300
030FC300
00F33C00
00F33C00
00030000
00030000
000FC000
000FC000
ENDCHAR
STARTCHAR 2767
ENCODING 10087
SWIDTH 192 0
DWIDTH 32 0
BBX 32 32 0 -4
BITMAP
00000000
00000000
00000000
00000000
00000000
00000000
00000000
00000000
00000000
00000000
00000000
00000000
00FC3F00
00FC3F00
00300C00
00300C00
000C3000
000C3000
0003C000
0003C000
0003C000
0003C000
000C3000
000C3000
00300C00
00300C00
03FC3FC0
03FC3FC0
00000000
00000000
00000000
00000000
ENDCHAR
STARTCHAR 2768
ENCODING 10088
SWIDTH 192 0
DWIDTH 32 0
BBX 32 32 0 -4
BITMAP
00000000
00000000
00000000
00000000
00000000
00000000
00000000
00000000
00000000
00000000
00000000
00000000
03F03F00
03F03F00
00C00C00
00C00C00
00C00C00
00C00C00
00C00C00
00C00C00
00C00C00
00C00C00
00C00C00
00C00C00
00C00C00
00C00C00
03FFFFC0
03FFFFC0
000000C0
000000C0
000000C0
000000C0
ENDCHAR
STARTCHAR 2769
ENCODING 10089
SWIDTH 192 0
DWIDTH 32 0
BBX 32 32 0 -4
BITMAP
00000000
00000000
00000000
00000000
00000000
00000000
00000000
00000000
00000000
00000000
00000000
00000000
03F00FC0
03F00FC0
00C00300
00C00300
00C00300
00C00300
00C00300
00C00300
003FFF00
003FFF00
00000300
00000300
00000300
00000300
00000FC0
00000FC0
00000000
00000000
00000000
00000000
ENDCHAR
STARTCHAR 276a
ENCODING 10090
SWIDTH 192 0
DWIDTH 32 0
BBX 32 32 0 -4
BITMAP
00000000
00000000
00000000
00000000
00000000
00000000
00000000
00000000
00000000
00000000
00000000
00000000
3F0FC3F0
3F0FC3F0
0C0300C0
0C0300C0
0C0300C0
0C0300C0
0C0300C0
0C0300C0
0C0300C0
0C0300C0
0C0300C0
0C0300C0
0C0300C0
0C0300C0
3FFFFFF0
3FFFFFF0
00000000
00000000
00000000
00000000
ENDCHAR
STARTCHAR 276b
ENCODING 10091
SWIDTH 192 0
DWIDTH 32 0
BBX 32 32 0 -4
BITMAP
00000000
00000000
00000000
00000000
00000000
00000000
00000000
00000000
00000000
00000000
00000000
00000000
3F0FC3F0
3F0FC3F0
0C0300C0
0C0300C0
0C0300C0
0C0300C0
0C0300C0
0C0300C0
0C0300C0
0C0300C0
0C0300C0
0C0300C0
0C0300C0
0C0300C0
3FFFFFFC
3FFFFFFC
0000000C
0000000C
0000000C
0000000C
ENDCHAR
STARTCHAR 276c
ENCODING 10092
SWIDTH 192 0
DWIDTH 32 0
BBX 32 32 0 -4
BITMAP
00000000
00000000
00000000
00000000
00000000
00000000
00000000
00000000
00000000
00000000
00000000
00000000
0FFFC000
0FFFC000
0C030000
0C030000
0C030000
0C030000
0003FFC0
0003FFC0
00030030
00030030
00030030
00030030
00030030
00030030
000FFFC0
000FFFC0
00000000
00000000
00000000
00000000
ENDCHAR
STARTCHAR 276d
ENCODING 10093
SWIDTH 192 0
DWIDTH 32 0
BBX 32 32 0 -4
BITMAP
00000000
00000000
00000000
00000000
00000000
00000000
00000000
00000000
00000000
00000000
00000000
00000000
0FC003F0
0FC003F0
030000C0
030000C0
030000C0
030000C0
03FFC0C0
03FFC0C0
030030C0
030030C0
030030C0
030030C0
030030C0
030030C0
0FFFC3F0
0FFFC3F0
00000000
00000000
00000000
00000000
ENDCHAR
STARTCHAR 276e
ENCODING 10094
SWIDTH 192 0
DWIDTH 32 0
BBX 32 32 0 -4
BITMAP
00000000
00000000
00000000
00000000
00000000
00000000
00000000
00000000
00000000
00000000
00000000
00000000
00FC0000
00FC0000
00300000
00300000
00300000
00300000
003FFC00
003FFC00
00300300
00300300
00300300
00300300
00300300
00300300
00FFFC00
00FFFC00
00000000
00000000
00000000
00000000
ENDCHAR
STARTCHAR 276f
ENCODING 10095
SWIDTH 192 0
DWIDTH 32 0
BBX 32 32 0 -4
BITMAP
00000000
00000000
00000000
00000000
00000000
00000000
00000000
00000000
00000000
00000000
00000000
00000000
003FF000
003FF000
00C00C00
00C00C00
00000300
00000300
000F0F00
000F0F00
0030F300
0030F300
00000300
00000300
00C00C00
00C00C00
003FF000
003FF000
00000000
00000000
00000000
00000000
ENDCHAR
STARTCHAR 2770
ENCODING 10096
SWIDTH 192 0
DWIDTH 32 0
BBX 32 32 0 -4
BITMAP
00000000
00000000
00000000
00000000
00000000
00000000
00000000
00000000
00000000
00000000
00000000
00000000
03F03F00
03F03F00
00C0C0C0
00C0C0C0
00C30030
00C30030
00FF0030
00FF0030
00C30030
00C30030
00C30030
00C30030
00C0C0C0
00C0C0C0
03F03F00
03F03F00
00000000
00000000
00000000
00000000
ENDCHAR
STARTCHAR 2771
ENCODING 10097
SWIDTH 192 0
DWIDTH 32 0
BBX 32 32 0 -4
BITMAP
00000000
00000000
00000000
00000000
00000000
00000000
00000000
00000000
00000000
00000000
00000000
00000000
003FFF00
003FFF00
00C00C00
00C00C00
00C00C00
00C00C00
00C00C00
00C00C00
003FFC00
003FFC00
000C0C00
000C0C00
00300C00
00300C00
03F03F00
03F03F00
00000000
00000000
00000000
00000000
ENDCHAR
STARTCHAR 2821
ENCODING 10273
SWIDTH 192 0
DWIDTH 32 0
BBX 32 32 0 -4
BITMAP
00000000
00000000
00000000
00000000
00000000
00000000
00000000
00000000
00000000
00000000
00000000
00000000
00000000
00000000
FFFFFFFF
FFFFFFFF
00000000
00000000
00000000
00000000
00000000
00000000
00000000
00000000
00000000
00000000
00000000
00000000
00000000
00000000
00000000
00000000
ENDCHAR
STARTCHAR 2822
ENCODING 10274
SWIDTH 192 0
DWIDTH 32 0
BBX 32 32 0 -4
BITMAP
00030000
00030000
00030000
00030000
00030000
00030000
00030000
00030000
00030000
00030000
00030000
00030000
00030000
00030000
00030000
00030000
00030000
00030000
00030000
00030000
00030000
00030000
00030000
00030000
00030000
00030000
00030000
00030000
00030000
00030000
00030000
00030000
ENDCHAR
STARTCHAR 2823
ENCODING 10275
SWIDTH 192 0
DWIDTH 32 0
BBX 32 32 0 -4
BITMAP
00000000
00000000
00000000
00000000
00000000
00000000
00000000
00000000
00000000
00000000
00000000
00000000
00000000
00000000
0003FFFF
0003FFFF
00030000
00030000
00030000
00030000
00030000
00030000
00030000
00030000
00030000
00030000
00030000
00030000
00030000
00030000
00030000
00030000
ENDCHAR
STARTCHAR 2824
ENCODING 10276
SWIDTH 192 0
DWIDTH 32 0
BBX 32 32 0 -4
BITMAP
00000000
00000000
00000000
00000000
00000000
00000000
00000000
00000000
00000000
00000000
00000000
00000000
00000000
00000000
FFFF0000
FFFF0000
00030000
00030000
00030000
00030000
00030000
00030000
00030000
00030000
00030000
00030000
00030000
00030000
00030000
00030000
00030000
00030000
ENDCHAR
STARTCHAR 2825
ENCODING 10277
SWIDTH 192 0
DWIDTH 32 0
BBX 32 32 0 -4
BITMAP
00030000
00030000
00030000
00030000
00030000
00030000
00030000
00030000
00030000
00030000
00030000
00030000
00030000
00030000
FFFF0000
FFFF0000
00000000
00000000
00000000
00000000
00000000
00000000
00000000
00000000
00000000
00000000
00000000
00000000
00000000
00000000
00000000
00000000
ENDCHAR
STARTCHAR 2826
ENCODING 10278
SWIDTH 192 0
DWIDTH 32 0
BBX 32 32 0 -4
BITMAP
00030000
00030000
00030000
00030000
00030000
00030000
00030000
00030000
00030000
00030000
00030000
00030000
00030000
00030000
0003FFFF
0003FFFF
00000000
00000000
00000000
00000000
00000000
00000000
00000000
00000000
00000000
00000000
00000000
00000000
00000000
00000000
00000000
00000000
ENDCHAR
STARTCHAR 2827
ENCODING 10279
SWIDTH 192 0
DWIDTH 32 0
BBX 32 32 0 -4
BITMAP
00030000
00030000
00030000
00030000
00030000
00030000
00030000
00030000
00030000
00030000
00030000
00030000
00030000
00030000
0003FFFF
0003FFFF
00030000
00030000
00030000
00030000
00030000
00030000
00030000
00030000
00030000
00030000
00030000
00030000
00030000
00030000
00030000
00030000
ENDCHAR
STARTCHAR 2828
ENCODING 10280
SWIDTH 192 0
DWIDTH 32 0
BBX 32 32 0 -4
BITMAP
00000000
00000000
00000000
00000000
00000000
00000000
00000000
00000000
00000000
00000000
00000000
00000000
00000000
00000000
FFFFFFFF
FFFFFFFF
00030000
00030000
00030000
00030000
00030000
00030000
00030000
00030000
00030000
00030000
00030000
00030000
00030000
00030000
00030000
00030000
ENDCHAR
STARTCHAR 2829
ENCODING 10281
SWIDTH 192 0
DWIDTH 32 0
BBX 32 32 0 -4
BITMAP
00030000
00030000
00030000
00030000
00030000
00030000
00030000
00030000
00030000
00030000
00030000
00030000
00030000
00030000
FFFF0000
FFFF0000
00030000
00030000
00030000
00030000
00030000
00030000
00030000
00030000
00030000
00030000
00030000
00030000
00030000
00030000
00030000
00030000
ENDCHAR
STARTCHAR 282a
ENCODING 10282
SWIDTH 192 0
DWIDTH 32 0
BBX 32 32 0 -4
BITMAP
00030000
00030000
00030000
00030000
00030000
00030000
00030000
00030000
00030000
00030000
00030000
00030000
00030000
00030000
FFFFFFFF
FFFFFFFF
00000000
00000000
00000000
00000000
00000000
00000000
00000000
00000000
00000000
00000000
00000000
00000000
00000000
00000000
00000000
00000000
ENDCHAR
STARTCHAR 282b
ENCODING 10283
SWIDTH 192 0
DWIDTH 32 0
BBX 32 32 0 -4
BITMAP
00030000
00030000
00030000
00030000
00030000
00030000
00030000
00030000
00030000
00030000
00030000
00030000
00030000
00030000
FFFFFFFF
FFFFFFFF
00030000
00030000
00030000
00030000
00030000
00030000
00030000
00030000
00030000
00030000
00030000
00030000
00030000
00030000
00030000
00030000
ENDCHAR
STARTCHAR 282c
ENCODING 10284
SWIDTH 192 0
DWIDTH 32 0
BBX 32 32 0 -4
BITMAP
00000000
00000000
00000000
00000000
00000000
00000000
00000000
00000000
00000000
00000000
00000000
00000000
00000000
00000000
FFFFFFFF
FFFFFFFF
FFFFFFFF
FFFFFFFF
00000000
00000000
00000000
00000000
00000000
00000000
00000000
00000000
00000000
00000000
00000000
00000000
00000000
00000000
ENDCHAR
STARTCHAR 282d
ENCODING 10285
SWIDTH 192 0
DWIDTH 32 0
BBX 32 32 0 -4
BITMAP
0003C000
0003C000
0003C000
0003C000
0003C000
0003C000
0003C000
0003C000
0003C000
0003C000
0003C000
0003C000
0003C000
0003C000
0003C000
0003C000
0003C000
0003C000
0003C000
0003C000
0003C000
0003C000
0003C000
0003C000
0003C000
0003C000
0003C000
0003C000
0003C000
0003C000
0003C000
0003C000
ENDCHAR
STARTCHAR 282e
ENCODING 10286
SWIDTH 192 0
DWIDTH 32 0
BBX 32 32 0 -4
BITMAP
00000000
00000000
00000000
00000000
00000000
00000000
00000000
00000000
00000000
00000000
00000000
00000000
00000000
00000000
0003FFFF
0003FFFF
0003FFFF
0003FFFF
0003C000
0003C000
0003C000
0003C000
0003C000
0003C000
0003C000
0003C000
0003C000
0003C000
0003C000
0003C000
0003C000
0003C000
ENDCHAR
STARTCHAR 282f
ENCODING 10287
SWIDTH 192 0
DWIDTH 32 0
BBX 32 32 0 -4
BITMAP
00000000
00000000
00000000
00000000
00000000
00000000
00000000
00000000
00000000
00000000
00000000
00000000
00000000
00000000
FFFFC000
FFFFC000
FFFFC000
FFFFC000
0003C000
0003C000
0003C000
0003C000
0003C000
0003C000
0003C000
0003C000
0003C000
0003C000
0003C000
0003C000
0003C000
0003C000
ENDCHAR
STARTCHAR 2830
ENCODING 10288
SWIDTH 192 0
DWIDTH 32 0
BBX 32 32 0 -4
BITMAP
0003C000
0003C000
0003C000
0003C000
0003C000
0003C000
0003C000
0003C000
0003C000
0003C000
0003C000
0003C000
0003C000
0003C000
FFFFC000
FFFFC000
FFFFC000
FFFFC000
00000000
00000000
00000000
00000000
00000000
00000000
00000000
00000000
00000000
00000000
00000000
00000000
00000000
00000000
ENDCHAR
STARTCHAR 2831
ENCODING 10289
SWIDTH 192 0
DWIDTH 32 0
BBX 32 32 0 -4
BITMAP
0003C000
0003C000
0003C000
0003C000
0003C000
0003C000
0003C000
0003C000
0003C000
0003C000
0003C000
0003C000
0003C000
0003C000
0003FFFF
0003FFFF
0003FFFF
0003FFFF
00000000
00000000
00000000
00000000
00000000
00000000
00000000
00000000
00000000
00000000
00000000
00000000
00000000
00000000
ENDCHAR
STARTCHAR 2832
ENCODING 10290
SWIDTH 192 0
DWIDTH 32 0
BBX 32 32 0 -4
BITMAP
0003C000
0003C000
0003C000
0003C000
0003C000
0003C000
0003C000
0003C000
0003C000
0003C000
0003C000
0003C000
0003C000
0003C000
0003FFFF
0003FFFF
0003FFFF
0003FFFF
0003C000
0003C000
0003C000
0003C000
0003C000
0003C000
0003C000
0003C000
0003C000
0003C000
0003C000
0003C000
0003C000
0003C000
ENDCHAR
STARTCHAR 2833
ENCODING 10291
SWIDTH 192 0
DWIDTH 32 0
BBX 32 32 0 -4
BITMAP
00000000
00000000
00000000
00000000
00000000
00000000
00000000
00000000
00000000
00000000
00000000
00000000
00000000
00000000
FFFFFFFF
FFFFFFFF
FFFFFFFF
FFFFFFFF
0003C000
0003C000
0003C000
0003C000
0003C000
0003C000
0003C000
0003C000
0003C000
0003C000
0003C000
0003C000
0003C000
0003C000
ENDCHAR
STARTCHAR 2834
ENCODING 10292
SWIDTH 192 0
DWIDTH 32 0
BBX 32 32 0 -4
BITMAP
0003C000
0003C000
0003C000
0003C000
0003C000
0003C000
0003C000
0003C000
0003C000
0003C000
0003C000
0003C000
0003C000
0003C000
FFFFC000
FFFFC000
FFFFC000
FFFFC000
0003C000
0003C000
0003C000
0003C000
0003C000
0003C000
0003C000
0003C000
0003C000
0003C000
0003C000
0003C000
0003C000
0003C000
ENDCHAR
STARTCHAR 2835
ENCODING 10293
SWIDTH 192 0
DWIDTH 32 0
BBX 32 32 0 -4
BITMAP
0003C000
0003C000
0003C000
0003C000
0003C000
0003C000
0003C000
0003C000
0003C000
0003C000
0003C000
0003C000
0003C000
0003C000
FFFFFFFF
FFFFFFFF
FFFFFFFF
FFFFFFFF
00000000
00000000
00000000
00000000
00000000
00000000
00000000
00000000
00000000
00000000
00000000
00000000
00000000
00000000
ENDCHAR
STARTCHAR 2836
ENCODING 10294
SWIDTH 192 0
DWIDTH 32 0
BBX 32 32 0 -4
BITMAP
0003C000
0003C000
0003C000
0003C000
0003C000
0003C000
0003C000
0003C000
0003C000
0003C000
0003C000
0003C000
0003C000
0003C000
FFFFFFFF
FFFFFFFF
FFFFFFFF
FFFFFFFF
0003C000
0003C000
0003C000
0003C000
0003C000
0003C000
0003C000
0003C000
0003C000
0003C000
0003C000
0003C000
0003C000
0003C000
ENDCHAR
STARTCHAR 2837
ENCODING 10295
SWIDTH 192 0
DWIDTH 32 0
BBX 32 32 0 -4
BITMAP
0003C000
0003C000
0003C000
0003C000
0003C000
0003C000
0003C000
0003C000
0003C000
0003C000
0003C000
0003C000
0003C000
0003C000
0003FFFF
0003FFFF
0003C000
0003C000
0003C000
0003C000
0003C000
0003C000
0003C000
0003C000
0003C000
0003C000
0003C000
0003C000
0003C000
0003C000
0003C000
0003C000
ENDCHAR
STARTCHAR 2838
ENCODING 10296
SWIDTH 192 0
DWIDTH 32 0
BBX 32 32 0 -4
BITMAP
00000000
00000000
00000000
00000000
00000000
00000000
00000000
00000000
00000000
00000000
00000000
00000000
00000000
00000000
FFFFFFFF
FFFFFFFF
FFFFFFFF
FFFFFFFF
00030000
00030000
00030000
00030000
00030000
00030000
00030000
00030000
00030000
00030000
00030000
00030000
00030000
00030000
ENDCHAR
STARTCHAR 2839
ENCODING 10297
SWIDTH 192 0
DWIDTH 32 0
BBX 32 32 0 -4
BITMAP
0003C000
0003C000
0003C000
0003C000
0003C000
0003C000
0003C000
0003C000
0003C000
0003C000
0003C000
0003C000
0003C000
0003C000
FFFFC000
FFFFC000
0003C000
0003C000
0003C000
0003C000
0003C000
0003C000
0003C000
0003C000
0003C000
0003C000
0003C000
0003C000
0003C000
0003C000
0003C000
0003C000
ENDCHAR
STARTCHAR 283a
ENCODING 10298
SWIDTH 192 0
DWIDTH 32 0
BBX 32 32 0 -4
BITMAP
00030000
00030000
00030000
00030000
00030000
00030000
00030000
00030000
00030000
00030000
00030000
00030000
00030000
00030000
FFFFFFFF
FFFFFFFF
FFFFFFFF
FFFFFFFF
00000000
00000000
00000000
00000000
00000000
00000000
00000000
00000000
00000000
00000000
00000000
00000000
00000000
00000000
ENDCHAR
STARTCHAR 283b
ENCODING 10299
SWIDTH 192 0
DWIDTH 32 0
BBX 32 32 0 -4
BITMAP
00030000
00030000
00030000
00030000
00030000
00030000
00030000
00030000
00030000
00030000
00030000
00030000
00030000
00030000
FFFFFFFF
FFFFFFFF
FFFFFFFF
FFFFFFFF
00030000
00030000
00030000
00030000
00030000
00030000
00030000
00030000
00030000
00030000
00030000
00030000
00030000
00030000
ENDCHAR
STARTCHAR 283c
ENCODING 10300
SWIDTH 192 0
DWIDTH 32 0
BBX 32 32 0 -4
BITMAP
00030000
00030000
00030000
00030000
00030000
00030000
00030000
00030000
00030000
00030000
00030000
00030000
00030000
00030000
0003FFFF
0003FFFF
0003FFFF
0003FFFF
00030000
00030000
00030000
00030000
00030000
00030000
00030000
00030000
00030000
00030000
00030000
00030000
00030000
00030000
ENDCHAR
STARTCHAR 283d
ENCODING 10301
SWIDTH 192 0
DWIDTH 32 0
BBX 32 32 0 -4
BITMAP
00000000
00000000
00000000
00000000
00000000
00000000
00000000
00000000
00000000
00000000
00000000
00000000
00000000
00000000
FFFFFFFF
FFFFFFFF
0003C000
0003C000
0003C000
0003C000
0003C000
0003C000
0003C000
0003C000
0003C000
0003C000
0003C000
0003C000
0003C000
0003C000
0003C000
0003C000
ENDCHAR
STARTCHAR 283e
ENCODING 10302
SWIDTH 192 0
DWIDTH 32 0
BBX 32 32 0 -4
BITMAP
00030000
00030000
00030000
00030000
00030000
00030000
00030000
00030000
00030000
00030000
00030000
00030000
00030000
00030000
FFFF0000
FFFF0000
FFFF0000
FFFF0000
00030000
00030000
00030000
00030000
00030000
00030000
00030000
00030000
00030000
00030000
00030000
00030000
00030000
00030000
ENDCHAR
STARTCHAR 283f
ENCODING 10303
SWIDTH 192 0
DWIDTH 32 0
BBX 32 32 0 -4
BITMAP
0003C000
0003C000
0003C000
0003C000
0003C000
0003C000
0003C000
0003C000
0003C000
0003C000
0003C000
0003C000
0003C000
0003C000
FFFFFFFF
FFFFFFFF
00000000
00000000
00000000
00000000
00000000
00000000
00000000
00000000
00000000
00000000
00000000
00000000
00000000
00000000
00000000
00000000
ENDCHAR
STARTCHAR 2840
ENCODING 10304
SWIDTH 192 0
DWIDTH 32 0
BBX 32 32 0 -4
BITMAP
0003C000
0003C000
0003C000
0003C000
0003C000
0003C000
0003C000
0003C000
0003C000
0003C000
0003C000
0003C000
0003C000
0003C000
FFFFFFFF
FFFFFFFF
0003C000
0003C000
0003C000
0003C000
0003C000
0003C000
0003C000
0003C000
0003C000
0003C000
0003C000
0003C000
0003C000
0003C000
0003C000
0003C000
ENDCHAR
STARTCHAR 3021
ENCODING 12321
SWIDTH 192 0
DWIDTH 32 0
BBX 32 32 0 -4
BITMAP
00000000
00000000
3FFFFFFC
3FFFFFFC
00303000
00303000
00303000
00303000
00303000
00303000
0FFFFFF0
0FFFFFF0
0C303030
0C303030
0C303030
0C303030
0C303030
0C303030
0C303030
0C303030
0FFFFFF0
0FFFFFF0
00303000
00303000
00303000
00303000
00303000
00303000
FFFFFFFF
FFFFFFFF
00000000
00000000
ENDCHAR
STARTCHAR 3022
ENCODING 12322
SWIDTH 192 0
DWIDTH 32 0
BBX 32 32 0 -4
BITMAP
00000000
00000000
00FFFFFF
00FFFFFF
FF00C300
FF00C300
C300C300
C300C300
C300C300
C300C300
C33FFFFC
C33FFFFC
C330C30C
C330C30C
C330C30C
C330C30C
C330C30C
C330C30C
C33FFFFC
C33FFFFC
C300C300
C300C300
FF00C300
FF00C300
0000C300
0000C300
0000C300
0000C300
00FFFFFF
00FFFFFF
00000000
00000000
ENDCHAR
STARTCHAR 3023
ENCODING 12323
SWIDTH 192 0
DWIDTH 32 0
BBX 32 32 0 -4
BITMAP
0C000300
0C000300
0C000300
0C000300
0C00FFFC
0C00FFFC
0C000300
0C000300
FFF00300
FFF00300
0C300300
0C300300
0C33FFFF
0C33FFFF
3C300000
3C300000
30300300
30300300
30F00300
30F00300
FCC0FFFC
FCC0FFFC
03C00300
03C00300
03300300
03300300
0F300300
0F300300
3C000300
3C000300
F003FFFF
F003FFFF
ENDCHAR
STARTCHAR 3024
ENCODING 12324
SWIDTH 192 0
DWIDTH 32 0
BBX 32 32 0 -4
BITMAP
00000000
00000000
3FF3FFFF
3FF3FFFF
30300030
30300030
30F00030
30F00030
33C3FC30
33C3FC30
33030C30
33030C30
30C30C30
30C30C30
30330C30
30330C30
30330C30
30330C30
30330C30
30330C30
3033FC30
3033FC30
30300030
30300030
33F00030
33F00030
30000030
30000030
30000030
30000030
300003F0
300003F0
ENDCHAR
STARTCHAR 3025
ENCODING 12325
SWIDTH 192 0
DWIDTH 32 0
BBX 32 32 0 -4
BITMAP
00030000
00030000
00030000
00030000
FFFFFFFF
FFFFFFFF
00000000
00000000
03FFFFC0
03FFFFC0
030000C0
030000C0
030000C0
030000C0
030000C0
030000C0
03FFFFC0
03FFFFC0
003C300C
003C300C
00F03C3C
00F03C3C
0FC00CF0
0FC00CF0
FCC00F00
FCC00F00
00C003C0
00C003C0
00FFC0F0
00FFC0F0
3FC0003F
3FC0003F
ENDCHAR
STARTCHAR 3026
ENCODING 12326
SWIDTH 192 0
DWIDTH 32 0
BBX 32 32 0 -4
BITMAP
000003F0
000003F0
3FFFFF00
3FFFFF00
0C0C0030
0C0C0030
030300C0
030300C0
FFFFFFFF
FFFFFFFF
C0030003
C0030003
C330C0F3
C330C0F3
0F30033C
0F30033C
3C3FFF0C
3C3FFF0C
00C00000
00C00000
00FFFFC0
00FFFFC0
0FF00F00
0FF00F00
FC3C3C00
FC3C3C00
000FF000
000FF000
03FC3FC0
03FC3FC0
FF0000FF
FF0000FF
ENDCHAR
STARTCHAR 3027
ENCODING 12327
SWIDTH 192 0
DWIDTH 32 0
BBX 32 32 0 -4
BITMAP
0C00C000
0C00C000
0C00C030
0C00C030
0C03C030
0C03C030
FFC30FFC
FFC30FFC
0C3FFC0F
0C3FFC0F
0C030000
0C030000
0C030000
0C030000
0C0FFFFC
0C0FFFFC
0F3C0C00
0F3C0C00
FC000C00
FC000C00
0C3FFFFF
0C3FFFFF
0C003300
0C003300
0C00F3C0
0C00F3C0
0C03C0F0
0C03C0F0
0C0F003C
0C0F003C
3C3C000F
3C3C000F
ENDCHAR
STARTCHAR 3028
ENCODING 12328
SWIDTH 192 0
DWIDTH 32 0
BBX 32 32 0 -4
BITMAP
0C000300
0C000300
0C000FC0
0C000FC0
0C000CC0
0C000CC0
0C003CF0
0C003CF0
FFF0F03C
FFF0F03C
0C33C00F
0C33C00F
0C300000
0C300000
3C303FF0
3C303FF0
30F00000
30F00000
30C00000
30C00000
FCC0FFFC
FCC0FFFC
03C0C00C
03C0C00C
0330C00C
0330C00C
0F30C00C
0F30C00C
3C00C00C
3C00C00C
F000FFFC
F000FFFC
ENDCHAR
STARTCHAR 3029
ENCODING 12329
SWIDTH 192 0
DWIDTH 32 0
BBX 32 32 0 -4
BITMAP
0000C000
0000C000
3C00FFF0
3C00FFF0
0F030030
0F030030
033CC0C0
033CC0C0
00003F00
00003F00
0003F3F0
0003F3F0
003F003F
003F003F
FF000C00
FF000C00
0303FFF0
0303FFF0
03000C00
03000C00
0303FFF0
0303FFF0
03000C00
03000C00
030FFFFC
030FFFFC
0F000C00
0F000C00
3CC00000
3CC00000
F03FFFFF
F03FFFFF
ENDCHAR
STARTCHAR 302a
ENCODING 12330
SWIDTH 192 0
DWIDTH 32 0
BBX 32 32 0 -4
BITMAP
00300C00
00300C00
00300C00
00300C00
FFFFFFFF
FFFFFFFF
00300C00
00300C00
00000000
00000000
3FFC3030
3FFC3030
00300CC3
00300CC3
30C0030C
30C0030C
0FFFFFF0
0FFFFFF0
FC03003F
FC03003F
00030000
00030000
3FFFFFFC
3FFFFFFC
000C3000
000C3000
003C3C00
003C3C00
03F00FC0
03F00FC0
3F0000FC
3F0000FC
ENDCHAR
STARTCHAR 302b
ENCODING 12331
SWIDTH 192 0
DWIDTH 32 0
BBX 32 32 0 -4
BITMAP
00300C00
00300C00
00300C00
00300C00
FFFFFFFF
FFFFFFFF
00300C00
00300C00
00000000
00000000
FFFFFFFF
FFFFFFFF
00303000
00303000
00303000
00303000
3FFFFFFC
3FFFFFFC
3030300C
3030300C
30F0300C
30F0300C
3FC03FFC
3FC03FFC
3000000C
3000000C
3000000C
3000000C
3FFFFFFC
3FFFFFFC
00000000
00000000
ENDCHAR
ENDFONT
